<?xml version="1.0" standalone="no"?>
<!DOCTYPE svg PUBLIC "-//W3C//DTD SVG 1.1//EN" "http://www.w3.org/Graphics/SVG/1.1/DTD/svg11.dtd" >
<svg xmlns="http://www.w3.org/2000/svg">
<metadata></metadata>
<defs>
<font id="qanelas_soft_demoultralight" horiz-adv-x="983" >
<font-face units-per-em="2048" ascent="1638" descent="-410" />
<missing-glyph horiz-adv-x="579" />
<glyph unicode="&#xfb01;" d="M143 1v1433h697v-1433h-697zM184 42h615v1351h-615v-1351zM358 1095q0 -56 38.5 -95t95.5 -39t95 39t38 95t-38 95t-95 39t-95.5 -39t-38.5 -95zM363 214q0 -9 9 -9h239q9 0 9 9v101q0 53 -36.5 89t-91.5 36t-92 -36t-37 -89v-101zM363 486q0 -9 9 -9h239q9 0 9 9v136 q0 9 -9 9h-38q-9 0 -9 -9v-87h-46v76q0 9 -10 9h-36q-9 0 -9 -9v-76h-43v85q0 9 -10 9h-38q-9 0 -9 -9v-134zM363 677q0 -9 9 -9h239q9 0 9 9v40q0 9 -9 9h-149l111 47q7 3 7 11v25q0 7 -7 10l-111 47h149q9 0 9 9v41q0 9 -9 9h-239q-9 0 -9 -9v-50q0 -7 7 -10l141 -60 l-141 -59q-7 -3 -7 -11v-49zM415 1095q0 32 21.5 53.5t55.5 21.5t55 -21.5t21 -53.5t-21 -53.5t-55 -21.5t-55.5 21.5t-21.5 53.5zM420 264v51q0 30 19.5 49t52.5 19t52.5 -19t19.5 -49v-51h-144z" />
<glyph unicode="&#xfb02;" d="M143 1v1433h697v-1433h-697zM184 42h615v1351h-615v-1351zM358 1095q0 -56 38.5 -95t95.5 -39t95 39t38 95t-38 95t-95 39t-95.5 -39t-38.5 -95zM363 214q0 -9 9 -9h239q9 0 9 9v101q0 53 -36.5 89t-91.5 36t-92 -36t-37 -89v-101zM363 486q0 -9 9 -9h239q9 0 9 9v136 q0 9 -9 9h-38q-9 0 -9 -9v-87h-46v76q0 9 -10 9h-36q-9 0 -9 -9v-76h-43v85q0 9 -10 9h-38q-9 0 -9 -9v-134zM363 677q0 -9 9 -9h239q9 0 9 9v40q0 9 -9 9h-149l111 47q7 3 7 11v25q0 7 -7 10l-111 47h149q9 0 9 9v41q0 9 -9 9h-239q-9 0 -9 -9v-50q0 -7 7 -10l141 -60 l-141 -59q-7 -3 -7 -11v-49zM415 1095q0 32 21.5 53.5t55.5 21.5t55 -21.5t21 -53.5t-21 -53.5t-55 -21.5t-55.5 21.5t-21.5 53.5zM420 264v51q0 30 19.5 49t52.5 19t52.5 -19t19.5 -49v-51h-144z" />
<glyph horiz-adv-x="0" />
<glyph horiz-adv-x="682" />
<glyph unicode=" "  horiz-adv-x="579" />
<glyph unicode="&#x09;" horiz-adv-x="579" />
<glyph unicode="&#xa0;" horiz-adv-x="579" />
<glyph unicode="!" horiz-adv-x="430" d="M171 20v103q0 20 20 20h48q20 0 20 -20v-103q0 -20 -20 -20h-48q-20 0 -20 20zM174 1028v385q0 21 21 21h41q20 0 20 -21v-390l-10 -658q0 -17 -17 -17h-28q-17 0 -17 17z" />
<glyph unicode="&#x22;" d="M143 1v1433h697v-1433h-697zM184 42h615v1351h-615v-1351zM358 1095q0 -56 38.5 -95t95.5 -39t95 39t38 95t-38 95t-95 39t-95.5 -39t-38.5 -95zM363 214q0 -9 9 -9h239q9 0 9 9v101q0 53 -36.5 89t-91.5 36t-92 -36t-37 -89v-101zM363 486q0 -9 9 -9h239q9 0 9 9v136 q0 9 -9 9h-38q-9 0 -9 -9v-87h-46v76q0 9 -10 9h-36q-9 0 -9 -9v-76h-43v85q0 9 -10 9h-38q-9 0 -9 -9v-134zM363 677q0 -9 9 -9h239q9 0 9 9v40q0 9 -9 9h-149l111 47q7 3 7 11v25q0 7 -7 10l-111 47h149q9 0 9 9v41q0 9 -9 9h-239q-9 0 -9 -9v-50q0 -7 7 -10l141 -60 l-141 -59q-7 -3 -7 -11v-49zM415 1095q0 32 21.5 53.5t55.5 21.5t55 -21.5t21 -53.5t-21 -53.5t-55 -21.5t-55.5 21.5t-21.5 53.5zM420 264v51q0 30 19.5 49t52.5 19t52.5 -19t19.5 -49v-51h-144z" />
<glyph unicode="#" d="M143 1v1433h697v-1433h-697zM184 42h615v1351h-615v-1351zM358 1095q0 -56 38.5 -95t95.5 -39t95 39t38 95t-38 95t-95 39t-95.5 -39t-38.5 -95zM363 214q0 -9 9 -9h239q9 0 9 9v101q0 53 -36.5 89t-91.5 36t-92 -36t-37 -89v-101zM363 486q0 -9 9 -9h239q9 0 9 9v136 q0 9 -9 9h-38q-9 0 -9 -9v-87h-46v76q0 9 -10 9h-36q-9 0 -9 -9v-76h-43v85q0 9 -10 9h-38q-9 0 -9 -9v-134zM363 677q0 -9 9 -9h239q9 0 9 9v40q0 9 -9 9h-149l111 47q7 3 7 11v25q0 7 -7 10l-111 47h149q9 0 9 9v41q0 9 -9 9h-239q-9 0 -9 -9v-50q0 -7 7 -10l141 -60 l-141 -59q-7 -3 -7 -11v-49zM415 1095q0 32 21.5 53.5t55.5 21.5t55 -21.5t21 -53.5t-21 -53.5t-55 -21.5t-55.5 21.5t-21.5 53.5zM420 264v51q0 30 19.5 49t52.5 19t52.5 -19t19.5 -49v-51h-144z" />
<glyph unicode="$" horiz-adv-x="1126" d="M96 350q-2 21 20 21h35q18 0 20 -21q8 -128 102 -206.5t256 -91.5v655q-72 27 -119.5 48.5t-105.5 58t-92.5 76t-58 98t-23.5 128.5q0 148 112.5 239.5t286.5 99.5v163q0 20 21 20h27q20 0 20 -20v-164q160 -12 272.5 -109.5t120.5 -243.5q2 -21 -20 -21h-35 q-18 0 -20 20q-8 113 -96 192.5t-222 90.5v-627q49 -19 71.5 -28t68 -28.5t68 -32.5t59.5 -36t56.5 -42.5t44 -48.5t37 -58.5t21 -67t8.5 -78.5q0 -163 -123 -259.5t-311 -98.5v-162q0 -21 -20 -21h-27q-21 0 -21 21v164q-189 14 -307.5 111t-125.5 259zM205 1115 q0 -53 18 -98.5t45.5 -78t72.5 -63t87 -50.5t101 -43v602q-148 -7 -236 -81t-88 -188zM597 49q164 1 261.5 80t97.5 207q0 42 -10.5 78.5t-27.5 64.5t-45.5 54.5t-55.5 45t-68 38.5t-73 33t-79 31v-632z" />
<glyph unicode="%" d="M143 1v1433h697v-1433h-697zM184 42h615v1351h-615v-1351zM358 1095q0 -56 38.5 -95t95.5 -39t95 39t38 95t-38 95t-95 39t-95.5 -39t-38.5 -95zM363 214q0 -9 9 -9h239q9 0 9 9v101q0 53 -36.5 89t-91.5 36t-92 -36t-37 -89v-101zM363 486q0 -9 9 -9h239q9 0 9 9v136 q0 9 -9 9h-38q-9 0 -9 -9v-87h-46v76q0 9 -10 9h-36q-9 0 -9 -9v-76h-43v85q0 9 -10 9h-38q-9 0 -9 -9v-134zM363 677q0 -9 9 -9h239q9 0 9 9v40q0 9 -9 9h-149l111 47q7 3 7 11v25q0 7 -7 10l-111 47h149q9 0 9 9v41q0 9 -9 9h-239q-9 0 -9 -9v-50q0 -7 7 -10l141 -60 l-141 -59q-7 -3 -7 -11v-49zM415 1095q0 32 21.5 53.5t55.5 21.5t55 -21.5t21 -53.5t-21 -53.5t-55 -21.5t-55.5 21.5t-21.5 53.5zM420 264v51q0 30 19.5 49t52.5 19t52.5 -19t19.5 -49v-51h-144z" />
<glyph unicode="&#x26;" d="M143 1v1433h697v-1433h-697zM184 42h615v1351h-615v-1351zM358 1095q0 -56 38.5 -95t95.5 -39t95 39t38 95t-38 95t-95 39t-95.5 -39t-38.5 -95zM363 214q0 -9 9 -9h239q9 0 9 9v101q0 53 -36.5 89t-91.5 36t-92 -36t-37 -89v-101zM363 486q0 -9 9 -9h239q9 0 9 9v136 q0 9 -9 9h-38q-9 0 -9 -9v-87h-46v76q0 9 -10 9h-36q-9 0 -9 -9v-76h-43v85q0 9 -10 9h-38q-9 0 -9 -9v-134zM363 677q0 -9 9 -9h239q9 0 9 9v40q0 9 -9 9h-149l111 47q7 3 7 11v25q0 7 -7 10l-111 47h149q9 0 9 9v41q0 9 -9 9h-239q-9 0 -9 -9v-50q0 -7 7 -10l141 -60 l-141 -59q-7 -3 -7 -11v-49zM415 1095q0 32 21.5 53.5t55.5 21.5t55 -21.5t21 -53.5t-21 -53.5t-55 -21.5t-55.5 21.5t-21.5 53.5zM420 264v51q0 30 19.5 49t52.5 19t52.5 -19t19.5 -49v-51h-144z" />
<glyph unicode="'" horiz-adv-x="292" d="M117 1414q-2 20 18 20h37q20 0 18 -20l-5 -316q-2 -19 -20 -19h-23q-18 0 -20 19z" />
<glyph unicode="(" d="M143 1v1433h697v-1433h-697zM184 42h615v1351h-615v-1351zM358 1095q0 -56 38.5 -95t95.5 -39t95 39t38 95t-38 95t-95 39t-95.5 -39t-38.5 -95zM363 214q0 -9 9 -9h239q9 0 9 9v101q0 53 -36.5 89t-91.5 36t-92 -36t-37 -89v-101zM363 486q0 -9 9 -9h239q9 0 9 9v136 q0 9 -9 9h-38q-9 0 -9 -9v-87h-46v76q0 9 -10 9h-36q-9 0 -9 -9v-76h-43v85q0 9 -10 9h-38q-9 0 -9 -9v-134zM363 677q0 -9 9 -9h239q9 0 9 9v40q0 9 -9 9h-149l111 47q7 3 7 11v25q0 7 -7 10l-111 47h149q9 0 9 9v41q0 9 -9 9h-239q-9 0 -9 -9v-50q0 -7 7 -10l141 -60 l-141 -59q-7 -3 -7 -11v-49zM415 1095q0 32 21.5 53.5t55.5 21.5t55 -21.5t21 -53.5t-21 -53.5t-55 -21.5t-55.5 21.5t-21.5 53.5zM420 264v51q0 30 19.5 49t52.5 19t52.5 -19t19.5 -49v-51h-144z" />
<glyph unicode=")" d="M143 1v1433h697v-1433h-697zM184 42h615v1351h-615v-1351zM358 1095q0 -56 38.5 -95t95.5 -39t95 39t38 95t-38 95t-95 39t-95.5 -39t-38.5 -95zM363 214q0 -9 9 -9h239q9 0 9 9v101q0 53 -36.5 89t-91.5 36t-92 -36t-37 -89v-101zM363 486q0 -9 9 -9h239q9 0 9 9v136 q0 9 -9 9h-38q-9 0 -9 -9v-87h-46v76q0 9 -10 9h-36q-9 0 -9 -9v-76h-43v85q0 9 -10 9h-38q-9 0 -9 -9v-134zM363 677q0 -9 9 -9h239q9 0 9 9v40q0 9 -9 9h-149l111 47q7 3 7 11v25q0 7 -7 10l-111 47h149q9 0 9 9v41q0 9 -9 9h-239q-9 0 -9 -9v-50q0 -7 7 -10l141 -60 l-141 -59q-7 -3 -7 -11v-49zM415 1095q0 32 21.5 53.5t55.5 21.5t55 -21.5t21 -53.5t-21 -53.5t-55 -21.5t-55.5 21.5t-21.5 53.5zM420 264v51q0 30 19.5 49t52.5 19t52.5 -19t19.5 -49v-51h-144z" />
<glyph unicode="*" d="M143 1v1433h697v-1433h-697zM184 42h615v1351h-615v-1351zM358 1095q0 -56 38.5 -95t95.5 -39t95 39t38 95t-38 95t-95 39t-95.5 -39t-38.5 -95zM363 214q0 -9 9 -9h239q9 0 9 9v101q0 53 -36.5 89t-91.5 36t-92 -36t-37 -89v-101zM363 486q0 -9 9 -9h239q9 0 9 9v136 q0 9 -9 9h-38q-9 0 -9 -9v-87h-46v76q0 9 -10 9h-36q-9 0 -9 -9v-76h-43v85q0 9 -10 9h-38q-9 0 -9 -9v-134zM363 677q0 -9 9 -9h239q9 0 9 9v40q0 9 -9 9h-149l111 47q7 3 7 11v25q0 7 -7 10l-111 47h149q9 0 9 9v41q0 9 -9 9h-239q-9 0 -9 -9v-50q0 -7 7 -10l141 -60 l-141 -59q-7 -3 -7 -11v-49zM415 1095q0 32 21.5 53.5t55.5 21.5t55 -21.5t21 -53.5t-21 -53.5t-55 -21.5t-55.5 21.5t-21.5 53.5zM420 264v51q0 30 19.5 49t52.5 19t52.5 -19t19.5 -49v-51h-144z" />
<glyph unicode="+" d="M143 1v1433h697v-1433h-697zM184 42h615v1351h-615v-1351zM358 1095q0 -56 38.5 -95t95.5 -39t95 39t38 95t-38 95t-95 39t-95.5 -39t-38.5 -95zM363 214q0 -9 9 -9h239q9 0 9 9v101q0 53 -36.5 89t-91.5 36t-92 -36t-37 -89v-101zM363 486q0 -9 9 -9h239q9 0 9 9v136 q0 9 -9 9h-38q-9 0 -9 -9v-87h-46v76q0 9 -10 9h-36q-9 0 -9 -9v-76h-43v85q0 9 -10 9h-38q-9 0 -9 -9v-134zM363 677q0 -9 9 -9h239q9 0 9 9v40q0 9 -9 9h-149l111 47q7 3 7 11v25q0 7 -7 10l-111 47h149q9 0 9 9v41q0 9 -9 9h-239q-9 0 -9 -9v-50q0 -7 7 -10l141 -60 l-141 -59q-7 -3 -7 -11v-49zM415 1095q0 32 21.5 53.5t55.5 21.5t55 -21.5t21 -53.5t-21 -53.5t-55 -21.5t-55.5 21.5t-21.5 53.5zM420 264v51q0 30 19.5 49t52.5 19t52.5 -19t19.5 -49v-51h-144z" />
<glyph unicode="," horiz-adv-x="430" d="M157 -213q0 12 11 20q46 30 47 138h-10q-21 0 -21 21v157q0 20 21 20h48q20 0 20 -20v-178q0 -151 -98 -189q-8 -3 -13 1t-5 13v17z" />
<glyph unicode="-" d="M143 1v1433h697v-1433h-697zM184 42h615v1351h-615v-1351zM358 1095q0 -56 38.5 -95t95.5 -39t95 39t38 95t-38 95t-95 39t-95.5 -39t-38.5 -95zM363 214q0 -9 9 -9h239q9 0 9 9v101q0 53 -36.5 89t-91.5 36t-92 -36t-37 -89v-101zM363 486q0 -9 9 -9h239q9 0 9 9v136 q0 9 -9 9h-38q-9 0 -9 -9v-87h-46v76q0 9 -10 9h-36q-9 0 -9 -9v-76h-43v85q0 9 -10 9h-38q-9 0 -9 -9v-134zM363 677q0 -9 9 -9h239q9 0 9 9v40q0 9 -9 9h-149l111 47q7 3 7 11v25q0 7 -7 10l-111 47h149q9 0 9 9v41q0 9 -9 9h-239q-9 0 -9 -9v-50q0 -7 7 -10l141 -60 l-141 -59q-7 -3 -7 -11v-49zM415 1095q0 32 21.5 53.5t55.5 21.5t55 -21.5t21 -53.5t-21 -53.5t-55 -21.5t-55.5 21.5t-21.5 53.5zM420 264v51q0 30 19.5 49t52.5 19t52.5 -19t19.5 -49v-51h-144z" />
<glyph unicode="." horiz-adv-x="403" d="M157 20v103q0 20 21 20h47q21 0 21 -20v-103q0 -20 -21 -20h-47q-21 0 -21 20z" />
<glyph unicode="/" d="M143 1v1433h697v-1433h-697zM184 42h615v1351h-615v-1351zM358 1095q0 -56 38.5 -95t95.5 -39t95 39t38 95t-38 95t-95 39t-95.5 -39t-38.5 -95zM363 214q0 -9 9 -9h239q9 0 9 9v101q0 53 -36.5 89t-91.5 36t-92 -36t-37 -89v-101zM363 486q0 -9 9 -9h239q9 0 9 9v136 q0 9 -9 9h-38q-9 0 -9 -9v-87h-46v76q0 9 -10 9h-36q-9 0 -9 -9v-76h-43v85q0 9 -10 9h-38q-9 0 -9 -9v-134zM363 677q0 -9 9 -9h239q9 0 9 9v40q0 9 -9 9h-149l111 47q7 3 7 11v25q0 7 -7 10l-111 47h149q9 0 9 9v41q0 9 -9 9h-239q-9 0 -9 -9v-50q0 -7 7 -10l141 -60 l-141 -59q-7 -3 -7 -11v-49zM415 1095q0 32 21.5 53.5t55.5 21.5t55 -21.5t21 -53.5t-21 -53.5t-55 -21.5t-55.5 21.5t-21.5 53.5zM420 264v51q0 30 19.5 49t52.5 19t52.5 -19t19.5 -49v-51h-144z" />
<glyph unicode="0" horiz-adv-x="1290" d="M116 717q0 337 140 537.5t389 200.5t389 -200.5t140 -537.5q0 -221 -61.5 -387t-181.5 -259t-286 -93t-286 93t-181.5 259t-61.5 387zM191 717q0 -313 121.5 -490.5t332.5 -177.5t332.5 177.5t121.5 490.5t-121.5 490t-332.5 177t-332.5 -177t-121.5 -490z" />
<glyph unicode="1" horiz-adv-x="661" d="M38 1188v37q0 16 14 24l332 178q11 7 25 7h42q20 0 20 -21v-1393q0 -20 -20 -20h-35q-20 0 -20 20v1332l-334 -179q-10 -6 -17 -1.5t-7 16.5z" />
<glyph unicode="2" horiz-adv-x="1081" d="M96 20v33q0 14 11 25l524 537q243 250 243 424q0 163 -94 254t-255 91q-151 0 -249.5 -86.5t-104.5 -231.5q-2 -20 -21 -20h-34q-22 0 -20 21q5 120 66.5 209.5t156 134t206.5 44.5q185 0 304.5 -109.5t119.5 -306.5q0 -114 -72 -231t-196 -245l-482 -492h767 q20 0 20 -20v-31q0 -20 -20 -20h-850q-20 0 -20 20z" />
<glyph unicode="3" horiz-adv-x="1126" d="M69 390q-2 22 20 22h35q18 0 20 -21q7 -153 116 -247.5t283 -94.5q179 0 289 101t110 262t-110 261.5t-289 100.5v1l-1 -1h-32q-21 0 -21 21v13q0 14 8 25l360 531h-707q-20 0 -20 20v29q0 21 20 21h772q20 0 20 -21v-35q0 -14 -8 -25l-348 -513q187 -13 309 -128.5 t122 -299.5q0 -130 -64 -230t-171 -152t-239 -52q-197 0 -332 113t-142 299z" />
<glyph unicode="4" horiz-adv-x="1153" d="M65 334v36q0 14 6 26l540 1023q7 15 25 15h38q12 0 16 -7t-1 -18l-541 -1025h702v442q0 20 20 20h35q20 0 20 -20v-442h164q20 0 20 -21v-29q0 -20 -20 -20h-164v-294q0 -20 -20 -20h-35q-20 0 -20 20v294h-765q-20 0 -20 20z" />
<glyph unicode="5" horiz-adv-x="1126" d="M90 390q-2 22 19 22h35q19 0 21 -21q7 -153 115.5 -247.5t282.5 -94.5q179 0 289.5 101t110.5 262t-110.5 261.5t-289.5 100.5h-376q-22 0 -20 22l43 618q2 20 21 20h728q21 0 21 -21v-29q0 -20 -21 -20h-679l-35 -519h318q132 0 239.5 -52t171.5 -151.5t64 -229.5 t-64 -230t-171.5 -152t-239.5 -52q-197 0 -331.5 113t-141.5 299z" />
<glyph unicode="6" horiz-adv-x="1112" d="M75 450q0 164 88 285l482 685q9 14 24 14h39q13 0 16.5 -7.5t-3.5 -17.5l-369 -526q95 39 204 39q210 0 346 -132t136 -340t-136 -340t-346 -132t-345.5 132t-135.5 340zM150 450q0 -175 110.5 -288t295.5 -113t295.5 113t110.5 288t-110.5 288t-295.5 113t-295.5 -113 t-110.5 -288z" />
<glyph unicode="7" horiz-adv-x="1003" d="M55 1384v29q0 21 20 21h812q21 0 21 -21v-36q0 -12 -5 -25l-561 -1337q-5 -15 -23 -15h-35q-11 0 -15.5 7t0.5 17l563 1340h-757q-20 0 -20 20z" />
<glyph unicode="8" horiz-adv-x="1130" d="M96 375q0 132 75 228t205 138q-108 43 -171.5 131.5t-63.5 206.5q0 172 121 274t303 102t303 -102t121 -274q0 -118 -63.5 -206.5t-171.5 -131.5q130 -42 205.5 -138t75.5 -228q0 -183 -130 -290t-340 -107t-339.5 107t-129.5 290zM171 375q0 -149 104 -237.5t290 -88.5 t290.5 88.5t104.5 237.5t-104.5 238t-290.5 89t-290 -89t-104 -238zM216 1079q0 -135 95.5 -220.5t253.5 -85.5t253.5 85.5t95.5 220.5q0 137 -95 221t-254 84t-254 -84t-95 -221z" />
<glyph unicode="9" horiz-adv-x="1112" d="M75 984q0 208 135.5 339.5t345.5 131.5t346 -131.5t136 -339.5q0 -165 -88 -286l-482 -685q-9 -13 -25 -13h-38q-13 0 -16.5 7.5t3.5 17.5l369 526q-95 -39 -205 -39q-210 0 -345.5 132t-135.5 340zM150 984q0 -175 111 -288t296 -113t295.5 113t110.5 288t-110.5 287.5 t-295.5 112.5q-186 0 -296.5 -112.5t-110.5 -287.5z" />
<glyph unicode=":" horiz-adv-x="403" d="M157 20v103q0 20 21 20h47q21 0 21 -20v-103q0 -20 -21 -20h-47q-21 0 -21 20zM157 901v103q0 20 21 20h47q21 0 21 -20v-103q0 -20 -21 -20h-47q-21 0 -21 20z" />
<glyph unicode=";" horiz-adv-x="430" d="M157 -213q0 12 11 20q46 30 47 138h-10q-21 0 -21 21v157q0 20 21 20h48q20 0 20 -20v-178q0 -151 -98 -189q-8 -3 -13 1t-5 13v17zM184 901v103q0 20 21 20h48q20 0 20 -20v-103q0 -20 -20 -20h-48q-21 0 -21 20z" />
<glyph unicode="&#x3c;" d="M143 1v1433h697v-1433h-697zM184 42h615v1351h-615v-1351zM358 1095q0 -56 38.5 -95t95.5 -39t95 39t38 95t-38 95t-95 39t-95.5 -39t-38.5 -95zM363 214q0 -9 9 -9h239q9 0 9 9v101q0 53 -36.5 89t-91.5 36t-92 -36t-37 -89v-101zM363 486q0 -9 9 -9h239q9 0 9 9v136 q0 9 -9 9h-38q-9 0 -9 -9v-87h-46v76q0 9 -10 9h-36q-9 0 -9 -9v-76h-43v85q0 9 -10 9h-38q-9 0 -9 -9v-134zM363 677q0 -9 9 -9h239q9 0 9 9v40q0 9 -9 9h-149l111 47q7 3 7 11v25q0 7 -7 10l-111 47h149q9 0 9 9v41q0 9 -9 9h-239q-9 0 -9 -9v-50q0 -7 7 -10l141 -60 l-141 -59q-7 -3 -7 -11v-49zM415 1095q0 32 21.5 53.5t55.5 21.5t55 -21.5t21 -53.5t-21 -53.5t-55 -21.5t-55.5 21.5t-21.5 53.5zM420 264v51q0 30 19.5 49t52.5 19t52.5 -19t19.5 -49v-51h-144z" />
<glyph unicode="=" d="M143 1v1433h697v-1433h-697zM184 42h615v1351h-615v-1351zM358 1095q0 -56 38.5 -95t95.5 -39t95 39t38 95t-38 95t-95 39t-95.5 -39t-38.5 -95zM363 214q0 -9 9 -9h239q9 0 9 9v101q0 53 -36.5 89t-91.5 36t-92 -36t-37 -89v-101zM363 486q0 -9 9 -9h239q9 0 9 9v136 q0 9 -9 9h-38q-9 0 -9 -9v-87h-46v76q0 9 -10 9h-36q-9 0 -9 -9v-76h-43v85q0 9 -10 9h-38q-9 0 -9 -9v-134zM363 677q0 -9 9 -9h239q9 0 9 9v40q0 9 -9 9h-149l111 47q7 3 7 11v25q0 7 -7 10l-111 47h149q9 0 9 9v41q0 9 -9 9h-239q-9 0 -9 -9v-50q0 -7 7 -10l141 -60 l-141 -59q-7 -3 -7 -11v-49zM415 1095q0 32 21.5 53.5t55.5 21.5t55 -21.5t21 -53.5t-21 -53.5t-55 -21.5t-55.5 21.5t-21.5 53.5zM420 264v51q0 30 19.5 49t52.5 19t52.5 -19t19.5 -49v-51h-144z" />
<glyph unicode="&#x3e;" d="M143 1v1433h697v-1433h-697zM184 42h615v1351h-615v-1351zM358 1095q0 -56 38.5 -95t95.5 -39t95 39t38 95t-38 95t-95 39t-95.5 -39t-38.5 -95zM363 214q0 -9 9 -9h239q9 0 9 9v101q0 53 -36.5 89t-91.5 36t-92 -36t-37 -89v-101zM363 486q0 -9 9 -9h239q9 0 9 9v136 q0 9 -9 9h-38q-9 0 -9 -9v-87h-46v76q0 9 -10 9h-36q-9 0 -9 -9v-76h-43v85q0 9 -10 9h-38q-9 0 -9 -9v-134zM363 677q0 -9 9 -9h239q9 0 9 9v40q0 9 -9 9h-149l111 47q7 3 7 11v25q0 7 -7 10l-111 47h149q9 0 9 9v41q0 9 -9 9h-239q-9 0 -9 -9v-50q0 -7 7 -10l141 -60 l-141 -59q-7 -3 -7 -11v-49zM415 1095q0 32 21.5 53.5t55.5 21.5t55 -21.5t21 -53.5t-21 -53.5t-55 -21.5t-55.5 21.5t-21.5 53.5zM420 264v51q0 30 19.5 49t52.5 19t52.5 -19t19.5 -49v-51h-144z" />
<glyph unicode="?" horiz-adv-x="1081" d="M96 1101q5 104 68 186t160.5 125t210.5 43q183 0 297 -95t114 -263q0 -60 -22 -117t-57 -103.5t-78 -92.5t-86.5 -92t-80 -94t-61 -107.5t-27.5 -122.5q-2 -20 -21 -20h-34q-21 0 -20 21q3 69 27.5 132.5t61 113.5t79.5 97t86 91.5t78 88.5t57 97t22 108q0 133 -88 210 t-247 77q-150 0 -253 -80.5t-111 -203.5q-2 -20 -20 -20h-35q-22 0 -20 21zM451 20v103q0 20 21 20h47q21 0 21 -20v-103q0 -20 -21 -20h-47q-21 0 -21 20z" />
<glyph unicode="@" d="M143 1v1433h697v-1433h-697zM184 42h615v1351h-615v-1351zM358 1095q0 -56 38.5 -95t95.5 -39t95 39t38 95t-38 95t-95 39t-95.5 -39t-38.5 -95zM363 214q0 -9 9 -9h239q9 0 9 9v101q0 53 -36.5 89t-91.5 36t-92 -36t-37 -89v-101zM363 486q0 -9 9 -9h239q9 0 9 9v136 q0 9 -9 9h-38q-9 0 -9 -9v-87h-46v76q0 9 -10 9h-36q-9 0 -9 -9v-76h-43v85q0 9 -10 9h-38q-9 0 -9 -9v-134zM363 677q0 -9 9 -9h239q9 0 9 9v40q0 9 -9 9h-149l111 47q7 3 7 11v25q0 7 -7 10l-111 47h149q9 0 9 9v41q0 9 -9 9h-239q-9 0 -9 -9v-50q0 -7 7 -10l141 -60 l-141 -59q-7 -3 -7 -11v-49zM415 1095q0 32 21.5 53.5t55.5 21.5t55 -21.5t21 -53.5t-21 -53.5t-55 -21.5t-55.5 21.5t-21.5 53.5zM420 264v51q0 30 19.5 49t52.5 19t52.5 -19t19.5 -49v-51h-144z" />
<glyph unicode="A" horiz-adv-x="1288" d="M50 24l547 1393q7 17 23 17h47q17 0 24 -17l546 -1393q2 -5 2 -9q-1 -5 -3 -9q-4 -6 -15 -6h-36q-18 0 -24 16l-141 362h-753l-141 -362q-6 -16 -23 -16h-36q-11 0 -16 6q-3 4 -3 9q0 4 2 9zM294 448h699l-349 898z" />
<glyph unicode="B" horiz-adv-x="1396" d="M191 20v1393q0 21 21 21h54h471q149 0 245.5 -93t96.5 -229q0 -107 -66 -194q137 -47 221 -169.5t84 -277.5q0 -128 -58.5 -236t-163 -171.5t-231.5 -63.5h-633h-20q-21 0 -21 20zM266 70h592q166 0 275 116.5t109 284.5q0 169 -108 285t-274 116h-594v-802zM266 942h601 q30 0 67 -5q70 73 70 175q0 106 -74.5 179t-192.5 73h-471v-422z" />
<glyph unicode="C" horiz-adv-x="1585" d="M109 717q0 101 25 196.5t71 176.5t113 149t148.5 115.5t180 74t204.5 26.5q219 0 396.5 -116t252.5 -305q4 -11 -1 -17.5t-16 -6.5h-38q-16 0 -24 16q-69 161 -224.5 259.5t-345.5 98.5q-144 0 -269 -52.5t-212 -142.5t-136.5 -212.5t-49.5 -259.5q0 -183 84 -335.5 t238 -242.5t345 -90t346 98.5t224 260.5q7 15 24 15h40q19 0 19 -12q0 -4 -2 -9q-76 -190 -253.5 -307t-397.5 -117q-211 0 -382 99.5t-265.5 268t-94.5 371.5z" />
<glyph unicode="D" horiz-adv-x="1542" d="M191 20v1393q0 21 21 21h54h492q145 0 271.5 -56.5t215 -153.5t139 -228.5t50.5 -278.5t-50.5 -278.5t-139 -228.5t-215 -153.5t-271.5 -56.5h-533h-13q-21 0 -21 20zM266 70h492q174 0 312.5 87t214 234.5t75.5 325.5t-75.5 325.5t-214 234.5t-312.5 87h-492v-1294z" />
<glyph unicode="E" horiz-adv-x="1064" d="M191 20v1393q0 21 21 21h54h673q20 0 20 -21v-29q0 -20 -20 -20h-673v-606h621q21 0 21 -21v-28q0 -21 -21 -21h-621v-618h683q20 0 20 -21v-29q0 -20 -20 -20h-724h-13q-21 0 -21 20z" />
<glyph unicode="F" horiz-adv-x="1040" d="M191 20v1393q0 21 21 21h54h673q20 0 20 -21v-29q0 -20 -20 -20h-673v-659h656q20 0 20 -21v-29q0 -20 -20 -20h-656v-615q0 -20 -20 -20h-34q-21 0 -21 20z" />
<glyph unicode="G" horiz-adv-x="1658" d="M109 717q0 202 94.5 371t264.5 268t380 99q219 0 396 -116t252 -305q4 -11 -0.5 -17.5t-15.5 -6.5h-39q-16 0 -24 16q-69 161 -224 259.5t-345 98.5q-143 0 -267 -52.5t-211 -142.5t-136.5 -212.5t-49.5 -259.5q0 -138 49.5 -260t136.5 -212.5t215 -143t277 -52.5 q106 0 203 29t176 83.5t130 141.5t60 195v123h-539q-21 0 -21 20v29q0 20 21 20h593q21 0 21 -20v-49v-601q0 -20 -20 -20h-35q-20 0 -20 20v267q-74 -150 -228.5 -229.5t-340.5 -79.5q-164 0 -306 58.5t-239 158t-152.5 235t-55.5 287.5z" />
<glyph unicode="H" horiz-adv-x="1304" d="M191 20v1393q0 21 21 21h34q20 0 20 -21v-641h772v641q0 21 20 21h34q21 0 21 -21v-1393q0 -20 -21 -20h-34q-20 0 -20 20v682h-772v-682q0 -20 -20 -20h-34q-21 0 -21 20z" />
<glyph unicode="I" horiz-adv-x="456" d="M191 20v1393q0 21 21 21h34q20 0 20 -21v-1393q0 -20 -20 -20h-34q-21 0 -21 20z" />
<glyph unicode="J" horiz-adv-x="1099" d="M69 373q-2 22 20 22h34q19 0 21 -21q4 -149 100.5 -237t253.5 -88q160 0 257.5 90.5t97.5 241.5v1032q0 21 21 21h34q20 0 20 -21v-1032q0 -186 -123 -294.5t-307 -108.5q-117 0 -212.5 45t-154.5 136t-62 214z" />
<glyph unicode="K" horiz-adv-x="1153" d="M191 20v1393q0 21 21 21h34q20 0 20 -21v-656l737 667q10 10 24 10h49q14 0 17.5 -8.5t-6.5 -17.5l-738 -671l758 -712q8 -8 8 -14q0 -1 -1 -3q-3 -8 -17 -8h-48q-17 0 -26 10l-757 707v-697q0 -20 -20 -20h-34q-21 0 -21 20z" />
<glyph unicode="L" horiz-adv-x="1017" d="M191 20v1393q0 21 21 21h34q20 0 20 -21v-1343h676q21 0 21 -21v-29q0 -20 -21 -20h-711h-19q-21 0 -21 20z" />
<glyph unicode="M" horiz-adv-x="1665" d="M191 20v1393q0 21 21 21h34h24q17 0 24 -16l539 -1068l539 1068q7 16 23 16h37h22q21 0 21 -21v-1393q0 -20 -21 -20h-34q-21 0 -21 20v1295l-523 -1038q-7 -16 -23 -16h-40q-17 0 -24 16l-523 1038v-1295q0 -20 -20 -20h-34q-21 0 -21 20z" />
<glyph unicode="N" horiz-adv-x="1290" d="M191 20v1393q0 21 21 21h31q17 0 25 -14l756 -1273v1266q0 21 20 21h35q20 0 20 -21v-1393q0 -20 -20 -20h-32q-16 0 -24 14l-757 1272v-1266q0 -20 -20 -20h-34q-21 0 -21 20z" />
<glyph unicode="O" horiz-adv-x="1695" d="M109 717q0 150 58 287t157 235.5t236 157t288 58.5t288 -58.5t236 -157t157 -235.5t58 -287q0 -201 -98.5 -371t-268.5 -269t-372 -99t-372 99t-268.5 269t-98.5 371zM184 717q0 -136 52 -259.5t140.5 -213t212 -142.5t259.5 -53q182 0 334.5 89.5t240.5 243t88 335.5 q0 136 -52 259.5t-140.5 213t-211.5 142t-259 52.5t-259.5 -52.5t-212 -142t-140.5 -213t-52 -259.5z" />
<glyph unicode="P" horiz-adv-x="1173" d="M191 20v1393q0 21 21 21h54h396q172 0 294.5 -122.5t122.5 -294.5t-122.5 -294t-294.5 -122h-396v-581q0 -20 -20 -20h-34q-21 0 -21 20zM266 670h396q141 0 241.5 102t100.5 245t-100.5 245t-241.5 102h-396v-694z" />
<glyph unicode="Q" horiz-adv-x="1705" d="M109 717q0 150 58.5 287t157.5 235.5t236 157t287 58.5t287 -58.5t236 -157t157.5 -235.5t58.5 -287q0 -158 -63 -299t-175 -244l165 -189q13 -16 -2 -28l-21 -18q-7 -6 -14 -6q-8 0 -15 9l-166 188q-198 -152 -448 -152q-150 0 -287 58.5t-236 157.5t-157.5 236 t-58.5 287zM184 717q0 -182 89 -335.5t241.5 -243t333.5 -89.5q224 0 400 135l-184 210q-13 16 2 28l22 18q16 13 29 -3l184 -209q99 93 154.5 219.5t55.5 269.5q0 136 -52.5 259.5t-141 213t-211.5 142t-258 52.5t-258 -52.5t-212 -142t-141.5 -213t-52.5 -259.5z" />
<glyph unicode="R" horiz-adv-x="1275" d="M191 20v1393q0 21 21 21h54h396q172 0 294.5 -122.5t122.5 -294.5q0 -152 -99 -268t-246 -142l513 -582q6 -7 6 -13q0 -2 -1 -4q-3 -8 -16 -8h-44q-15 0 -25 11l-520 590h-381v-581q0 -20 -20 -20h-34q-21 0 -21 20zM266 670h396q141 0 241.5 102t100.5 245t-100.5 245 t-241.5 102h-396v-694z" />
<glyph unicode="S" horiz-adv-x="1126" d="M96 360q0 18 20 18h35q18 0 20 -21q8 -141 118.5 -224.5t298.5 -83.5q165 0 266.5 83.5t101.5 213.5q0 72 -25.5 125t-90.5 94.5t-106 60t-141 56.5q-8 3 -12 5q-168 63 -212 84q-156 74 -206 184q-29 63 -29 143q0 156 121 256.5t303 100.5q172 0 296 -99t132 -255 q2 -21 -19 -21h-35q-19 0 -21 20q-8 122 -106 203t-247 81q-158 0 -253.5 -82.5t-95.5 -203.5q0 -41 10.5 -76.5t27 -62.5t45 -52t55 -42t68 -36t72.5 -31t79 -30q18 -7 27 -10q169 -66 224 -95q153 -81 195 -201q19 -52 19 -116q0 -165 -127 -266.5t-316 -101.5 q-212 0 -348 101q-144 108 -144 281z" />
<glyph unicode="T" horiz-adv-x="1024" d="M55 1384v29q0 21 20 21h475h399q20 0 20 -21v-29q0 -20 -20 -20h-399v-1344q0 -20 -21 -20h-34q-21 0 -21 20v1344h-399q-20 0 -20 20z" />
<glyph unicode="U" horiz-adv-x="1284" d="M171 401v1012q0 21 20 21h34q21 0 21 -21v-1012q0 -162 106 -257t290 -95t290 95t106 257v1012q0 21 20 21h34q21 0 21 -21v-1012q0 -198 -131.5 -310.5t-339.5 -112.5t-339.5 112.5t-131.5 310.5z" />
<glyph unicode="V" horiz-adv-x="1230" d="M43 1410q-2 5 -2 9q0 5 3 9q5 6 16 6h36q17 0 23 -17l497 -1328l496 1328q6 17 24 17h36q11 0 16 -6q3 -4 3 -9q0 -4 -2 -9l-526 -1394q-6 -16 -24 -16h-47q-17 0 -23 16z" />
<glyph unicode="W" horiz-adv-x="1761" d="M55 1410q-2 5 -2 10q0 14 19 14h32q18 0 23 -18l431 -1337l286 883l-144 448q-7 24 17 24h31q18 0 23 -18l432 -1337l432 1337q5 18 22 18h32q19 0 19 -14q0 -4 -2 -10l-449 -1393q-5 -17 -22 -17h-64q-18 0 -23 17l-267 831l-268 -831q-5 -17 -23 -17h-63q-18 0 -23 17z " />
<glyph unicode="X" horiz-adv-x="1153" d="M67 7q-1 3 -1 6q0 5 4 12l466 709l-443 675q-7 11 -3.5 18t16.5 7h38q16 0 24 -14l409 -623l409 623q8 14 24 14h37q13 0 17 -7t-3 -18l-443 -675l465 -709q5 -7 5 -13q0 -3 -2 -5q-4 -7 -16 -7h-37q-17 0 -25 13l-431 658l-431 -658q-8 -13 -25 -13h-37q-13 0 -17 7z " />
<glyph unicode="Y" horiz-adv-x="1157" d="M48 1427q3 7 16 7h38q15 0 24 -14l453 -679l452 679q9 14 24 14h38q13 0 17 -7q1 -2 1 -5q0 -6 -5 -13l-490 -737v-652q0 -20 -21 -20h-34q-20 0 -20 20v653l-490 736q-5 7 -5 13q0 3 2 5z" />
<glyph unicode="Z" horiz-adv-x="1050" d="M96 20v36q0 12 7 25l771 1283h-737q-21 0 -21 20v29q0 21 21 21h798q21 0 21 -21v-36q0 -11 -7 -24l-770 -1283h777q20 0 20 -21v-29q0 -20 -20 -20h-840q-20 0 -20 20z" />
<glyph unicode="[" d="M143 1v1433h697v-1433h-697zM184 42h615v1351h-615v-1351zM358 1095q0 -56 38.5 -95t95.5 -39t95 39t38 95t-38 95t-95 39t-95.5 -39t-38.5 -95zM363 214q0 -9 9 -9h239q9 0 9 9v101q0 53 -36.5 89t-91.5 36t-92 -36t-37 -89v-101zM363 486q0 -9 9 -9h239q9 0 9 9v136 q0 9 -9 9h-38q-9 0 -9 -9v-87h-46v76q0 9 -10 9h-36q-9 0 -9 -9v-76h-43v85q0 9 -10 9h-38q-9 0 -9 -9v-134zM363 677q0 -9 9 -9h239q9 0 9 9v40q0 9 -9 9h-149l111 47q7 3 7 11v25q0 7 -7 10l-111 47h149q9 0 9 9v41q0 9 -9 9h-239q-9 0 -9 -9v-50q0 -7 7 -10l141 -60 l-141 -59q-7 -3 -7 -11v-49zM415 1095q0 32 21.5 53.5t55.5 21.5t55 -21.5t21 -53.5t-21 -53.5t-55 -21.5t-55.5 21.5t-21.5 53.5zM420 264v51q0 30 19.5 49t52.5 19t52.5 -19t19.5 -49v-51h-144z" />
<glyph unicode="\" d="M143 1v1433h697v-1433h-697zM184 42h615v1351h-615v-1351zM358 1095q0 -56 38.5 -95t95.5 -39t95 39t38 95t-38 95t-95 39t-95.5 -39t-38.5 -95zM363 214q0 -9 9 -9h239q9 0 9 9v101q0 53 -36.5 89t-91.5 36t-92 -36t-37 -89v-101zM363 486q0 -9 9 -9h239q9 0 9 9v136 q0 9 -9 9h-38q-9 0 -9 -9v-87h-46v76q0 9 -10 9h-36q-9 0 -9 -9v-76h-43v85q0 9 -10 9h-38q-9 0 -9 -9v-134zM363 677q0 -9 9 -9h239q9 0 9 9v40q0 9 -9 9h-149l111 47q7 3 7 11v25q0 7 -7 10l-111 47h149q9 0 9 9v41q0 9 -9 9h-239q-9 0 -9 -9v-50q0 -7 7 -10l141 -60 l-141 -59q-7 -3 -7 -11v-49zM415 1095q0 32 21.5 53.5t55.5 21.5t55 -21.5t21 -53.5t-21 -53.5t-55 -21.5t-55.5 21.5t-21.5 53.5zM420 264v51q0 30 19.5 49t52.5 19t52.5 -19t19.5 -49v-51h-144z" />
<glyph unicode="]" d="M143 1v1433h697v-1433h-697zM184 42h615v1351h-615v-1351zM358 1095q0 -56 38.5 -95t95.5 -39t95 39t38 95t-38 95t-95 39t-95.5 -39t-38.5 -95zM363 214q0 -9 9 -9h239q9 0 9 9v101q0 53 -36.5 89t-91.5 36t-92 -36t-37 -89v-101zM363 486q0 -9 9 -9h239q9 0 9 9v136 q0 9 -9 9h-38q-9 0 -9 -9v-87h-46v76q0 9 -10 9h-36q-9 0 -9 -9v-76h-43v85q0 9 -10 9h-38q-9 0 -9 -9v-134zM363 677q0 -9 9 -9h239q9 0 9 9v40q0 9 -9 9h-149l111 47q7 3 7 11v25q0 7 -7 10l-111 47h149q9 0 9 9v41q0 9 -9 9h-239q-9 0 -9 -9v-50q0 -7 7 -10l141 -60 l-141 -59q-7 -3 -7 -11v-49zM415 1095q0 32 21.5 53.5t55.5 21.5t55 -21.5t21 -53.5t-21 -53.5t-55 -21.5t-55.5 21.5t-21.5 53.5zM420 264v51q0 30 19.5 49t52.5 19t52.5 -19t19.5 -49v-51h-144z" />
<glyph unicode="^" d="M143 1v1433h697v-1433h-697zM184 42h615v1351h-615v-1351zM358 1095q0 -56 38.5 -95t95.5 -39t95 39t38 95t-38 95t-95 39t-95.5 -39t-38.5 -95zM363 214q0 -9 9 -9h239q9 0 9 9v101q0 53 -36.5 89t-91.5 36t-92 -36t-37 -89v-101zM363 486q0 -9 9 -9h239q9 0 9 9v136 q0 9 -9 9h-38q-9 0 -9 -9v-87h-46v76q0 9 -10 9h-36q-9 0 -9 -9v-76h-43v85q0 9 -10 9h-38q-9 0 -9 -9v-134zM363 677q0 -9 9 -9h239q9 0 9 9v40q0 9 -9 9h-149l111 47q7 3 7 11v25q0 7 -7 10l-111 47h149q9 0 9 9v41q0 9 -9 9h-239q-9 0 -9 -9v-50q0 -7 7 -10l141 -60 l-141 -59q-7 -3 -7 -11v-49zM415 1095q0 32 21.5 53.5t55.5 21.5t55 -21.5t21 -53.5t-21 -53.5t-55 -21.5t-55.5 21.5t-21.5 53.5zM420 264v51q0 30 19.5 49t52.5 19t52.5 -19t19.5 -49v-51h-144z" />
<glyph unicode="_" d="M143 1v1433h697v-1433h-697zM184 42h615v1351h-615v-1351zM358 1095q0 -56 38.5 -95t95.5 -39t95 39t38 95t-38 95t-95 39t-95.5 -39t-38.5 -95zM363 214q0 -9 9 -9h239q9 0 9 9v101q0 53 -36.5 89t-91.5 36t-92 -36t-37 -89v-101zM363 486q0 -9 9 -9h239q9 0 9 9v136 q0 9 -9 9h-38q-9 0 -9 -9v-87h-46v76q0 9 -10 9h-36q-9 0 -9 -9v-76h-43v85q0 9 -10 9h-38q-9 0 -9 -9v-134zM363 677q0 -9 9 -9h239q9 0 9 9v40q0 9 -9 9h-149l111 47q7 3 7 11v25q0 7 -7 10l-111 47h149q9 0 9 9v41q0 9 -9 9h-239q-9 0 -9 -9v-50q0 -7 7 -10l141 -60 l-141 -59q-7 -3 -7 -11v-49zM415 1095q0 32 21.5 53.5t55.5 21.5t55 -21.5t21 -53.5t-21 -53.5t-55 -21.5t-55.5 21.5t-21.5 53.5zM420 264v51q0 30 19.5 49t52.5 19t52.5 -19t19.5 -49v-51h-144z" />
<glyph unicode="`" d="M143 1v1433h697v-1433h-697zM184 42h615v1351h-615v-1351zM358 1095q0 -56 38.5 -95t95.5 -39t95 39t38 95t-38 95t-95 39t-95.5 -39t-38.5 -95zM363 214q0 -9 9 -9h239q9 0 9 9v101q0 53 -36.5 89t-91.5 36t-92 -36t-37 -89v-101zM363 486q0 -9 9 -9h239q9 0 9 9v136 q0 9 -9 9h-38q-9 0 -9 -9v-87h-46v76q0 9 -10 9h-36q-9 0 -9 -9v-76h-43v85q0 9 -10 9h-38q-9 0 -9 -9v-134zM363 677q0 -9 9 -9h239q9 0 9 9v40q0 9 -9 9h-149l111 47q7 3 7 11v25q0 7 -7 10l-111 47h149q9 0 9 9v41q0 9 -9 9h-239q-9 0 -9 -9v-50q0 -7 7 -10l141 -60 l-141 -59q-7 -3 -7 -11v-49zM415 1095q0 32 21.5 53.5t55.5 21.5t55 -21.5t21 -53.5t-21 -53.5t-55 -21.5t-55.5 21.5t-21.5 53.5zM420 264v51q0 30 19.5 49t52.5 19t52.5 -19t19.5 -49v-51h-144z" />
<glyph unicode="a" horiz-adv-x="1021" d="M102 294q0 149 106.5 232.5t260.5 83.5q114 0 203.5 -39.5t135.5 -114.5v223q0 143 -83 221t-213 78q-123 0 -205 -63.5t-90 -174.5q-3 -20 -21 -20h-31q-23 0 -21 21q9 136 109.5 220.5t258.5 84.5q161 0 265 -97t104 -270v-659q0 -20 -21 -20h-31q-21 0 -21 20v114 q-86 -156 -339 -156q-154 0 -260.5 83.5t-106.5 232.5zM175 294q0 -113 81.5 -181t223.5 -68q144 0 236 62.5t92 186.5q0 85 -47.5 143t-119 82t-161.5 24q-142 0 -223.5 -68t-81.5 -181z" />
<glyph unicode="b" horiz-adv-x="1337" d="M171 20v1393q0 21 20 21h32q20 0 20 -21v-664q62 136 186 216.5t281 80.5q145 0 267 -70t193.5 -193t71.5 -271t-71.5 -271t-193.5 -193t-267 -70q-157 0 -281 80.5t-186 216.5v-255q0 -20 -20 -20h-32q-20 0 -20 20zM243 512q0 -196 134.5 -331t329.5 -135t329 135 t134 331t-134 331t-329 135t-329.5 -135t-134.5 -331z" />
<glyph unicode="c" horiz-adv-x="1183" d="M96 512q0 227 153 380.5t382 153.5q163 0 291 -82t179 -217q2 -5 2 -9q-1 -4 -3 -8q-4 -6 -15 -6h-33q-18 0 -25 15q-47 109 -153.5 174t-242.5 65q-198 0 -330.5 -134.5t-132.5 -331.5t132.5 -331.5t330.5 -134.5q136 0 242.5 65.5t153.5 173.5q7 15 25 15h33 q11 0 15 -6q2 -3 3 -8q0 -4 -2 -9q-51 -135 -179 -217t-291 -82q-229 0 -382 153.5t-153 380.5z" />
<glyph unicode="d" horiz-adv-x="1337" d="M96 512q0 148 71.5 271t193.5 193t267 70q157 0 281 -80.5t186 -216.5v664q0 21 20 21h32q20 0 20 -21v-1392q0 -21 -20 -21h-32q-20 0 -20 21v254q-62 -136 -186 -216.5t-281 -80.5q-145 0 -267 70t-193.5 193t-71.5 271zM168 512q0 -196 134 -331t329 -135t329.5 135 t134.5 331t-134.5 331t-329.5 135t-329 -135t-134 -331z" />
<glyph unicode="e" horiz-adv-x="1179" d="M96 512q0 150 63.5 271.5t181 192t268.5 70.5q113 0 208 -44.5t157 -119.5t96 -171.5t34 -202.5v-15q-2 -20 -21 -20h-50h-864q13 -191 136.5 -309t309.5 -118q129 0 226.5 57t140.5 152q9 15 25 15h36q11 0 16.5 -6t1.5 -15q-49 -124 -169 -197.5t-278 -73.5 q-229 0 -373.5 150.5t-144.5 383.5zM169 541h863q-13 199 -132 318t-291 119q-187 0 -308.5 -122t-131.5 -315z" />
<glyph unicode="f" horiz-adv-x="610" d="M41 976v28q0 20 20 20h161v68q0 180 92 277q85 89 245 89q15 0 30 -1q21 0 21 -22v-27q0 -20 -23 -20q-13 1 -25 1q-131 0 -196 -71q-72 -76 -72 -226v-68h295q21 0 21 -20v-28q0 -20 -21 -20h-295v-936q0 -20 -20 -20h-32q-20 0 -20 20v936h-161q-20 0 -20 20z" />
<glyph unicode="g" horiz-adv-x="1351" d="M109 512q0 148 71.5 271t194 193t267.5 70q157 0 281 -80.5t186 -216.5v255q0 20 20 20h32q20 0 20 -20v-948q0 -225 -138.5 -356t-368.5 -131q-195 0 -334 102t-151 239q-1 21 21 21h31q18 0 21 -19q11 -105 126 -190t286 -85q207 0 321 112.5t114 306.5v219 q-62 -136 -186 -216.5t-281 -80.5q-145 0 -267.5 70t-194 193t-71.5 271zM182 512q0 -196 134 -331t329 -135t329.5 135t134.5 331t-134.5 331t-329.5 135t-329 -135t-134 -331z" />
<glyph unicode="h" horiz-adv-x="1083" d="M171 20v1393q0 21 20 21h32q20 0 20 -21v-593q52 116 148 171t210 55q148 0 244.5 -96t96.5 -267v-663q0 -20 -20 -20h-32q-20 0 -20 20v663q0 138 -76 216.5t-201 78.5q-69 0 -131 -25t-111.5 -73t-78.5 -126t-29 -176v-558q0 -20 -20 -20h-32q-20 0 -20 20z" />
<glyph unicode="i" horiz-adv-x="413" d="M171 20v984q0 20 20 20h32q20 0 20 -20v-984q0 -20 -20 -20h-32q-20 0 -20 20zM171 1249v164q0 21 20 21h32q20 0 20 -21v-164q0 -20 -20 -20h-32q-20 0 -20 20z" />
<glyph unicode="j" horiz-adv-x="442" d="M-41 -385q0 20 22 20q12 -1 23 -1q195 0 195 216v1154q0 20 21 20h31q21 0 21 -20v-1154q0 -141 -76 -216q-67 -68 -188 -68q-14 0 -29 1q-20 0 -20 21v27zM199 1249v164q0 21 21 21h31q21 0 21 -21v-164q0 -20 -21 -20h-31q-21 0 -21 20z" />
<glyph unicode="k" horiz-adv-x="966" d="M171 20v1393q0 21 20 21h32q20 0 20 -21v-861l540 462q10 10 25 10h46q14 0 17 -7.5t-8 -17.5l-545 -467l567 -507q8 -7 8 -13q-1 -2 -1 -4q-4 -8 -17 -8h-47q-15 0 -25 10l-560 502v-492q0 -20 -20 -20h-32q-20 0 -20 20z" />
<glyph unicode="l" horiz-adv-x="413" d="M171 20v1434q0 21 20 21h32q20 0 20 -21v-1434q0 -20 -20 -20h-32q-20 0 -20 20z" />
<glyph unicode="m" horiz-adv-x="1609" d="M171 20v984q0 20 20 20h32q20 0 20 -20v-155q32 69 85 115t106.5 64t111.5 18q106 0 185 -55t109 -162q31 77 85.5 127.5t111 70t118.5 19.5q137 0 225 -86.5t88 -255.5v-684q0 -20 -21 -20h-31q-21 0 -21 20v684q0 136 -67.5 205t-177.5 69q-55 0 -106 -21.5t-94 -64 t-69 -113.5t-26 -161v-598q0 -20 -20 -20h-32q-20 0 -20 20v684q0 136 -67.5 205t-177.5 69q-55 0 -106 -21.5t-94 -64t-69 -113.5t-26 -161v-598q0 -20 -20 -20h-32q-20 0 -20 20z" />
<glyph unicode="n" horiz-adv-x="1083" d="M171 20v984q0 20 20 20h32q20 0 20 -20v-184q52 116 148 171t210 55q148 0 244.5 -96t96.5 -267v-663q0 -20 -20 -20h-32q-20 0 -20 20v663q0 138 -76 216.5t-201 78.5q-69 0 -131 -25t-111.5 -73t-78.5 -126t-29 -176v-558q0 -20 -20 -20h-32q-20 0 -20 20z" />
<glyph unicode="o" horiz-adv-x="1263" d="M96 512q0 148 71 271t194 193t270 70t270 -70t194.5 -193t71.5 -271t-71.5 -271t-194.5 -193t-270 -70t-270 70t-194 193t-71 271zM168 512q0 -196 134 -331t329 -135t329.5 135t134.5 331t-134.5 331t-329.5 135t-329 -135t-134 -331z" />
<glyph unicode="p" horiz-adv-x="1337" d="M171 -389v1393q0 20 20 20h32q20 0 20 -20v-255q62 136 186 216.5t281 80.5q145 0 267 -70t193.5 -193t71.5 -271t-71.5 -271t-193.5 -193t-267 -70q-157 0 -281 80.5t-186 216.5v-664q0 -21 -20 -21h-32q-20 0 -20 21zM243 512q0 -196 134.5 -331t329.5 -135t329 135 t134 331t-134 331t-329 135t-329.5 -135t-134.5 -331z" />
<glyph unicode="q" horiz-adv-x="1337" d="M96 512q0 148 71.5 271t193.5 193t267 70q157 0 281 -80.5t186 -216.5v255q0 20 20 20h32q20 0 20 -20v-1393q0 -21 -20 -21h-32q-20 0 -20 21v664q-62 -136 -186 -216.5t-281 -80.5q-145 0 -267 70t-193.5 193t-71.5 271zM168 512q0 -196 134 -331t329 -135t329.5 135 t134.5 331t-134.5 331t-329.5 135t-329 -135t-134 -331z" />
<glyph unicode="r" horiz-adv-x="657" d="M171 20v984q0 20 20 20h32q20 0 20 -20v-203q46 115 138 173.5t202 62.5h3q8 -1 12 -5q5 -6 5 -15v-27q0 -21 -14 -21q-146 -5 -246 -109t-100 -291v-549q0 -20 -20 -20h-32q-20 0 -20 20z" />
<glyph unicode="s" horiz-adv-x="956" d="M107 252q0 18 20 18h31q19 0 22 -20q7 -96 89 -150t209 -54q134 0 217 54t83 153q0 59 -28 101t-74 64t-104.5 41t-119.5 30.5t-119.5 33.5t-104.5 49.5t-74 78.5t-28 120q0 122 97 198.5t255 76.5q148 0 242.5 -75t102.5 -196q1 -21 -20 -21h-32q-18 0 -21 20 q-7 95 -83 149.5t-189 54.5q-124 0 -201.5 -54.5t-77.5 -152.5q0 -65 36 -109t93.5 -66t126.5 -39t138.5 -36.5t127 -48t93.5 -84t36 -135.5q0 -122 -102 -198.5t-270 -76.5q-162 0 -262 74q-108 82 -109 200z" />
<glyph unicode="t" horiz-adv-x="651" d="M55 976v28q0 20 20 20h215v307q0 21 21 21h31q20 0 20 -21v-307h215q20 0 20 -20v-28q0 -20 -20 -20h-215v-936q0 -20 -20 -20h-31q-21 0 -21 20v936h-215q-20 0 -20 20z" />
<glyph unicode="u" horiz-adv-x="1083" d="M142 341v663q0 20 20 20h32q20 0 20 -20v-663q0 -138 76.5 -216.5t201.5 -78.5q69 0 130.5 25t111 73t78.5 126t29 176v558q0 20 21 20h31q20 0 20 -20v-983q0 -21 -20 -21h-31q-21 0 -21 21v183q-52 -116 -148 -171t-210 -55q-148 0 -244.5 96t-96.5 267z" />
<glyph unicode="v" horiz-adv-x="993" d="M44 1000q-2 5 -2 9q0 5 2 9q4 6 16 6h33q18 0 24 -16l379 -929l380 929q6 16 23 16h34q11 0 15 -6q2 -3 3 -9q0 -4 -2 -9l-404 -984q-6 -16 -24 -16h-31h-19q-17 0 -23 16z" />
<glyph unicode="w" horiz-adv-x="1378" d="M42 1000q-2 5 -2 9q0 5 3 9q5 6 16 6h34q17 0 23 -16l328 -920l210 581l-120 331q-4 11 0.5 17.5t15.5 6.5h35q17 0 23 -16l327 -920l328 920q6 16 23 16h34q12 0 16 -6q2 -3 2 -9q0 -4 -2 -9l-355 -984q-6 -16 -24 -16h-28h-16q-17 0 -23 16l-200 553l-201 -553 q-6 -16 -23 -16h-29h-15q-18 0 -24 16z" />
<glyph unicode="x" horiz-adv-x="923" d="M68 8q-1 2 -1 5q0 6 5 12l349 503l-327 471q-7 10 -3.5 17.5t16.5 7.5h33q16 0 25 -13l296 -426l296 426q9 13 24 13h33q13 0 17 -7.5t-3 -17.5l-328 -471l350 -503q5 -7 5 -12q1 -3 -1 -5q-4 -8 -17 -8h-33q-16 0 -25 13l-318 458l-319 -458q-9 -13 -24 -13h-33 q-13 0 -17 8z" />
<glyph unicode="y" horiz-adv-x="962" d="M44 1000q-2 5 -2 9t2 8q5 7 16 7h33q19 0 24 -15l385 -908l344 907q6 16 23 16h35q11 0 16 -6q2 -4 2 -9q0 -4 -2 -9l-527 -1393q-6 -17 -23 -17h-35q-11 0 -15.5 6.5t-0.5 17.5l147 389z" />
<glyph unicode="z" horiz-adv-x="948" d="M109 20v11q0 12 8 25l623 900h-590q-20 0 -20 20v27q0 21 20 21h669q21 0 21 -21v-10q0 -12 -8 -25l-623 -900h631q20 0 20 -20v-28q0 -20 -20 -20h-710q-21 0 -21 20z" />
<glyph unicode="{" d="M143 1v1433h697v-1433h-697zM184 42h615v1351h-615v-1351zM358 1095q0 -56 38.5 -95t95.5 -39t95 39t38 95t-38 95t-95 39t-95.5 -39t-38.5 -95zM363 214q0 -9 9 -9h239q9 0 9 9v101q0 53 -36.5 89t-91.5 36t-92 -36t-37 -89v-101zM363 486q0 -9 9 -9h239q9 0 9 9v136 q0 9 -9 9h-38q-9 0 -9 -9v-87h-46v76q0 9 -10 9h-36q-9 0 -9 -9v-76h-43v85q0 9 -10 9h-38q-9 0 -9 -9v-134zM363 677q0 -9 9 -9h239q9 0 9 9v40q0 9 -9 9h-149l111 47q7 3 7 11v25q0 7 -7 10l-111 47h149q9 0 9 9v41q0 9 -9 9h-239q-9 0 -9 -9v-50q0 -7 7 -10l141 -60 l-141 -59q-7 -3 -7 -11v-49zM415 1095q0 32 21.5 53.5t55.5 21.5t55 -21.5t21 -53.5t-21 -53.5t-55 -21.5t-55.5 21.5t-21.5 53.5zM420 264v51q0 30 19.5 49t52.5 19t52.5 -19t19.5 -49v-51h-144z" />
<glyph unicode="|" d="M143 1v1433h697v-1433h-697zM184 42h615v1351h-615v-1351zM358 1095q0 -56 38.5 -95t95.5 -39t95 39t38 95t-38 95t-95 39t-95.5 -39t-38.5 -95zM363 214q0 -9 9 -9h239q9 0 9 9v101q0 53 -36.5 89t-91.5 36t-92 -36t-37 -89v-101zM363 486q0 -9 9 -9h239q9 0 9 9v136 q0 9 -9 9h-38q-9 0 -9 -9v-87h-46v76q0 9 -10 9h-36q-9 0 -9 -9v-76h-43v85q0 9 -10 9h-38q-9 0 -9 -9v-134zM363 677q0 -9 9 -9h239q9 0 9 9v40q0 9 -9 9h-149l111 47q7 3 7 11v25q0 7 -7 10l-111 47h149q9 0 9 9v41q0 9 -9 9h-239q-9 0 -9 -9v-50q0 -7 7 -10l141 -60 l-141 -59q-7 -3 -7 -11v-49zM415 1095q0 32 21.5 53.5t55.5 21.5t55 -21.5t21 -53.5t-21 -53.5t-55 -21.5t-55.5 21.5t-21.5 53.5zM420 264v51q0 30 19.5 49t52.5 19t52.5 -19t19.5 -49v-51h-144z" />
<glyph unicode="}" d="M143 1v1433h697v-1433h-697zM184 42h615v1351h-615v-1351zM358 1095q0 -56 38.5 -95t95.5 -39t95 39t38 95t-38 95t-95 39t-95.5 -39t-38.5 -95zM363 214q0 -9 9 -9h239q9 0 9 9v101q0 53 -36.5 89t-91.5 36t-92 -36t-37 -89v-101zM363 486q0 -9 9 -9h239q9 0 9 9v136 q0 9 -9 9h-38q-9 0 -9 -9v-87h-46v76q0 9 -10 9h-36q-9 0 -9 -9v-76h-43v85q0 9 -10 9h-38q-9 0 -9 -9v-134zM363 677q0 -9 9 -9h239q9 0 9 9v40q0 9 -9 9h-149l111 47q7 3 7 11v25q0 7 -7 10l-111 47h149q9 0 9 9v41q0 9 -9 9h-239q-9 0 -9 -9v-50q0 -7 7 -10l141 -60 l-141 -59q-7 -3 -7 -11v-49zM415 1095q0 32 21.5 53.5t55.5 21.5t55 -21.5t21 -53.5t-21 -53.5t-55 -21.5t-55.5 21.5t-21.5 53.5zM420 264v51q0 30 19.5 49t52.5 19t52.5 -19t19.5 -49v-51h-144z" />
<glyph unicode="~" d="M143 1v1433h697v-1433h-697zM184 42h615v1351h-615v-1351zM358 1095q0 -56 38.5 -95t95.5 -39t95 39t38 95t-38 95t-95 39t-95.5 -39t-38.5 -95zM363 214q0 -9 9 -9h239q9 0 9 9v101q0 53 -36.5 89t-91.5 36t-92 -36t-37 -89v-101zM363 486q0 -9 9 -9h239q9 0 9 9v136 q0 9 -9 9h-38q-9 0 -9 -9v-87h-46v76q0 9 -10 9h-36q-9 0 -9 -9v-76h-43v85q0 9 -10 9h-38q-9 0 -9 -9v-134zM363 677q0 -9 9 -9h239q9 0 9 9v40q0 9 -9 9h-149l111 47q7 3 7 11v25q0 7 -7 10l-111 47h149q9 0 9 9v41q0 9 -9 9h-239q-9 0 -9 -9v-50q0 -7 7 -10l141 -60 l-141 -59q-7 -3 -7 -11v-49zM415 1095q0 32 21.5 53.5t55.5 21.5t55 -21.5t21 -53.5t-21 -53.5t-55 -21.5t-55.5 21.5t-21.5 53.5zM420 264v51q0 30 19.5 49t52.5 19t52.5 -19t19.5 -49v-51h-144z" />
<glyph unicode="&#xa1;" d="M143 1v1433h697v-1433h-697zM184 42h615v1351h-615v-1351zM358 1095q0 -56 38.5 -95t95.5 -39t95 39t38 95t-38 95t-95 39t-95.5 -39t-38.5 -95zM363 214q0 -9 9 -9h239q9 0 9 9v101q0 53 -36.5 89t-91.5 36t-92 -36t-37 -89v-101zM363 486q0 -9 9 -9h239q9 0 9 9v136 q0 9 -9 9h-38q-9 0 -9 -9v-87h-46v76q0 9 -10 9h-36q-9 0 -9 -9v-76h-43v85q0 9 -10 9h-38q-9 0 -9 -9v-134zM363 677q0 -9 9 -9h239q9 0 9 9v40q0 9 -9 9h-149l111 47q7 3 7 11v25q0 7 -7 10l-111 47h149q9 0 9 9v41q0 9 -9 9h-239q-9 0 -9 -9v-50q0 -7 7 -10l141 -60 l-141 -59q-7 -3 -7 -11v-49zM415 1095q0 32 21.5 53.5t55.5 21.5t55 -21.5t21 -53.5t-21 -53.5t-55 -21.5t-55.5 21.5t-21.5 53.5zM420 264v51q0 30 19.5 49t52.5 19t52.5 -19t19.5 -49v-51h-144z" />
<glyph unicode="&#xa2;" horiz-adv-x="1183" d="M96 717q0 149 69.5 271.5t192.5 192.5t274 70q58 0 121 -13l60 181q5 15 20 15h25q22 0 15 -20l-64 -191q103 -34 179 -104.5t113 -166.5q4 -10 -0.5 -17t-15.5 -7h-33q-18 0 -25 16q-32 75 -94.5 130.5t-145.5 83.5l-294 -887q66 -20 138 -20q136 0 242.5 65.5 t153.5 173.5q7 15 25 15h33q11 0 15.5 -6.5t0.5 -16.5q-51 -135 -179 -217t-291 -82q-83 0 -160 23l-64 -192q-4 -14 -20 -14h-24q-22 0 -15 20l68 205q-146 61 -233 193t-87 299zM168 717q0 -143 73 -257t197 -169l293 882q-48 9 -100 9q-198 0 -330.5 -134t-132.5 -331z " />
<glyph unicode="&#xa3;" horiz-adv-x="1218" d="M96 20v31q0 20 20 20h194v530h-153q-20 0 -20 21v26q0 20 20 20h153v392q0 181 117 288t289 107q170 0 288 -107.5t118 -287.5v-29q0 -21 -20 -21h-34q-21 0 -21 21v29q0 146 -92 235t-239 89q-148 0 -239.5 -89t-91.5 -235v-392h492q21 0 21 -20v-26q0 -21 -21 -21h-492 v-530h776q20 0 20 -20v-31q0 -20 -20 -20h-1045q-20 0 -20 20z" />
<glyph unicode="&#xa4;" d="M143 1v1433h697v-1433h-697zM184 42h615v1351h-615v-1351zM358 1095q0 -56 38.5 -95t95.5 -39t95 39t38 95t-38 95t-95 39t-95.5 -39t-38.5 -95zM363 214q0 -9 9 -9h239q9 0 9 9v101q0 53 -36.5 89t-91.5 36t-92 -36t-37 -89v-101zM363 486q0 -9 9 -9h239q9 0 9 9v136 q0 9 -9 9h-38q-9 0 -9 -9v-87h-46v76q0 9 -10 9h-36q-9 0 -9 -9v-76h-43v85q0 9 -10 9h-38q-9 0 -9 -9v-134zM363 677q0 -9 9 -9h239q9 0 9 9v40q0 9 -9 9h-149l111 47q7 3 7 11v25q0 7 -7 10l-111 47h149q9 0 9 9v41q0 9 -9 9h-239q-9 0 -9 -9v-50q0 -7 7 -10l141 -60 l-141 -59q-7 -3 -7 -11v-49zM415 1095q0 32 21.5 53.5t55.5 21.5t55 -21.5t21 -53.5t-21 -53.5t-55 -21.5t-55.5 21.5t-21.5 53.5zM420 264v51q0 30 19.5 49t52.5 19t52.5 -19t19.5 -49v-51h-144z" />
<glyph unicode="&#xa5;" horiz-adv-x="1157" d="M47.5 1427q3.5 7 16.5 7h38q15 0 24 -14l453 -679l452 679q9 14 24 14h38q13 0 16.5 -7t-3.5 -18l-474 -712h354q21 0 21 -20v-24q0 -20 -21 -20h-370v-191h370q21 0 21 -21v-23q0 -20 -21 -20h-370v-358q0 -20 -21 -20h-34q-20 0 -20 20v358h-367q-20 0 -20 20v23 q0 21 20 21h367v191h-367q-20 0 -20 20v24q0 20 20 20h351l-474 712q-7 11 -3.5 18z" />
<glyph unicode="&#xa6;" d="M143 1v1433h697v-1433h-697zM184 42h615v1351h-615v-1351zM358 1095q0 -56 38.5 -95t95.5 -39t95 39t38 95t-38 95t-95 39t-95.5 -39t-38.5 -95zM363 214q0 -9 9 -9h239q9 0 9 9v101q0 53 -36.5 89t-91.5 36t-92 -36t-37 -89v-101zM363 486q0 -9 9 -9h239q9 0 9 9v136 q0 9 -9 9h-38q-9 0 -9 -9v-87h-46v76q0 9 -10 9h-36q-9 0 -9 -9v-76h-43v85q0 9 -10 9h-38q-9 0 -9 -9v-134zM363 677q0 -9 9 -9h239q9 0 9 9v40q0 9 -9 9h-149l111 47q7 3 7 11v25q0 7 -7 10l-111 47h149q9 0 9 9v41q0 9 -9 9h-239q-9 0 -9 -9v-50q0 -7 7 -10l141 -60 l-141 -59q-7 -3 -7 -11v-49zM415 1095q0 32 21.5 53.5t55.5 21.5t55 -21.5t21 -53.5t-21 -53.5t-55 -21.5t-55.5 21.5t-21.5 53.5zM420 264v51q0 30 19.5 49t52.5 19t52.5 -19t19.5 -49v-51h-144z" />
<glyph unicode="&#xa7;" d="M143 1v1433h697v-1433h-697zM184 42h615v1351h-615v-1351zM358 1095q0 -56 38.5 -95t95.5 -39t95 39t38 95t-38 95t-95 39t-95.5 -39t-38.5 -95zM363 214q0 -9 9 -9h239q9 0 9 9v101q0 53 -36.5 89t-91.5 36t-92 -36t-37 -89v-101zM363 486q0 -9 9 -9h239q9 0 9 9v136 q0 9 -9 9h-38q-9 0 -9 -9v-87h-46v76q0 9 -10 9h-36q-9 0 -9 -9v-76h-43v85q0 9 -10 9h-38q-9 0 -9 -9v-134zM363 677q0 -9 9 -9h239q9 0 9 9v40q0 9 -9 9h-149l111 47q7 3 7 11v25q0 7 -7 10l-111 47h149q9 0 9 9v41q0 9 -9 9h-239q-9 0 -9 -9v-50q0 -7 7 -10l141 -60 l-141 -59q-7 -3 -7 -11v-49zM415 1095q0 32 21.5 53.5t55.5 21.5t55 -21.5t21 -53.5t-21 -53.5t-55 -21.5t-55.5 21.5t-21.5 53.5zM420 264v51q0 30 19.5 49t52.5 19t52.5 -19t19.5 -49v-51h-144z" />
<glyph unicode="&#xa8;" d="M143 1v1433h697v-1433h-697zM184 42h615v1351h-615v-1351zM358 1095q0 -56 38.5 -95t95.5 -39t95 39t38 95t-38 95t-95 39t-95.5 -39t-38.5 -95zM363 214q0 -9 9 -9h239q9 0 9 9v101q0 53 -36.5 89t-91.5 36t-92 -36t-37 -89v-101zM363 486q0 -9 9 -9h239q9 0 9 9v136 q0 9 -9 9h-38q-9 0 -9 -9v-87h-46v76q0 9 -10 9h-36q-9 0 -9 -9v-76h-43v85q0 9 -10 9h-38q-9 0 -9 -9v-134zM363 677q0 -9 9 -9h239q9 0 9 9v40q0 9 -9 9h-149l111 47q7 3 7 11v25q0 7 -7 10l-111 47h149q9 0 9 9v41q0 9 -9 9h-239q-9 0 -9 -9v-50q0 -7 7 -10l141 -60 l-141 -59q-7 -3 -7 -11v-49zM415 1095q0 32 21.5 53.5t55.5 21.5t55 -21.5t21 -53.5t-21 -53.5t-55 -21.5t-55.5 21.5t-21.5 53.5zM420 264v51q0 30 19.5 49t52.5 19t52.5 -19t19.5 -49v-51h-144z" />
<glyph unicode="&#xa9;" d="M143 1v1433h697v-1433h-697zM184 42h615v1351h-615v-1351zM358 1095q0 -56 38.5 -95t95.5 -39t95 39t38 95t-38 95t-95 39t-95.5 -39t-38.5 -95zM363 214q0 -9 9 -9h239q9 0 9 9v101q0 53 -36.5 89t-91.5 36t-92 -36t-37 -89v-101zM363 486q0 -9 9 -9h239q9 0 9 9v136 q0 9 -9 9h-38q-9 0 -9 -9v-87h-46v76q0 9 -10 9h-36q-9 0 -9 -9v-76h-43v85q0 9 -10 9h-38q-9 0 -9 -9v-134zM363 677q0 -9 9 -9h239q9 0 9 9v40q0 9 -9 9h-149l111 47q7 3 7 11v25q0 7 -7 10l-111 47h149q9 0 9 9v41q0 9 -9 9h-239q-9 0 -9 -9v-50q0 -7 7 -10l141 -60 l-141 -59q-7 -3 -7 -11v-49zM415 1095q0 32 21.5 53.5t55.5 21.5t55 -21.5t21 -53.5t-21 -53.5t-55 -21.5t-55.5 21.5t-21.5 53.5zM420 264v51q0 30 19.5 49t52.5 19t52.5 -19t19.5 -49v-51h-144z" />
<glyph unicode="&#xaa;" d="M143 1v1433h697v-1433h-697zM184 42h615v1351h-615v-1351zM358 1095q0 -56 38.5 -95t95.5 -39t95 39t38 95t-38 95t-95 39t-95.5 -39t-38.5 -95zM363 214q0 -9 9 -9h239q9 0 9 9v101q0 53 -36.5 89t-91.5 36t-92 -36t-37 -89v-101zM363 486q0 -9 9 -9h239q9 0 9 9v136 q0 9 -9 9h-38q-9 0 -9 -9v-87h-46v76q0 9 -10 9h-36q-9 0 -9 -9v-76h-43v85q0 9 -10 9h-38q-9 0 -9 -9v-134zM363 677q0 -9 9 -9h239q9 0 9 9v40q0 9 -9 9h-149l111 47q7 3 7 11v25q0 7 -7 10l-111 47h149q9 0 9 9v41q0 9 -9 9h-239q-9 0 -9 -9v-50q0 -7 7 -10l141 -60 l-141 -59q-7 -3 -7 -11v-49zM415 1095q0 32 21.5 53.5t55.5 21.5t55 -21.5t21 -53.5t-21 -53.5t-55 -21.5t-55.5 21.5t-21.5 53.5zM420 264v51q0 30 19.5 49t52.5 19t52.5 -19t19.5 -49v-51h-144z" />
<glyph unicode="&#xab;" d="M143 1v1433h697v-1433h-697zM184 42h615v1351h-615v-1351zM358 1095q0 -56 38.5 -95t95.5 -39t95 39t38 95t-38 95t-95 39t-95.5 -39t-38.5 -95zM363 214q0 -9 9 -9h239q9 0 9 9v101q0 53 -36.5 89t-91.5 36t-92 -36t-37 -89v-101zM363 486q0 -9 9 -9h239q9 0 9 9v136 q0 9 -9 9h-38q-9 0 -9 -9v-87h-46v76q0 9 -10 9h-36q-9 0 -9 -9v-76h-43v85q0 9 -10 9h-38q-9 0 -9 -9v-134zM363 677q0 -9 9 -9h239q9 0 9 9v40q0 9 -9 9h-149l111 47q7 3 7 11v25q0 7 -7 10l-111 47h149q9 0 9 9v41q0 9 -9 9h-239q-9 0 -9 -9v-50q0 -7 7 -10l141 -60 l-141 -59q-7 -3 -7 -11v-49zM415 1095q0 32 21.5 53.5t55.5 21.5t55 -21.5t21 -53.5t-21 -53.5t-55 -21.5t-55.5 21.5t-21.5 53.5zM420 264v51q0 30 19.5 49t52.5 19t52.5 -19t19.5 -49v-51h-144z" />
<glyph unicode="&#xac;" d="M143 1v1433h697v-1433h-697zM184 42h615v1351h-615v-1351zM358 1095q0 -56 38.5 -95t95.5 -39t95 39t38 95t-38 95t-95 39t-95.5 -39t-38.5 -95zM363 214q0 -9 9 -9h239q9 0 9 9v101q0 53 -36.5 89t-91.5 36t-92 -36t-37 -89v-101zM363 486q0 -9 9 -9h239q9 0 9 9v136 q0 9 -9 9h-38q-9 0 -9 -9v-87h-46v76q0 9 -10 9h-36q-9 0 -9 -9v-76h-43v85q0 9 -10 9h-38q-9 0 -9 -9v-134zM363 677q0 -9 9 -9h239q9 0 9 9v40q0 9 -9 9h-149l111 47q7 3 7 11v25q0 7 -7 10l-111 47h149q9 0 9 9v41q0 9 -9 9h-239q-9 0 -9 -9v-50q0 -7 7 -10l141 -60 l-141 -59q-7 -3 -7 -11v-49zM415 1095q0 32 21.5 53.5t55.5 21.5t55 -21.5t21 -53.5t-21 -53.5t-55 -21.5t-55.5 21.5t-21.5 53.5zM420 264v51q0 30 19.5 49t52.5 19t52.5 -19t19.5 -49v-51h-144z" />
<glyph unicode="&#xad;" d="M143 1v1433h697v-1433h-697zM184 42h615v1351h-615v-1351zM358 1095q0 -56 38.5 -95t95.5 -39t95 39t38 95t-38 95t-95 39t-95.5 -39t-38.5 -95zM363 214q0 -9 9 -9h239q9 0 9 9v101q0 53 -36.5 89t-91.5 36t-92 -36t-37 -89v-101zM363 486q0 -9 9 -9h239q9 0 9 9v136 q0 9 -9 9h-38q-9 0 -9 -9v-87h-46v76q0 9 -10 9h-36q-9 0 -9 -9v-76h-43v85q0 9 -10 9h-38q-9 0 -9 -9v-134zM363 677q0 -9 9 -9h239q9 0 9 9v40q0 9 -9 9h-149l111 47q7 3 7 11v25q0 7 -7 10l-111 47h149q9 0 9 9v41q0 9 -9 9h-239q-9 0 -9 -9v-50q0 -7 7 -10l141 -60 l-141 -59q-7 -3 -7 -11v-49zM415 1095q0 32 21.5 53.5t55.5 21.5t55 -21.5t21 -53.5t-21 -53.5t-55 -21.5t-55.5 21.5t-21.5 53.5zM420 264v51q0 30 19.5 49t52.5 19t52.5 -19t19.5 -49v-51h-144z" />
<glyph unicode="&#xae;" d="M143 1v1433h697v-1433h-697zM184 42h615v1351h-615v-1351zM358 1095q0 -56 38.5 -95t95.5 -39t95 39t38 95t-38 95t-95 39t-95.5 -39t-38.5 -95zM363 214q0 -9 9 -9h239q9 0 9 9v101q0 53 -36.5 89t-91.5 36t-92 -36t-37 -89v-101zM363 486q0 -9 9 -9h239q9 0 9 9v136 q0 9 -9 9h-38q-9 0 -9 -9v-87h-46v76q0 9 -10 9h-36q-9 0 -9 -9v-76h-43v85q0 9 -10 9h-38q-9 0 -9 -9v-134zM363 677q0 -9 9 -9h239q9 0 9 9v40q0 9 -9 9h-149l111 47q7 3 7 11v25q0 7 -7 10l-111 47h149q9 0 9 9v41q0 9 -9 9h-239q-9 0 -9 -9v-50q0 -7 7 -10l141 -60 l-141 -59q-7 -3 -7 -11v-49zM415 1095q0 32 21.5 53.5t55.5 21.5t55 -21.5t21 -53.5t-21 -53.5t-55 -21.5t-55.5 21.5t-21.5 53.5zM420 264v51q0 30 19.5 49t52.5 19t52.5 -19t19.5 -49v-51h-144z" />
<glyph unicode="&#xaf;" d="M143 1v1433h697v-1433h-697zM184 42h615v1351h-615v-1351zM358 1095q0 -56 38.5 -95t95.5 -39t95 39t38 95t-38 95t-95 39t-95.5 -39t-38.5 -95zM363 214q0 -9 9 -9h239q9 0 9 9v101q0 53 -36.5 89t-91.5 36t-92 -36t-37 -89v-101zM363 486q0 -9 9 -9h239q9 0 9 9v136 q0 9 -9 9h-38q-9 0 -9 -9v-87h-46v76q0 9 -10 9h-36q-9 0 -9 -9v-76h-43v85q0 9 -10 9h-38q-9 0 -9 -9v-134zM363 677q0 -9 9 -9h239q9 0 9 9v40q0 9 -9 9h-149l111 47q7 3 7 11v25q0 7 -7 10l-111 47h149q9 0 9 9v41q0 9 -9 9h-239q-9 0 -9 -9v-50q0 -7 7 -10l141 -60 l-141 -59q-7 -3 -7 -11v-49zM415 1095q0 32 21.5 53.5t55.5 21.5t55 -21.5t21 -53.5t-21 -53.5t-55 -21.5t-55.5 21.5t-21.5 53.5zM420 264v51q0 30 19.5 49t52.5 19t52.5 -19t19.5 -49v-51h-144z" />
<glyph unicode="&#xb0;" d="M143 1v1433h697v-1433h-697zM184 42h615v1351h-615v-1351zM358 1095q0 -56 38.5 -95t95.5 -39t95 39t38 95t-38 95t-95 39t-95.5 -39t-38.5 -95zM363 214q0 -9 9 -9h239q9 0 9 9v101q0 53 -36.5 89t-91.5 36t-92 -36t-37 -89v-101zM363 486q0 -9 9 -9h239q9 0 9 9v136 q0 9 -9 9h-38q-9 0 -9 -9v-87h-46v76q0 9 -10 9h-36q-9 0 -9 -9v-76h-43v85q0 9 -10 9h-38q-9 0 -9 -9v-134zM363 677q0 -9 9 -9h239q9 0 9 9v40q0 9 -9 9h-149l111 47q7 3 7 11v25q0 7 -7 10l-111 47h149q9 0 9 9v41q0 9 -9 9h-239q-9 0 -9 -9v-50q0 -7 7 -10l141 -60 l-141 -59q-7 -3 -7 -11v-49zM415 1095q0 32 21.5 53.5t55.5 21.5t55 -21.5t21 -53.5t-21 -53.5t-55 -21.5t-55.5 21.5t-21.5 53.5zM420 264v51q0 30 19.5 49t52.5 19t52.5 -19t19.5 -49v-51h-144z" />
<glyph unicode="&#xb1;" d="M143 1v1433h697v-1433h-697zM184 42h615v1351h-615v-1351zM358 1095q0 -56 38.5 -95t95.5 -39t95 39t38 95t-38 95t-95 39t-95.5 -39t-38.5 -95zM363 214q0 -9 9 -9h239q9 0 9 9v101q0 53 -36.5 89t-91.5 36t-92 -36t-37 -89v-101zM363 486q0 -9 9 -9h239q9 0 9 9v136 q0 9 -9 9h-38q-9 0 -9 -9v-87h-46v76q0 9 -10 9h-36q-9 0 -9 -9v-76h-43v85q0 9 -10 9h-38q-9 0 -9 -9v-134zM363 677q0 -9 9 -9h239q9 0 9 9v40q0 9 -9 9h-149l111 47q7 3 7 11v25q0 7 -7 10l-111 47h149q9 0 9 9v41q0 9 -9 9h-239q-9 0 -9 -9v-50q0 -7 7 -10l141 -60 l-141 -59q-7 -3 -7 -11v-49zM415 1095q0 32 21.5 53.5t55.5 21.5t55 -21.5t21 -53.5t-21 -53.5t-55 -21.5t-55.5 21.5t-21.5 53.5zM420 264v51q0 30 19.5 49t52.5 19t52.5 -19t19.5 -49v-51h-144z" />
<glyph unicode="&#xb4;" d="M143 1v1433h697v-1433h-697zM184 42h615v1351h-615v-1351zM358 1095q0 -56 38.5 -95t95.5 -39t95 39t38 95t-38 95t-95 39t-95.5 -39t-38.5 -95zM363 214q0 -9 9 -9h239q9 0 9 9v101q0 53 -36.5 89t-91.5 36t-92 -36t-37 -89v-101zM363 486q0 -9 9 -9h239q9 0 9 9v136 q0 9 -9 9h-38q-9 0 -9 -9v-87h-46v76q0 9 -10 9h-36q-9 0 -9 -9v-76h-43v85q0 9 -10 9h-38q-9 0 -9 -9v-134zM363 677q0 -9 9 -9h239q9 0 9 9v40q0 9 -9 9h-149l111 47q7 3 7 11v25q0 7 -7 10l-111 47h149q9 0 9 9v41q0 9 -9 9h-239q-9 0 -9 -9v-50q0 -7 7 -10l141 -60 l-141 -59q-7 -3 -7 -11v-49zM415 1095q0 32 21.5 53.5t55.5 21.5t55 -21.5t21 -53.5t-21 -53.5t-55 -21.5t-55.5 21.5t-21.5 53.5zM420 264v51q0 30 19.5 49t52.5 19t52.5 -19t19.5 -49v-51h-144z" />
<glyph unicode="&#xb5;" d="M143 1v1433h697v-1433h-697zM184 42h615v1351h-615v-1351zM358 1095q0 -56 38.5 -95t95.5 -39t95 39t38 95t-38 95t-95 39t-95.5 -39t-38.5 -95zM363 214q0 -9 9 -9h239q9 0 9 9v101q0 53 -36.5 89t-91.5 36t-92 -36t-37 -89v-101zM363 486q0 -9 9 -9h239q9 0 9 9v136 q0 9 -9 9h-38q-9 0 -9 -9v-87h-46v76q0 9 -10 9h-36q-9 0 -9 -9v-76h-43v85q0 9 -10 9h-38q-9 0 -9 -9v-134zM363 677q0 -9 9 -9h239q9 0 9 9v40q0 9 -9 9h-149l111 47q7 3 7 11v25q0 7 -7 10l-111 47h149q9 0 9 9v41q0 9 -9 9h-239q-9 0 -9 -9v-50q0 -7 7 -10l141 -60 l-141 -59q-7 -3 -7 -11v-49zM415 1095q0 32 21.5 53.5t55.5 21.5t55 -21.5t21 -53.5t-21 -53.5t-55 -21.5t-55.5 21.5t-21.5 53.5zM420 264v51q0 30 19.5 49t52.5 19t52.5 -19t19.5 -49v-51h-144z" />
<glyph unicode="&#xb6;" d="M143 1v1433h697v-1433h-697zM184 42h615v1351h-615v-1351zM358 1095q0 -56 38.5 -95t95.5 -39t95 39t38 95t-38 95t-95 39t-95.5 -39t-38.5 -95zM363 214q0 -9 9 -9h239q9 0 9 9v101q0 53 -36.5 89t-91.5 36t-92 -36t-37 -89v-101zM363 486q0 -9 9 -9h239q9 0 9 9v136 q0 9 -9 9h-38q-9 0 -9 -9v-87h-46v76q0 9 -10 9h-36q-9 0 -9 -9v-76h-43v85q0 9 -10 9h-38q-9 0 -9 -9v-134zM363 677q0 -9 9 -9h239q9 0 9 9v40q0 9 -9 9h-149l111 47q7 3 7 11v25q0 7 -7 10l-111 47h149q9 0 9 9v41q0 9 -9 9h-239q-9 0 -9 -9v-50q0 -7 7 -10l141 -60 l-141 -59q-7 -3 -7 -11v-49zM415 1095q0 32 21.5 53.5t55.5 21.5t55 -21.5t21 -53.5t-21 -53.5t-55 -21.5t-55.5 21.5t-21.5 53.5zM420 264v51q0 30 19.5 49t52.5 19t52.5 -19t19.5 -49v-51h-144z" />
<glyph unicode="&#xb7;" d="M143 1v1433h697v-1433h-697zM184 42h615v1351h-615v-1351zM358 1095q0 -56 38.5 -95t95.5 -39t95 39t38 95t-38 95t-95 39t-95.5 -39t-38.5 -95zM363 214q0 -9 9 -9h239q9 0 9 9v101q0 53 -36.5 89t-91.5 36t-92 -36t-37 -89v-101zM363 486q0 -9 9 -9h239q9 0 9 9v136 q0 9 -9 9h-38q-9 0 -9 -9v-87h-46v76q0 9 -10 9h-36q-9 0 -9 -9v-76h-43v85q0 9 -10 9h-38q-9 0 -9 -9v-134zM363 677q0 -9 9 -9h239q9 0 9 9v40q0 9 -9 9h-149l111 47q7 3 7 11v25q0 7 -7 10l-111 47h149q9 0 9 9v41q0 9 -9 9h-239q-9 0 -9 -9v-50q0 -7 7 -10l141 -60 l-141 -59q-7 -3 -7 -11v-49zM415 1095q0 32 21.5 53.5t55.5 21.5t55 -21.5t21 -53.5t-21 -53.5t-55 -21.5t-55.5 21.5t-21.5 53.5zM420 264v51q0 30 19.5 49t52.5 19t52.5 -19t19.5 -49v-51h-144z" />
<glyph unicode="&#xb8;" d="M143 1v1433h697v-1433h-697zM184 42h615v1351h-615v-1351zM358 1095q0 -56 38.5 -95t95.5 -39t95 39t38 95t-38 95t-95 39t-95.5 -39t-38.5 -95zM363 214q0 -9 9 -9h239q9 0 9 9v101q0 53 -36.5 89t-91.5 36t-92 -36t-37 -89v-101zM363 486q0 -9 9 -9h239q9 0 9 9v136 q0 9 -9 9h-38q-9 0 -9 -9v-87h-46v76q0 9 -10 9h-36q-9 0 -9 -9v-76h-43v85q0 9 -10 9h-38q-9 0 -9 -9v-134zM363 677q0 -9 9 -9h239q9 0 9 9v40q0 9 -9 9h-149l111 47q7 3 7 11v25q0 7 -7 10l-111 47h149q9 0 9 9v41q0 9 -9 9h-239q-9 0 -9 -9v-50q0 -7 7 -10l141 -60 l-141 -59q-7 -3 -7 -11v-49zM415 1095q0 32 21.5 53.5t55.5 21.5t55 -21.5t21 -53.5t-21 -53.5t-55 -21.5t-55.5 21.5t-21.5 53.5zM420 264v51q0 30 19.5 49t52.5 19t52.5 -19t19.5 -49v-51h-144z" />
<glyph unicode="&#xba;" d="M143 1v1433h697v-1433h-697zM184 42h615v1351h-615v-1351zM358 1095q0 -56 38.5 -95t95.5 -39t95 39t38 95t-38 95t-95 39t-95.5 -39t-38.5 -95zM363 214q0 -9 9 -9h239q9 0 9 9v101q0 53 -36.5 89t-91.5 36t-92 -36t-37 -89v-101zM363 486q0 -9 9 -9h239q9 0 9 9v136 q0 9 -9 9h-38q-9 0 -9 -9v-87h-46v76q0 9 -10 9h-36q-9 0 -9 -9v-76h-43v85q0 9 -10 9h-38q-9 0 -9 -9v-134zM363 677q0 -9 9 -9h239q9 0 9 9v40q0 9 -9 9h-149l111 47q7 3 7 11v25q0 7 -7 10l-111 47h149q9 0 9 9v41q0 9 -9 9h-239q-9 0 -9 -9v-50q0 -7 7 -10l141 -60 l-141 -59q-7 -3 -7 -11v-49zM415 1095q0 32 21.5 53.5t55.5 21.5t55 -21.5t21 -53.5t-21 -53.5t-55 -21.5t-55.5 21.5t-21.5 53.5zM420 264v51q0 30 19.5 49t52.5 19t52.5 -19t19.5 -49v-51h-144z" />
<glyph unicode="&#xbb;" d="M143 1v1433h697v-1433h-697zM184 42h615v1351h-615v-1351zM358 1095q0 -56 38.5 -95t95.5 -39t95 39t38 95t-38 95t-95 39t-95.5 -39t-38.5 -95zM363 214q0 -9 9 -9h239q9 0 9 9v101q0 53 -36.5 89t-91.5 36t-92 -36t-37 -89v-101zM363 486q0 -9 9 -9h239q9 0 9 9v136 q0 9 -9 9h-38q-9 0 -9 -9v-87h-46v76q0 9 -10 9h-36q-9 0 -9 -9v-76h-43v85q0 9 -10 9h-38q-9 0 -9 -9v-134zM363 677q0 -9 9 -9h239q9 0 9 9v40q0 9 -9 9h-149l111 47q7 3 7 11v25q0 7 -7 10l-111 47h149q9 0 9 9v41q0 9 -9 9h-239q-9 0 -9 -9v-50q0 -7 7 -10l141 -60 l-141 -59q-7 -3 -7 -11v-49zM415 1095q0 32 21.5 53.5t55.5 21.5t55 -21.5t21 -53.5t-21 -53.5t-55 -21.5t-55.5 21.5t-21.5 53.5zM420 264v51q0 30 19.5 49t52.5 19t52.5 -19t19.5 -49v-51h-144z" />
<glyph unicode="&#xbc;" d="M143 1v1433h697v-1433h-697zM184 42h615v1351h-615v-1351zM358 1095q0 -56 38.5 -95t95.5 -39t95 39t38 95t-38 95t-95 39t-95.5 -39t-38.5 -95zM363 214q0 -9 9 -9h239q9 0 9 9v101q0 53 -36.5 89t-91.5 36t-92 -36t-37 -89v-101zM363 486q0 -9 9 -9h239q9 0 9 9v136 q0 9 -9 9h-38q-9 0 -9 -9v-87h-46v76q0 9 -10 9h-36q-9 0 -9 -9v-76h-43v85q0 9 -10 9h-38q-9 0 -9 -9v-134zM363 677q0 -9 9 -9h239q9 0 9 9v40q0 9 -9 9h-149l111 47q7 3 7 11v25q0 7 -7 10l-111 47h149q9 0 9 9v41q0 9 -9 9h-239q-9 0 -9 -9v-50q0 -7 7 -10l141 -60 l-141 -59q-7 -3 -7 -11v-49zM415 1095q0 32 21.5 53.5t55.5 21.5t55 -21.5t21 -53.5t-21 -53.5t-55 -21.5t-55.5 21.5t-21.5 53.5zM420 264v51q0 30 19.5 49t52.5 19t52.5 -19t19.5 -49v-51h-144z" />
<glyph unicode="&#xbd;" d="M143 1v1433h697v-1433h-697zM184 42h615v1351h-615v-1351zM358 1095q0 -56 38.5 -95t95.5 -39t95 39t38 95t-38 95t-95 39t-95.5 -39t-38.5 -95zM363 214q0 -9 9 -9h239q9 0 9 9v101q0 53 -36.5 89t-91.5 36t-92 -36t-37 -89v-101zM363 486q0 -9 9 -9h239q9 0 9 9v136 q0 9 -9 9h-38q-9 0 -9 -9v-87h-46v76q0 9 -10 9h-36q-9 0 -9 -9v-76h-43v85q0 9 -10 9h-38q-9 0 -9 -9v-134zM363 677q0 -9 9 -9h239q9 0 9 9v40q0 9 -9 9h-149l111 47q7 3 7 11v25q0 7 -7 10l-111 47h149q9 0 9 9v41q0 9 -9 9h-239q-9 0 -9 -9v-50q0 -7 7 -10l141 -60 l-141 -59q-7 -3 -7 -11v-49zM415 1095q0 32 21.5 53.5t55.5 21.5t55 -21.5t21 -53.5t-21 -53.5t-55 -21.5t-55.5 21.5t-21.5 53.5zM420 264v51q0 30 19.5 49t52.5 19t52.5 -19t19.5 -49v-51h-144z" />
<glyph unicode="&#xbe;" d="M143 1v1433h697v-1433h-697zM184 42h615v1351h-615v-1351zM358 1095q0 -56 38.5 -95t95.5 -39t95 39t38 95t-38 95t-95 39t-95.5 -39t-38.5 -95zM363 214q0 -9 9 -9h239q9 0 9 9v101q0 53 -36.5 89t-91.5 36t-92 -36t-37 -89v-101zM363 486q0 -9 9 -9h239q9 0 9 9v136 q0 9 -9 9h-38q-9 0 -9 -9v-87h-46v76q0 9 -10 9h-36q-9 0 -9 -9v-76h-43v85q0 9 -10 9h-38q-9 0 -9 -9v-134zM363 677q0 -9 9 -9h239q9 0 9 9v40q0 9 -9 9h-149l111 47q7 3 7 11v25q0 7 -7 10l-111 47h149q9 0 9 9v41q0 9 -9 9h-239q-9 0 -9 -9v-50q0 -7 7 -10l141 -60 l-141 -59q-7 -3 -7 -11v-49zM415 1095q0 32 21.5 53.5t55.5 21.5t55 -21.5t21 -53.5t-21 -53.5t-55 -21.5t-55.5 21.5t-21.5 53.5zM420 264v51q0 30 19.5 49t52.5 19t52.5 -19t19.5 -49v-51h-144z" />
<glyph unicode="&#xbf;" d="M143 1v1433h697v-1433h-697zM184 42h615v1351h-615v-1351zM358 1095q0 -56 38.5 -95t95.5 -39t95 39t38 95t-38 95t-95 39t-95.5 -39t-38.5 -95zM363 214q0 -9 9 -9h239q9 0 9 9v101q0 53 -36.5 89t-91.5 36t-92 -36t-37 -89v-101zM363 486q0 -9 9 -9h239q9 0 9 9v136 q0 9 -9 9h-38q-9 0 -9 -9v-87h-46v76q0 9 -10 9h-36q-9 0 -9 -9v-76h-43v85q0 9 -10 9h-38q-9 0 -9 -9v-134zM363 677q0 -9 9 -9h239q9 0 9 9v40q0 9 -9 9h-149l111 47q7 3 7 11v25q0 7 -7 10l-111 47h149q9 0 9 9v41q0 9 -9 9h-239q-9 0 -9 -9v-50q0 -7 7 -10l141 -60 l-141 -59q-7 -3 -7 -11v-49zM415 1095q0 32 21.5 53.5t55.5 21.5t55 -21.5t21 -53.5t-21 -53.5t-55 -21.5t-55.5 21.5t-21.5 53.5zM420 264v51q0 30 19.5 49t52.5 19t52.5 -19t19.5 -49v-51h-144z" />
<glyph unicode="&#xc0;" d="M143 1v1433h697v-1433h-697zM184 42h615v1351h-615v-1351zM358 1095q0 -56 38.5 -95t95.5 -39t95 39t38 95t-38 95t-95 39t-95.5 -39t-38.5 -95zM363 214q0 -9 9 -9h239q9 0 9 9v101q0 53 -36.5 89t-91.5 36t-92 -36t-37 -89v-101zM363 486q0 -9 9 -9h239q9 0 9 9v136 q0 9 -9 9h-38q-9 0 -9 -9v-87h-46v76q0 9 -10 9h-36q-9 0 -9 -9v-76h-43v85q0 9 -10 9h-38q-9 0 -9 -9v-134zM363 677q0 -9 9 -9h239q9 0 9 9v40q0 9 -9 9h-149l111 47q7 3 7 11v25q0 7 -7 10l-111 47h149q9 0 9 9v41q0 9 -9 9h-239q-9 0 -9 -9v-50q0 -7 7 -10l141 -60 l-141 -59q-7 -3 -7 -11v-49zM415 1095q0 32 21.5 53.5t55.5 21.5t55 -21.5t21 -53.5t-21 -53.5t-55 -21.5t-55.5 21.5t-21.5 53.5zM420 264v51q0 30 19.5 49t52.5 19t52.5 -19t19.5 -49v-51h-144z" />
<glyph unicode="&#xc1;" d="M143 1v1433h697v-1433h-697zM184 42h615v1351h-615v-1351zM358 1095q0 -56 38.5 -95t95.5 -39t95 39t38 95t-38 95t-95 39t-95.5 -39t-38.5 -95zM363 214q0 -9 9 -9h239q9 0 9 9v101q0 53 -36.5 89t-91.5 36t-92 -36t-37 -89v-101zM363 486q0 -9 9 -9h239q9 0 9 9v136 q0 9 -9 9h-38q-9 0 -9 -9v-87h-46v76q0 9 -10 9h-36q-9 0 -9 -9v-76h-43v85q0 9 -10 9h-38q-9 0 -9 -9v-134zM363 677q0 -9 9 -9h239q9 0 9 9v40q0 9 -9 9h-149l111 47q7 3 7 11v25q0 7 -7 10l-111 47h149q9 0 9 9v41q0 9 -9 9h-239q-9 0 -9 -9v-50q0 -7 7 -10l141 -60 l-141 -59q-7 -3 -7 -11v-49zM415 1095q0 32 21.5 53.5t55.5 21.5t55 -21.5t21 -53.5t-21 -53.5t-55 -21.5t-55.5 21.5t-21.5 53.5zM420 264v51q0 30 19.5 49t52.5 19t52.5 -19t19.5 -49v-51h-144z" />
<glyph unicode="&#xc2;" d="M143 1v1433h697v-1433h-697zM184 42h615v1351h-615v-1351zM358 1095q0 -56 38.5 -95t95.5 -39t95 39t38 95t-38 95t-95 39t-95.5 -39t-38.5 -95zM363 214q0 -9 9 -9h239q9 0 9 9v101q0 53 -36.5 89t-91.5 36t-92 -36t-37 -89v-101zM363 486q0 -9 9 -9h239q9 0 9 9v136 q0 9 -9 9h-38q-9 0 -9 -9v-87h-46v76q0 9 -10 9h-36q-9 0 -9 -9v-76h-43v85q0 9 -10 9h-38q-9 0 -9 -9v-134zM363 677q0 -9 9 -9h239q9 0 9 9v40q0 9 -9 9h-149l111 47q7 3 7 11v25q0 7 -7 10l-111 47h149q9 0 9 9v41q0 9 -9 9h-239q-9 0 -9 -9v-50q0 -7 7 -10l141 -60 l-141 -59q-7 -3 -7 -11v-49zM415 1095q0 32 21.5 53.5t55.5 21.5t55 -21.5t21 -53.5t-21 -53.5t-55 -21.5t-55.5 21.5t-21.5 53.5zM420 264v51q0 30 19.5 49t52.5 19t52.5 -19t19.5 -49v-51h-144z" />
<glyph unicode="&#xc3;" d="M143 1v1433h697v-1433h-697zM184 42h615v1351h-615v-1351zM358 1095q0 -56 38.5 -95t95.5 -39t95 39t38 95t-38 95t-95 39t-95.5 -39t-38.5 -95zM363 214q0 -9 9 -9h239q9 0 9 9v101q0 53 -36.5 89t-91.5 36t-92 -36t-37 -89v-101zM363 486q0 -9 9 -9h239q9 0 9 9v136 q0 9 -9 9h-38q-9 0 -9 -9v-87h-46v76q0 9 -10 9h-36q-9 0 -9 -9v-76h-43v85q0 9 -10 9h-38q-9 0 -9 -9v-134zM363 677q0 -9 9 -9h239q9 0 9 9v40q0 9 -9 9h-149l111 47q7 3 7 11v25q0 7 -7 10l-111 47h149q9 0 9 9v41q0 9 -9 9h-239q-9 0 -9 -9v-50q0 -7 7 -10l141 -60 l-141 -59q-7 -3 -7 -11v-49zM415 1095q0 32 21.5 53.5t55.5 21.5t55 -21.5t21 -53.5t-21 -53.5t-55 -21.5t-55.5 21.5t-21.5 53.5zM420 264v51q0 30 19.5 49t52.5 19t52.5 -19t19.5 -49v-51h-144z" />
<glyph unicode="&#xc4;" d="M143 1v1433h697v-1433h-697zM184 42h615v1351h-615v-1351zM358 1095q0 -56 38.5 -95t95.5 -39t95 39t38 95t-38 95t-95 39t-95.5 -39t-38.5 -95zM363 214q0 -9 9 -9h239q9 0 9 9v101q0 53 -36.5 89t-91.5 36t-92 -36t-37 -89v-101zM363 486q0 -9 9 -9h239q9 0 9 9v136 q0 9 -9 9h-38q-9 0 -9 -9v-87h-46v76q0 9 -10 9h-36q-9 0 -9 -9v-76h-43v85q0 9 -10 9h-38q-9 0 -9 -9v-134zM363 677q0 -9 9 -9h239q9 0 9 9v40q0 9 -9 9h-149l111 47q7 3 7 11v25q0 7 -7 10l-111 47h149q9 0 9 9v41q0 9 -9 9h-239q-9 0 -9 -9v-50q0 -7 7 -10l141 -60 l-141 -59q-7 -3 -7 -11v-49zM415 1095q0 32 21.5 53.5t55.5 21.5t55 -21.5t21 -53.5t-21 -53.5t-55 -21.5t-55.5 21.5t-21.5 53.5zM420 264v51q0 30 19.5 49t52.5 19t52.5 -19t19.5 -49v-51h-144z" />
<glyph unicode="&#xc5;" d="M143 1v1433h697v-1433h-697zM184 42h615v1351h-615v-1351zM358 1095q0 -56 38.5 -95t95.5 -39t95 39t38 95t-38 95t-95 39t-95.5 -39t-38.5 -95zM363 214q0 -9 9 -9h239q9 0 9 9v101q0 53 -36.5 89t-91.5 36t-92 -36t-37 -89v-101zM363 486q0 -9 9 -9h239q9 0 9 9v136 q0 9 -9 9h-38q-9 0 -9 -9v-87h-46v76q0 9 -10 9h-36q-9 0 -9 -9v-76h-43v85q0 9 -10 9h-38q-9 0 -9 -9v-134zM363 677q0 -9 9 -9h239q9 0 9 9v40q0 9 -9 9h-149l111 47q7 3 7 11v25q0 7 -7 10l-111 47h149q9 0 9 9v41q0 9 -9 9h-239q-9 0 -9 -9v-50q0 -7 7 -10l141 -60 l-141 -59q-7 -3 -7 -11v-49zM415 1095q0 32 21.5 53.5t55.5 21.5t55 -21.5t21 -53.5t-21 -53.5t-55 -21.5t-55.5 21.5t-21.5 53.5zM420 264v51q0 30 19.5 49t52.5 19t52.5 -19t19.5 -49v-51h-144z" />
<glyph unicode="&#xc6;" d="M143 1v1433h697v-1433h-697zM184 42h615v1351h-615v-1351zM358 1095q0 -56 38.5 -95t95.5 -39t95 39t38 95t-38 95t-95 39t-95.5 -39t-38.5 -95zM363 214q0 -9 9 -9h239q9 0 9 9v101q0 53 -36.5 89t-91.5 36t-92 -36t-37 -89v-101zM363 486q0 -9 9 -9h239q9 0 9 9v136 q0 9 -9 9h-38q-9 0 -9 -9v-87h-46v76q0 9 -10 9h-36q-9 0 -9 -9v-76h-43v85q0 9 -10 9h-38q-9 0 -9 -9v-134zM363 677q0 -9 9 -9h239q9 0 9 9v40q0 9 -9 9h-149l111 47q7 3 7 11v25q0 7 -7 10l-111 47h149q9 0 9 9v41q0 9 -9 9h-239q-9 0 -9 -9v-50q0 -7 7 -10l141 -60 l-141 -59q-7 -3 -7 -11v-49zM415 1095q0 32 21.5 53.5t55.5 21.5t55 -21.5t21 -53.5t-21 -53.5t-55 -21.5t-55.5 21.5t-21.5 53.5zM420 264v51q0 30 19.5 49t52.5 19t52.5 -19t19.5 -49v-51h-144z" />
<glyph unicode="&#xc7;" d="M143 1v1433h697v-1433h-697zM184 42h615v1351h-615v-1351zM358 1095q0 -56 38.5 -95t95.5 -39t95 39t38 95t-38 95t-95 39t-95.5 -39t-38.5 -95zM363 214q0 -9 9 -9h239q9 0 9 9v101q0 53 -36.5 89t-91.5 36t-92 -36t-37 -89v-101zM363 486q0 -9 9 -9h239q9 0 9 9v136 q0 9 -9 9h-38q-9 0 -9 -9v-87h-46v76q0 9 -10 9h-36q-9 0 -9 -9v-76h-43v85q0 9 -10 9h-38q-9 0 -9 -9v-134zM363 677q0 -9 9 -9h239q9 0 9 9v40q0 9 -9 9h-149l111 47q7 3 7 11v25q0 7 -7 10l-111 47h149q9 0 9 9v41q0 9 -9 9h-239q-9 0 -9 -9v-50q0 -7 7 -10l141 -60 l-141 -59q-7 -3 -7 -11v-49zM415 1095q0 32 21.5 53.5t55.5 21.5t55 -21.5t21 -53.5t-21 -53.5t-55 -21.5t-55.5 21.5t-21.5 53.5zM420 264v51q0 30 19.5 49t52.5 19t52.5 -19t19.5 -49v-51h-144z" />
<glyph unicode="&#xc8;" d="M143 1v1433h697v-1433h-697zM184 42h615v1351h-615v-1351zM358 1095q0 -56 38.5 -95t95.5 -39t95 39t38 95t-38 95t-95 39t-95.5 -39t-38.5 -95zM363 214q0 -9 9 -9h239q9 0 9 9v101q0 53 -36.5 89t-91.5 36t-92 -36t-37 -89v-101zM363 486q0 -9 9 -9h239q9 0 9 9v136 q0 9 -9 9h-38q-9 0 -9 -9v-87h-46v76q0 9 -10 9h-36q-9 0 -9 -9v-76h-43v85q0 9 -10 9h-38q-9 0 -9 -9v-134zM363 677q0 -9 9 -9h239q9 0 9 9v40q0 9 -9 9h-149l111 47q7 3 7 11v25q0 7 -7 10l-111 47h149q9 0 9 9v41q0 9 -9 9h-239q-9 0 -9 -9v-50q0 -7 7 -10l141 -60 l-141 -59q-7 -3 -7 -11v-49zM415 1095q0 32 21.5 53.5t55.5 21.5t55 -21.5t21 -53.5t-21 -53.5t-55 -21.5t-55.5 21.5t-21.5 53.5zM420 264v51q0 30 19.5 49t52.5 19t52.5 -19t19.5 -49v-51h-144z" />
<glyph unicode="&#xc9;" d="M143 1v1433h697v-1433h-697zM184 42h615v1351h-615v-1351zM358 1095q0 -56 38.5 -95t95.5 -39t95 39t38 95t-38 95t-95 39t-95.5 -39t-38.5 -95zM363 214q0 -9 9 -9h239q9 0 9 9v101q0 53 -36.5 89t-91.5 36t-92 -36t-37 -89v-101zM363 486q0 -9 9 -9h239q9 0 9 9v136 q0 9 -9 9h-38q-9 0 -9 -9v-87h-46v76q0 9 -10 9h-36q-9 0 -9 -9v-76h-43v85q0 9 -10 9h-38q-9 0 -9 -9v-134zM363 677q0 -9 9 -9h239q9 0 9 9v40q0 9 -9 9h-149l111 47q7 3 7 11v25q0 7 -7 10l-111 47h149q9 0 9 9v41q0 9 -9 9h-239q-9 0 -9 -9v-50q0 -7 7 -10l141 -60 l-141 -59q-7 -3 -7 -11v-49zM415 1095q0 32 21.5 53.5t55.5 21.5t55 -21.5t21 -53.5t-21 -53.5t-55 -21.5t-55.5 21.5t-21.5 53.5zM420 264v51q0 30 19.5 49t52.5 19t52.5 -19t19.5 -49v-51h-144z" />
<glyph unicode="&#xca;" d="M143 1v1433h697v-1433h-697zM184 42h615v1351h-615v-1351zM358 1095q0 -56 38.5 -95t95.5 -39t95 39t38 95t-38 95t-95 39t-95.5 -39t-38.5 -95zM363 214q0 -9 9 -9h239q9 0 9 9v101q0 53 -36.5 89t-91.5 36t-92 -36t-37 -89v-101zM363 486q0 -9 9 -9h239q9 0 9 9v136 q0 9 -9 9h-38q-9 0 -9 -9v-87h-46v76q0 9 -10 9h-36q-9 0 -9 -9v-76h-43v85q0 9 -10 9h-38q-9 0 -9 -9v-134zM363 677q0 -9 9 -9h239q9 0 9 9v40q0 9 -9 9h-149l111 47q7 3 7 11v25q0 7 -7 10l-111 47h149q9 0 9 9v41q0 9 -9 9h-239q-9 0 -9 -9v-50q0 -7 7 -10l141 -60 l-141 -59q-7 -3 -7 -11v-49zM415 1095q0 32 21.5 53.5t55.5 21.5t55 -21.5t21 -53.5t-21 -53.5t-55 -21.5t-55.5 21.5t-21.5 53.5zM420 264v51q0 30 19.5 49t52.5 19t52.5 -19t19.5 -49v-51h-144z" />
<glyph unicode="&#xcb;" d="M143 1v1433h697v-1433h-697zM184 42h615v1351h-615v-1351zM358 1095q0 -56 38.5 -95t95.5 -39t95 39t38 95t-38 95t-95 39t-95.5 -39t-38.5 -95zM363 214q0 -9 9 -9h239q9 0 9 9v101q0 53 -36.5 89t-91.5 36t-92 -36t-37 -89v-101zM363 486q0 -9 9 -9h239q9 0 9 9v136 q0 9 -9 9h-38q-9 0 -9 -9v-87h-46v76q0 9 -10 9h-36q-9 0 -9 -9v-76h-43v85q0 9 -10 9h-38q-9 0 -9 -9v-134zM363 677q0 -9 9 -9h239q9 0 9 9v40q0 9 -9 9h-149l111 47q7 3 7 11v25q0 7 -7 10l-111 47h149q9 0 9 9v41q0 9 -9 9h-239q-9 0 -9 -9v-50q0 -7 7 -10l141 -60 l-141 -59q-7 -3 -7 -11v-49zM415 1095q0 32 21.5 53.5t55.5 21.5t55 -21.5t21 -53.5t-21 -53.5t-55 -21.5t-55.5 21.5t-21.5 53.5zM420 264v51q0 30 19.5 49t52.5 19t52.5 -19t19.5 -49v-51h-144z" />
<glyph unicode="&#xcc;" d="M143 1v1433h697v-1433h-697zM184 42h615v1351h-615v-1351zM358 1095q0 -56 38.5 -95t95.5 -39t95 39t38 95t-38 95t-95 39t-95.5 -39t-38.5 -95zM363 214q0 -9 9 -9h239q9 0 9 9v101q0 53 -36.5 89t-91.5 36t-92 -36t-37 -89v-101zM363 486q0 -9 9 -9h239q9 0 9 9v136 q0 9 -9 9h-38q-9 0 -9 -9v-87h-46v76q0 9 -10 9h-36q-9 0 -9 -9v-76h-43v85q0 9 -10 9h-38q-9 0 -9 -9v-134zM363 677q0 -9 9 -9h239q9 0 9 9v40q0 9 -9 9h-149l111 47q7 3 7 11v25q0 7 -7 10l-111 47h149q9 0 9 9v41q0 9 -9 9h-239q-9 0 -9 -9v-50q0 -7 7 -10l141 -60 l-141 -59q-7 -3 -7 -11v-49zM415 1095q0 32 21.5 53.5t55.5 21.5t55 -21.5t21 -53.5t-21 -53.5t-55 -21.5t-55.5 21.5t-21.5 53.5zM420 264v51q0 30 19.5 49t52.5 19t52.5 -19t19.5 -49v-51h-144z" />
<glyph unicode="&#xcd;" d="M143 1v1433h697v-1433h-697zM184 42h615v1351h-615v-1351zM358 1095q0 -56 38.5 -95t95.5 -39t95 39t38 95t-38 95t-95 39t-95.5 -39t-38.5 -95zM363 214q0 -9 9 -9h239q9 0 9 9v101q0 53 -36.5 89t-91.5 36t-92 -36t-37 -89v-101zM363 486q0 -9 9 -9h239q9 0 9 9v136 q0 9 -9 9h-38q-9 0 -9 -9v-87h-46v76q0 9 -10 9h-36q-9 0 -9 -9v-76h-43v85q0 9 -10 9h-38q-9 0 -9 -9v-134zM363 677q0 -9 9 -9h239q9 0 9 9v40q0 9 -9 9h-149l111 47q7 3 7 11v25q0 7 -7 10l-111 47h149q9 0 9 9v41q0 9 -9 9h-239q-9 0 -9 -9v-50q0 -7 7 -10l141 -60 l-141 -59q-7 -3 -7 -11v-49zM415 1095q0 32 21.5 53.5t55.5 21.5t55 -21.5t21 -53.5t-21 -53.5t-55 -21.5t-55.5 21.5t-21.5 53.5zM420 264v51q0 30 19.5 49t52.5 19t52.5 -19t19.5 -49v-51h-144z" />
<glyph unicode="&#xce;" d="M143 1v1433h697v-1433h-697zM184 42h615v1351h-615v-1351zM358 1095q0 -56 38.5 -95t95.5 -39t95 39t38 95t-38 95t-95 39t-95.5 -39t-38.5 -95zM363 214q0 -9 9 -9h239q9 0 9 9v101q0 53 -36.5 89t-91.5 36t-92 -36t-37 -89v-101zM363 486q0 -9 9 -9h239q9 0 9 9v136 q0 9 -9 9h-38q-9 0 -9 -9v-87h-46v76q0 9 -10 9h-36q-9 0 -9 -9v-76h-43v85q0 9 -10 9h-38q-9 0 -9 -9v-134zM363 677q0 -9 9 -9h239q9 0 9 9v40q0 9 -9 9h-149l111 47q7 3 7 11v25q0 7 -7 10l-111 47h149q9 0 9 9v41q0 9 -9 9h-239q-9 0 -9 -9v-50q0 -7 7 -10l141 -60 l-141 -59q-7 -3 -7 -11v-49zM415 1095q0 32 21.5 53.5t55.5 21.5t55 -21.5t21 -53.5t-21 -53.5t-55 -21.5t-55.5 21.5t-21.5 53.5zM420 264v51q0 30 19.5 49t52.5 19t52.5 -19t19.5 -49v-51h-144z" />
<glyph unicode="&#xcf;" d="M143 1v1433h697v-1433h-697zM184 42h615v1351h-615v-1351zM358 1095q0 -56 38.5 -95t95.5 -39t95 39t38 95t-38 95t-95 39t-95.5 -39t-38.5 -95zM363 214q0 -9 9 -9h239q9 0 9 9v101q0 53 -36.5 89t-91.5 36t-92 -36t-37 -89v-101zM363 486q0 -9 9 -9h239q9 0 9 9v136 q0 9 -9 9h-38q-9 0 -9 -9v-87h-46v76q0 9 -10 9h-36q-9 0 -9 -9v-76h-43v85q0 9 -10 9h-38q-9 0 -9 -9v-134zM363 677q0 -9 9 -9h239q9 0 9 9v40q0 9 -9 9h-149l111 47q7 3 7 11v25q0 7 -7 10l-111 47h149q9 0 9 9v41q0 9 -9 9h-239q-9 0 -9 -9v-50q0 -7 7 -10l141 -60 l-141 -59q-7 -3 -7 -11v-49zM415 1095q0 32 21.5 53.5t55.5 21.5t55 -21.5t21 -53.5t-21 -53.5t-55 -21.5t-55.5 21.5t-21.5 53.5zM420 264v51q0 30 19.5 49t52.5 19t52.5 -19t19.5 -49v-51h-144z" />
<glyph unicode="&#xd0;" d="M143 1v1433h697v-1433h-697zM184 42h615v1351h-615v-1351zM358 1095q0 -56 38.5 -95t95.5 -39t95 39t38 95t-38 95t-95 39t-95.5 -39t-38.5 -95zM363 214q0 -9 9 -9h239q9 0 9 9v101q0 53 -36.5 89t-91.5 36t-92 -36t-37 -89v-101zM363 486q0 -9 9 -9h239q9 0 9 9v136 q0 9 -9 9h-38q-9 0 -9 -9v-87h-46v76q0 9 -10 9h-36q-9 0 -9 -9v-76h-43v85q0 9 -10 9h-38q-9 0 -9 -9v-134zM363 677q0 -9 9 -9h239q9 0 9 9v40q0 9 -9 9h-149l111 47q7 3 7 11v25q0 7 -7 10l-111 47h149q9 0 9 9v41q0 9 -9 9h-239q-9 0 -9 -9v-50q0 -7 7 -10l141 -60 l-141 -59q-7 -3 -7 -11v-49zM415 1095q0 32 21.5 53.5t55.5 21.5t55 -21.5t21 -53.5t-21 -53.5t-55 -21.5t-55.5 21.5t-21.5 53.5zM420 264v51q0 30 19.5 49t52.5 19t52.5 -19t19.5 -49v-51h-144z" />
<glyph unicode="&#xd1;" d="M143 1v1433h697v-1433h-697zM184 42h615v1351h-615v-1351zM358 1095q0 -56 38.5 -95t95.5 -39t95 39t38 95t-38 95t-95 39t-95.5 -39t-38.5 -95zM363 214q0 -9 9 -9h239q9 0 9 9v101q0 53 -36.5 89t-91.5 36t-92 -36t-37 -89v-101zM363 486q0 -9 9 -9h239q9 0 9 9v136 q0 9 -9 9h-38q-9 0 -9 -9v-87h-46v76q0 9 -10 9h-36q-9 0 -9 -9v-76h-43v85q0 9 -10 9h-38q-9 0 -9 -9v-134zM363 677q0 -9 9 -9h239q9 0 9 9v40q0 9 -9 9h-149l111 47q7 3 7 11v25q0 7 -7 10l-111 47h149q9 0 9 9v41q0 9 -9 9h-239q-9 0 -9 -9v-50q0 -7 7 -10l141 -60 l-141 -59q-7 -3 -7 -11v-49zM415 1095q0 32 21.5 53.5t55.5 21.5t55 -21.5t21 -53.5t-21 -53.5t-55 -21.5t-55.5 21.5t-21.5 53.5zM420 264v51q0 30 19.5 49t52.5 19t52.5 -19t19.5 -49v-51h-144z" />
<glyph unicode="&#xd2;" d="M143 1v1433h697v-1433h-697zM184 42h615v1351h-615v-1351zM358 1095q0 -56 38.5 -95t95.5 -39t95 39t38 95t-38 95t-95 39t-95.5 -39t-38.5 -95zM363 214q0 -9 9 -9h239q9 0 9 9v101q0 53 -36.5 89t-91.5 36t-92 -36t-37 -89v-101zM363 486q0 -9 9 -9h239q9 0 9 9v136 q0 9 -9 9h-38q-9 0 -9 -9v-87h-46v76q0 9 -10 9h-36q-9 0 -9 -9v-76h-43v85q0 9 -10 9h-38q-9 0 -9 -9v-134zM363 677q0 -9 9 -9h239q9 0 9 9v40q0 9 -9 9h-149l111 47q7 3 7 11v25q0 7 -7 10l-111 47h149q9 0 9 9v41q0 9 -9 9h-239q-9 0 -9 -9v-50q0 -7 7 -10l141 -60 l-141 -59q-7 -3 -7 -11v-49zM415 1095q0 32 21.5 53.5t55.5 21.5t55 -21.5t21 -53.5t-21 -53.5t-55 -21.5t-55.5 21.5t-21.5 53.5zM420 264v51q0 30 19.5 49t52.5 19t52.5 -19t19.5 -49v-51h-144z" />
<glyph unicode="&#xd3;" d="M143 1v1433h697v-1433h-697zM184 42h615v1351h-615v-1351zM358 1095q0 -56 38.5 -95t95.5 -39t95 39t38 95t-38 95t-95 39t-95.5 -39t-38.5 -95zM363 214q0 -9 9 -9h239q9 0 9 9v101q0 53 -36.5 89t-91.5 36t-92 -36t-37 -89v-101zM363 486q0 -9 9 -9h239q9 0 9 9v136 q0 9 -9 9h-38q-9 0 -9 -9v-87h-46v76q0 9 -10 9h-36q-9 0 -9 -9v-76h-43v85q0 9 -10 9h-38q-9 0 -9 -9v-134zM363 677q0 -9 9 -9h239q9 0 9 9v40q0 9 -9 9h-149l111 47q7 3 7 11v25q0 7 -7 10l-111 47h149q9 0 9 9v41q0 9 -9 9h-239q-9 0 -9 -9v-50q0 -7 7 -10l141 -60 l-141 -59q-7 -3 -7 -11v-49zM415 1095q0 32 21.5 53.5t55.5 21.5t55 -21.5t21 -53.5t-21 -53.5t-55 -21.5t-55.5 21.5t-21.5 53.5zM420 264v51q0 30 19.5 49t52.5 19t52.5 -19t19.5 -49v-51h-144z" />
<glyph unicode="&#xd4;" d="M143 1v1433h697v-1433h-697zM184 42h615v1351h-615v-1351zM358 1095q0 -56 38.5 -95t95.5 -39t95 39t38 95t-38 95t-95 39t-95.5 -39t-38.5 -95zM363 214q0 -9 9 -9h239q9 0 9 9v101q0 53 -36.5 89t-91.5 36t-92 -36t-37 -89v-101zM363 486q0 -9 9 -9h239q9 0 9 9v136 q0 9 -9 9h-38q-9 0 -9 -9v-87h-46v76q0 9 -10 9h-36q-9 0 -9 -9v-76h-43v85q0 9 -10 9h-38q-9 0 -9 -9v-134zM363 677q0 -9 9 -9h239q9 0 9 9v40q0 9 -9 9h-149l111 47q7 3 7 11v25q0 7 -7 10l-111 47h149q9 0 9 9v41q0 9 -9 9h-239q-9 0 -9 -9v-50q0 -7 7 -10l141 -60 l-141 -59q-7 -3 -7 -11v-49zM415 1095q0 32 21.5 53.5t55.5 21.5t55 -21.5t21 -53.5t-21 -53.5t-55 -21.5t-55.5 21.5t-21.5 53.5zM420 264v51q0 30 19.5 49t52.5 19t52.5 -19t19.5 -49v-51h-144z" />
<glyph unicode="&#xd5;" d="M143 1v1433h697v-1433h-697zM184 42h615v1351h-615v-1351zM358 1095q0 -56 38.5 -95t95.5 -39t95 39t38 95t-38 95t-95 39t-95.5 -39t-38.5 -95zM363 214q0 -9 9 -9h239q9 0 9 9v101q0 53 -36.5 89t-91.5 36t-92 -36t-37 -89v-101zM363 486q0 -9 9 -9h239q9 0 9 9v136 q0 9 -9 9h-38q-9 0 -9 -9v-87h-46v76q0 9 -10 9h-36q-9 0 -9 -9v-76h-43v85q0 9 -10 9h-38q-9 0 -9 -9v-134zM363 677q0 -9 9 -9h239q9 0 9 9v40q0 9 -9 9h-149l111 47q7 3 7 11v25q0 7 -7 10l-111 47h149q9 0 9 9v41q0 9 -9 9h-239q-9 0 -9 -9v-50q0 -7 7 -10l141 -60 l-141 -59q-7 -3 -7 -11v-49zM415 1095q0 32 21.5 53.5t55.5 21.5t55 -21.5t21 -53.5t-21 -53.5t-55 -21.5t-55.5 21.5t-21.5 53.5zM420 264v51q0 30 19.5 49t52.5 19t52.5 -19t19.5 -49v-51h-144z" />
<glyph unicode="&#xd6;" d="M143 1v1433h697v-1433h-697zM184 42h615v1351h-615v-1351zM358 1095q0 -56 38.5 -95t95.5 -39t95 39t38 95t-38 95t-95 39t-95.5 -39t-38.5 -95zM363 214q0 -9 9 -9h239q9 0 9 9v101q0 53 -36.5 89t-91.5 36t-92 -36t-37 -89v-101zM363 486q0 -9 9 -9h239q9 0 9 9v136 q0 9 -9 9h-38q-9 0 -9 -9v-87h-46v76q0 9 -10 9h-36q-9 0 -9 -9v-76h-43v85q0 9 -10 9h-38q-9 0 -9 -9v-134zM363 677q0 -9 9 -9h239q9 0 9 9v40q0 9 -9 9h-149l111 47q7 3 7 11v25q0 7 -7 10l-111 47h149q9 0 9 9v41q0 9 -9 9h-239q-9 0 -9 -9v-50q0 -7 7 -10l141 -60 l-141 -59q-7 -3 -7 -11v-49zM415 1095q0 32 21.5 53.5t55.5 21.5t55 -21.5t21 -53.5t-21 -53.5t-55 -21.5t-55.5 21.5t-21.5 53.5zM420 264v51q0 30 19.5 49t52.5 19t52.5 -19t19.5 -49v-51h-144z" />
<glyph unicode="&#xd7;" d="M143 1v1433h697v-1433h-697zM184 42h615v1351h-615v-1351zM358 1095q0 -56 38.5 -95t95.5 -39t95 39t38 95t-38 95t-95 39t-95.5 -39t-38.5 -95zM363 214q0 -9 9 -9h239q9 0 9 9v101q0 53 -36.5 89t-91.5 36t-92 -36t-37 -89v-101zM363 486q0 -9 9 -9h239q9 0 9 9v136 q0 9 -9 9h-38q-9 0 -9 -9v-87h-46v76q0 9 -10 9h-36q-9 0 -9 -9v-76h-43v85q0 9 -10 9h-38q-9 0 -9 -9v-134zM363 677q0 -9 9 -9h239q9 0 9 9v40q0 9 -9 9h-149l111 47q7 3 7 11v25q0 7 -7 10l-111 47h149q9 0 9 9v41q0 9 -9 9h-239q-9 0 -9 -9v-50q0 -7 7 -10l141 -60 l-141 -59q-7 -3 -7 -11v-49zM415 1095q0 32 21.5 53.5t55.5 21.5t55 -21.5t21 -53.5t-21 -53.5t-55 -21.5t-55.5 21.5t-21.5 53.5zM420 264v51q0 30 19.5 49t52.5 19t52.5 -19t19.5 -49v-51h-144z" />
<glyph unicode="&#xd8;" d="M143 1v1433h697v-1433h-697zM184 42h615v1351h-615v-1351zM358 1095q0 -56 38.5 -95t95.5 -39t95 39t38 95t-38 95t-95 39t-95.5 -39t-38.5 -95zM363 214q0 -9 9 -9h239q9 0 9 9v101q0 53 -36.5 89t-91.5 36t-92 -36t-37 -89v-101zM363 486q0 -9 9 -9h239q9 0 9 9v136 q0 9 -9 9h-38q-9 0 -9 -9v-87h-46v76q0 9 -10 9h-36q-9 0 -9 -9v-76h-43v85q0 9 -10 9h-38q-9 0 -9 -9v-134zM363 677q0 -9 9 -9h239q9 0 9 9v40q0 9 -9 9h-149l111 47q7 3 7 11v25q0 7 -7 10l-111 47h149q9 0 9 9v41q0 9 -9 9h-239q-9 0 -9 -9v-50q0 -7 7 -10l141 -60 l-141 -59q-7 -3 -7 -11v-49zM415 1095q0 32 21.5 53.5t55.5 21.5t55 -21.5t21 -53.5t-21 -53.5t-55 -21.5t-55.5 21.5t-21.5 53.5zM420 264v51q0 30 19.5 49t52.5 19t52.5 -19t19.5 -49v-51h-144z" />
<glyph unicode="&#xd9;" d="M143 1v1433h697v-1433h-697zM184 42h615v1351h-615v-1351zM358 1095q0 -56 38.5 -95t95.5 -39t95 39t38 95t-38 95t-95 39t-95.5 -39t-38.5 -95zM363 214q0 -9 9 -9h239q9 0 9 9v101q0 53 -36.5 89t-91.5 36t-92 -36t-37 -89v-101zM363 486q0 -9 9 -9h239q9 0 9 9v136 q0 9 -9 9h-38q-9 0 -9 -9v-87h-46v76q0 9 -10 9h-36q-9 0 -9 -9v-76h-43v85q0 9 -10 9h-38q-9 0 -9 -9v-134zM363 677q0 -9 9 -9h239q9 0 9 9v40q0 9 -9 9h-149l111 47q7 3 7 11v25q0 7 -7 10l-111 47h149q9 0 9 9v41q0 9 -9 9h-239q-9 0 -9 -9v-50q0 -7 7 -10l141 -60 l-141 -59q-7 -3 -7 -11v-49zM415 1095q0 32 21.5 53.5t55.5 21.5t55 -21.5t21 -53.5t-21 -53.5t-55 -21.5t-55.5 21.5t-21.5 53.5zM420 264v51q0 30 19.5 49t52.5 19t52.5 -19t19.5 -49v-51h-144z" />
<glyph unicode="&#xda;" d="M143 1v1433h697v-1433h-697zM184 42h615v1351h-615v-1351zM358 1095q0 -56 38.5 -95t95.5 -39t95 39t38 95t-38 95t-95 39t-95.5 -39t-38.5 -95zM363 214q0 -9 9 -9h239q9 0 9 9v101q0 53 -36.5 89t-91.5 36t-92 -36t-37 -89v-101zM363 486q0 -9 9 -9h239q9 0 9 9v136 q0 9 -9 9h-38q-9 0 -9 -9v-87h-46v76q0 9 -10 9h-36q-9 0 -9 -9v-76h-43v85q0 9 -10 9h-38q-9 0 -9 -9v-134zM363 677q0 -9 9 -9h239q9 0 9 9v40q0 9 -9 9h-149l111 47q7 3 7 11v25q0 7 -7 10l-111 47h149q9 0 9 9v41q0 9 -9 9h-239q-9 0 -9 -9v-50q0 -7 7 -10l141 -60 l-141 -59q-7 -3 -7 -11v-49zM415 1095q0 32 21.5 53.5t55.5 21.5t55 -21.5t21 -53.5t-21 -53.5t-55 -21.5t-55.5 21.5t-21.5 53.5zM420 264v51q0 30 19.5 49t52.5 19t52.5 -19t19.5 -49v-51h-144z" />
<glyph unicode="&#xdb;" d="M143 1v1433h697v-1433h-697zM184 42h615v1351h-615v-1351zM358 1095q0 -56 38.5 -95t95.5 -39t95 39t38 95t-38 95t-95 39t-95.5 -39t-38.5 -95zM363 214q0 -9 9 -9h239q9 0 9 9v101q0 53 -36.5 89t-91.5 36t-92 -36t-37 -89v-101zM363 486q0 -9 9 -9h239q9 0 9 9v136 q0 9 -9 9h-38q-9 0 -9 -9v-87h-46v76q0 9 -10 9h-36q-9 0 -9 -9v-76h-43v85q0 9 -10 9h-38q-9 0 -9 -9v-134zM363 677q0 -9 9 -9h239q9 0 9 9v40q0 9 -9 9h-149l111 47q7 3 7 11v25q0 7 -7 10l-111 47h149q9 0 9 9v41q0 9 -9 9h-239q-9 0 -9 -9v-50q0 -7 7 -10l141 -60 l-141 -59q-7 -3 -7 -11v-49zM415 1095q0 32 21.5 53.5t55.5 21.5t55 -21.5t21 -53.5t-21 -53.5t-55 -21.5t-55.5 21.5t-21.5 53.5zM420 264v51q0 30 19.5 49t52.5 19t52.5 -19t19.5 -49v-51h-144z" />
<glyph unicode="&#xdc;" d="M143 1v1433h697v-1433h-697zM184 42h615v1351h-615v-1351zM358 1095q0 -56 38.5 -95t95.5 -39t95 39t38 95t-38 95t-95 39t-95.5 -39t-38.5 -95zM363 214q0 -9 9 -9h239q9 0 9 9v101q0 53 -36.5 89t-91.5 36t-92 -36t-37 -89v-101zM363 486q0 -9 9 -9h239q9 0 9 9v136 q0 9 -9 9h-38q-9 0 -9 -9v-87h-46v76q0 9 -10 9h-36q-9 0 -9 -9v-76h-43v85q0 9 -10 9h-38q-9 0 -9 -9v-134zM363 677q0 -9 9 -9h239q9 0 9 9v40q0 9 -9 9h-149l111 47q7 3 7 11v25q0 7 -7 10l-111 47h149q9 0 9 9v41q0 9 -9 9h-239q-9 0 -9 -9v-50q0 -7 7 -10l141 -60 l-141 -59q-7 -3 -7 -11v-49zM415 1095q0 32 21.5 53.5t55.5 21.5t55 -21.5t21 -53.5t-21 -53.5t-55 -21.5t-55.5 21.5t-21.5 53.5zM420 264v51q0 30 19.5 49t52.5 19t52.5 -19t19.5 -49v-51h-144z" />
<glyph unicode="&#xdd;" d="M143 1v1433h697v-1433h-697zM184 42h615v1351h-615v-1351zM358 1095q0 -56 38.5 -95t95.5 -39t95 39t38 95t-38 95t-95 39t-95.5 -39t-38.5 -95zM363 214q0 -9 9 -9h239q9 0 9 9v101q0 53 -36.5 89t-91.5 36t-92 -36t-37 -89v-101zM363 486q0 -9 9 -9h239q9 0 9 9v136 q0 9 -9 9h-38q-9 0 -9 -9v-87h-46v76q0 9 -10 9h-36q-9 0 -9 -9v-76h-43v85q0 9 -10 9h-38q-9 0 -9 -9v-134zM363 677q0 -9 9 -9h239q9 0 9 9v40q0 9 -9 9h-149l111 47q7 3 7 11v25q0 7 -7 10l-111 47h149q9 0 9 9v41q0 9 -9 9h-239q-9 0 -9 -9v-50q0 -7 7 -10l141 -60 l-141 -59q-7 -3 -7 -11v-49zM415 1095q0 32 21.5 53.5t55.5 21.5t55 -21.5t21 -53.5t-21 -53.5t-55 -21.5t-55.5 21.5t-21.5 53.5zM420 264v51q0 30 19.5 49t52.5 19t52.5 -19t19.5 -49v-51h-144z" />
<glyph unicode="&#xde;" d="M143 1v1433h697v-1433h-697zM184 42h615v1351h-615v-1351zM358 1095q0 -56 38.5 -95t95.5 -39t95 39t38 95t-38 95t-95 39t-95.5 -39t-38.5 -95zM363 214q0 -9 9 -9h239q9 0 9 9v101q0 53 -36.5 89t-91.5 36t-92 -36t-37 -89v-101zM363 486q0 -9 9 -9h239q9 0 9 9v136 q0 9 -9 9h-38q-9 0 -9 -9v-87h-46v76q0 9 -10 9h-36q-9 0 -9 -9v-76h-43v85q0 9 -10 9h-38q-9 0 -9 -9v-134zM363 677q0 -9 9 -9h239q9 0 9 9v40q0 9 -9 9h-149l111 47q7 3 7 11v25q0 7 -7 10l-111 47h149q9 0 9 9v41q0 9 -9 9h-239q-9 0 -9 -9v-50q0 -7 7 -10l141 -60 l-141 -59q-7 -3 -7 -11v-49zM415 1095q0 32 21.5 53.5t55.5 21.5t55 -21.5t21 -53.5t-21 -53.5t-55 -21.5t-55.5 21.5t-21.5 53.5zM420 264v51q0 30 19.5 49t52.5 19t52.5 -19t19.5 -49v-51h-144z" />
<glyph unicode="&#xdf;" d="M143 1v1433h697v-1433h-697zM184 42h615v1351h-615v-1351zM358 1095q0 -56 38.5 -95t95.5 -39t95 39t38 95t-38 95t-95 39t-95.5 -39t-38.5 -95zM363 214q0 -9 9 -9h239q9 0 9 9v101q0 53 -36.5 89t-91.5 36t-92 -36t-37 -89v-101zM363 486q0 -9 9 -9h239q9 0 9 9v136 q0 9 -9 9h-38q-9 0 -9 -9v-87h-46v76q0 9 -10 9h-36q-9 0 -9 -9v-76h-43v85q0 9 -10 9h-38q-9 0 -9 -9v-134zM363 677q0 -9 9 -9h239q9 0 9 9v40q0 9 -9 9h-149l111 47q7 3 7 11v25q0 7 -7 10l-111 47h149q9 0 9 9v41q0 9 -9 9h-239q-9 0 -9 -9v-50q0 -7 7 -10l141 -60 l-141 -59q-7 -3 -7 -11v-49zM415 1095q0 32 21.5 53.5t55.5 21.5t55 -21.5t21 -53.5t-21 -53.5t-55 -21.5t-55.5 21.5t-21.5 53.5zM420 264v51q0 30 19.5 49t52.5 19t52.5 -19t19.5 -49v-51h-144z" />
<glyph unicode="&#xe0;" d="M143 1v1433h697v-1433h-697zM184 42h615v1351h-615v-1351zM358 1095q0 -56 38.5 -95t95.5 -39t95 39t38 95t-38 95t-95 39t-95.5 -39t-38.5 -95zM363 214q0 -9 9 -9h239q9 0 9 9v101q0 53 -36.5 89t-91.5 36t-92 -36t-37 -89v-101zM363 486q0 -9 9 -9h239q9 0 9 9v136 q0 9 -9 9h-38q-9 0 -9 -9v-87h-46v76q0 9 -10 9h-36q-9 0 -9 -9v-76h-43v85q0 9 -10 9h-38q-9 0 -9 -9v-134zM363 677q0 -9 9 -9h239q9 0 9 9v40q0 9 -9 9h-149l111 47q7 3 7 11v25q0 7 -7 10l-111 47h149q9 0 9 9v41q0 9 -9 9h-239q-9 0 -9 -9v-50q0 -7 7 -10l141 -60 l-141 -59q-7 -3 -7 -11v-49zM415 1095q0 32 21.5 53.5t55.5 21.5t55 -21.5t21 -53.5t-21 -53.5t-55 -21.5t-55.5 21.5t-21.5 53.5zM420 264v51q0 30 19.5 49t52.5 19t52.5 -19t19.5 -49v-51h-144z" />
<glyph unicode="&#xe1;" d="M143 1v1433h697v-1433h-697zM184 42h615v1351h-615v-1351zM358 1095q0 -56 38.5 -95t95.5 -39t95 39t38 95t-38 95t-95 39t-95.5 -39t-38.5 -95zM363 214q0 -9 9 -9h239q9 0 9 9v101q0 53 -36.5 89t-91.5 36t-92 -36t-37 -89v-101zM363 486q0 -9 9 -9h239q9 0 9 9v136 q0 9 -9 9h-38q-9 0 -9 -9v-87h-46v76q0 9 -10 9h-36q-9 0 -9 -9v-76h-43v85q0 9 -10 9h-38q-9 0 -9 -9v-134zM363 677q0 -9 9 -9h239q9 0 9 9v40q0 9 -9 9h-149l111 47q7 3 7 11v25q0 7 -7 10l-111 47h149q9 0 9 9v41q0 9 -9 9h-239q-9 0 -9 -9v-50q0 -7 7 -10l141 -60 l-141 -59q-7 -3 -7 -11v-49zM415 1095q0 32 21.5 53.5t55.5 21.5t55 -21.5t21 -53.5t-21 -53.5t-55 -21.5t-55.5 21.5t-21.5 53.5zM420 264v51q0 30 19.5 49t52.5 19t52.5 -19t19.5 -49v-51h-144z" />
<glyph unicode="&#xe2;" d="M143 1v1433h697v-1433h-697zM184 42h615v1351h-615v-1351zM358 1095q0 -56 38.5 -95t95.5 -39t95 39t38 95t-38 95t-95 39t-95.5 -39t-38.5 -95zM363 214q0 -9 9 -9h239q9 0 9 9v101q0 53 -36.5 89t-91.5 36t-92 -36t-37 -89v-101zM363 486q0 -9 9 -9h239q9 0 9 9v136 q0 9 -9 9h-38q-9 0 -9 -9v-87h-46v76q0 9 -10 9h-36q-9 0 -9 -9v-76h-43v85q0 9 -10 9h-38q-9 0 -9 -9v-134zM363 677q0 -9 9 -9h239q9 0 9 9v40q0 9 -9 9h-149l111 47q7 3 7 11v25q0 7 -7 10l-111 47h149q9 0 9 9v41q0 9 -9 9h-239q-9 0 -9 -9v-50q0 -7 7 -10l141 -60 l-141 -59q-7 -3 -7 -11v-49zM415 1095q0 32 21.5 53.5t55.5 21.5t55 -21.5t21 -53.5t-21 -53.5t-55 -21.5t-55.5 21.5t-21.5 53.5zM420 264v51q0 30 19.5 49t52.5 19t52.5 -19t19.5 -49v-51h-144z" />
<glyph unicode="&#xe3;" d="M143 1v1433h697v-1433h-697zM184 42h615v1351h-615v-1351zM358 1095q0 -56 38.5 -95t95.5 -39t95 39t38 95t-38 95t-95 39t-95.5 -39t-38.5 -95zM363 214q0 -9 9 -9h239q9 0 9 9v101q0 53 -36.5 89t-91.5 36t-92 -36t-37 -89v-101zM363 486q0 -9 9 -9h239q9 0 9 9v136 q0 9 -9 9h-38q-9 0 -9 -9v-87h-46v76q0 9 -10 9h-36q-9 0 -9 -9v-76h-43v85q0 9 -10 9h-38q-9 0 -9 -9v-134zM363 677q0 -9 9 -9h239q9 0 9 9v40q0 9 -9 9h-149l111 47q7 3 7 11v25q0 7 -7 10l-111 47h149q9 0 9 9v41q0 9 -9 9h-239q-9 0 -9 -9v-50q0 -7 7 -10l141 -60 l-141 -59q-7 -3 -7 -11v-49zM415 1095q0 32 21.5 53.5t55.5 21.5t55 -21.5t21 -53.5t-21 -53.5t-55 -21.5t-55.5 21.5t-21.5 53.5zM420 264v51q0 30 19.5 49t52.5 19t52.5 -19t19.5 -49v-51h-144z" />
<glyph unicode="&#xe4;" d="M143 1v1433h697v-1433h-697zM184 42h615v1351h-615v-1351zM358 1095q0 -56 38.5 -95t95.5 -39t95 39t38 95t-38 95t-95 39t-95.5 -39t-38.5 -95zM363 214q0 -9 9 -9h239q9 0 9 9v101q0 53 -36.5 89t-91.5 36t-92 -36t-37 -89v-101zM363 486q0 -9 9 -9h239q9 0 9 9v136 q0 9 -9 9h-38q-9 0 -9 -9v-87h-46v76q0 9 -10 9h-36q-9 0 -9 -9v-76h-43v85q0 9 -10 9h-38q-9 0 -9 -9v-134zM363 677q0 -9 9 -9h239q9 0 9 9v40q0 9 -9 9h-149l111 47q7 3 7 11v25q0 7 -7 10l-111 47h149q9 0 9 9v41q0 9 -9 9h-239q-9 0 -9 -9v-50q0 -7 7 -10l141 -60 l-141 -59q-7 -3 -7 -11v-49zM415 1095q0 32 21.5 53.5t55.5 21.5t55 -21.5t21 -53.5t-21 -53.5t-55 -21.5t-55.5 21.5t-21.5 53.5zM420 264v51q0 30 19.5 49t52.5 19t52.5 -19t19.5 -49v-51h-144z" />
<glyph unicode="&#xe5;" d="M143 1v1433h697v-1433h-697zM184 42h615v1351h-615v-1351zM358 1095q0 -56 38.5 -95t95.5 -39t95 39t38 95t-38 95t-95 39t-95.5 -39t-38.5 -95zM363 214q0 -9 9 -9h239q9 0 9 9v101q0 53 -36.5 89t-91.5 36t-92 -36t-37 -89v-101zM363 486q0 -9 9 -9h239q9 0 9 9v136 q0 9 -9 9h-38q-9 0 -9 -9v-87h-46v76q0 9 -10 9h-36q-9 0 -9 -9v-76h-43v85q0 9 -10 9h-38q-9 0 -9 -9v-134zM363 677q0 -9 9 -9h239q9 0 9 9v40q0 9 -9 9h-149l111 47q7 3 7 11v25q0 7 -7 10l-111 47h149q9 0 9 9v41q0 9 -9 9h-239q-9 0 -9 -9v-50q0 -7 7 -10l141 -60 l-141 -59q-7 -3 -7 -11v-49zM415 1095q0 32 21.5 53.5t55.5 21.5t55 -21.5t21 -53.5t-21 -53.5t-55 -21.5t-55.5 21.5t-21.5 53.5zM420 264v51q0 30 19.5 49t52.5 19t52.5 -19t19.5 -49v-51h-144z" />
<glyph unicode="&#xe6;" d="M143 1v1433h697v-1433h-697zM184 42h615v1351h-615v-1351zM358 1095q0 -56 38.5 -95t95.5 -39t95 39t38 95t-38 95t-95 39t-95.5 -39t-38.5 -95zM363 214q0 -9 9 -9h239q9 0 9 9v101q0 53 -36.5 89t-91.5 36t-92 -36t-37 -89v-101zM363 486q0 -9 9 -9h239q9 0 9 9v136 q0 9 -9 9h-38q-9 0 -9 -9v-87h-46v76q0 9 -10 9h-36q-9 0 -9 -9v-76h-43v85q0 9 -10 9h-38q-9 0 -9 -9v-134zM363 677q0 -9 9 -9h239q9 0 9 9v40q0 9 -9 9h-149l111 47q7 3 7 11v25q0 7 -7 10l-111 47h149q9 0 9 9v41q0 9 -9 9h-239q-9 0 -9 -9v-50q0 -7 7 -10l141 -60 l-141 -59q-7 -3 -7 -11v-49zM415 1095q0 32 21.5 53.5t55.5 21.5t55 -21.5t21 -53.5t-21 -53.5t-55 -21.5t-55.5 21.5t-21.5 53.5zM420 264v51q0 30 19.5 49t52.5 19t52.5 -19t19.5 -49v-51h-144z" />
<glyph unicode="&#xe7;" d="M143 1v1433h697v-1433h-697zM184 42h615v1351h-615v-1351zM358 1095q0 -56 38.5 -95t95.5 -39t95 39t38 95t-38 95t-95 39t-95.5 -39t-38.5 -95zM363 214q0 -9 9 -9h239q9 0 9 9v101q0 53 -36.5 89t-91.5 36t-92 -36t-37 -89v-101zM363 486q0 -9 9 -9h239q9 0 9 9v136 q0 9 -9 9h-38q-9 0 -9 -9v-87h-46v76q0 9 -10 9h-36q-9 0 -9 -9v-76h-43v85q0 9 -10 9h-38q-9 0 -9 -9v-134zM363 677q0 -9 9 -9h239q9 0 9 9v40q0 9 -9 9h-149l111 47q7 3 7 11v25q0 7 -7 10l-111 47h149q9 0 9 9v41q0 9 -9 9h-239q-9 0 -9 -9v-50q0 -7 7 -10l141 -60 l-141 -59q-7 -3 -7 -11v-49zM415 1095q0 32 21.5 53.5t55.5 21.5t55 -21.5t21 -53.5t-21 -53.5t-55 -21.5t-55.5 21.5t-21.5 53.5zM420 264v51q0 30 19.5 49t52.5 19t52.5 -19t19.5 -49v-51h-144z" />
<glyph unicode="&#xe8;" d="M143 1v1433h697v-1433h-697zM184 42h615v1351h-615v-1351zM358 1095q0 -56 38.5 -95t95.5 -39t95 39t38 95t-38 95t-95 39t-95.5 -39t-38.5 -95zM363 214q0 -9 9 -9h239q9 0 9 9v101q0 53 -36.5 89t-91.5 36t-92 -36t-37 -89v-101zM363 486q0 -9 9 -9h239q9 0 9 9v136 q0 9 -9 9h-38q-9 0 -9 -9v-87h-46v76q0 9 -10 9h-36q-9 0 -9 -9v-76h-43v85q0 9 -10 9h-38q-9 0 -9 -9v-134zM363 677q0 -9 9 -9h239q9 0 9 9v40q0 9 -9 9h-149l111 47q7 3 7 11v25q0 7 -7 10l-111 47h149q9 0 9 9v41q0 9 -9 9h-239q-9 0 -9 -9v-50q0 -7 7 -10l141 -60 l-141 -59q-7 -3 -7 -11v-49zM415 1095q0 32 21.5 53.5t55.5 21.5t55 -21.5t21 -53.5t-21 -53.5t-55 -21.5t-55.5 21.5t-21.5 53.5zM420 264v51q0 30 19.5 49t52.5 19t52.5 -19t19.5 -49v-51h-144z" />
<glyph unicode="&#xe9;" d="M143 1v1433h697v-1433h-697zM184 42h615v1351h-615v-1351zM358 1095q0 -56 38.5 -95t95.5 -39t95 39t38 95t-38 95t-95 39t-95.5 -39t-38.5 -95zM363 214q0 -9 9 -9h239q9 0 9 9v101q0 53 -36.5 89t-91.5 36t-92 -36t-37 -89v-101zM363 486q0 -9 9 -9h239q9 0 9 9v136 q0 9 -9 9h-38q-9 0 -9 -9v-87h-46v76q0 9 -10 9h-36q-9 0 -9 -9v-76h-43v85q0 9 -10 9h-38q-9 0 -9 -9v-134zM363 677q0 -9 9 -9h239q9 0 9 9v40q0 9 -9 9h-149l111 47q7 3 7 11v25q0 7 -7 10l-111 47h149q9 0 9 9v41q0 9 -9 9h-239q-9 0 -9 -9v-50q0 -7 7 -10l141 -60 l-141 -59q-7 -3 -7 -11v-49zM415 1095q0 32 21.5 53.5t55.5 21.5t55 -21.5t21 -53.5t-21 -53.5t-55 -21.5t-55.5 21.5t-21.5 53.5zM420 264v51q0 30 19.5 49t52.5 19t52.5 -19t19.5 -49v-51h-144z" />
<glyph unicode="&#xea;" d="M143 1v1433h697v-1433h-697zM184 42h615v1351h-615v-1351zM358 1095q0 -56 38.5 -95t95.5 -39t95 39t38 95t-38 95t-95 39t-95.5 -39t-38.5 -95zM363 214q0 -9 9 -9h239q9 0 9 9v101q0 53 -36.5 89t-91.5 36t-92 -36t-37 -89v-101zM363 486q0 -9 9 -9h239q9 0 9 9v136 q0 9 -9 9h-38q-9 0 -9 -9v-87h-46v76q0 9 -10 9h-36q-9 0 -9 -9v-76h-43v85q0 9 -10 9h-38q-9 0 -9 -9v-134zM363 677q0 -9 9 -9h239q9 0 9 9v40q0 9 -9 9h-149l111 47q7 3 7 11v25q0 7 -7 10l-111 47h149q9 0 9 9v41q0 9 -9 9h-239q-9 0 -9 -9v-50q0 -7 7 -10l141 -60 l-141 -59q-7 -3 -7 -11v-49zM415 1095q0 32 21.5 53.5t55.5 21.5t55 -21.5t21 -53.5t-21 -53.5t-55 -21.5t-55.5 21.5t-21.5 53.5zM420 264v51q0 30 19.5 49t52.5 19t52.5 -19t19.5 -49v-51h-144z" />
<glyph unicode="&#xeb;" d="M143 1v1433h697v-1433h-697zM184 42h615v1351h-615v-1351zM358 1095q0 -56 38.5 -95t95.5 -39t95 39t38 95t-38 95t-95 39t-95.5 -39t-38.5 -95zM363 214q0 -9 9 -9h239q9 0 9 9v101q0 53 -36.5 89t-91.5 36t-92 -36t-37 -89v-101zM363 486q0 -9 9 -9h239q9 0 9 9v136 q0 9 -9 9h-38q-9 0 -9 -9v-87h-46v76q0 9 -10 9h-36q-9 0 -9 -9v-76h-43v85q0 9 -10 9h-38q-9 0 -9 -9v-134zM363 677q0 -9 9 -9h239q9 0 9 9v40q0 9 -9 9h-149l111 47q7 3 7 11v25q0 7 -7 10l-111 47h149q9 0 9 9v41q0 9 -9 9h-239q-9 0 -9 -9v-50q0 -7 7 -10l141 -60 l-141 -59q-7 -3 -7 -11v-49zM415 1095q0 32 21.5 53.5t55.5 21.5t55 -21.5t21 -53.5t-21 -53.5t-55 -21.5t-55.5 21.5t-21.5 53.5zM420 264v51q0 30 19.5 49t52.5 19t52.5 -19t19.5 -49v-51h-144z" />
<glyph unicode="&#xec;" d="M143 1v1433h697v-1433h-697zM184 42h615v1351h-615v-1351zM358 1095q0 -56 38.5 -95t95.5 -39t95 39t38 95t-38 95t-95 39t-95.5 -39t-38.5 -95zM363 214q0 -9 9 -9h239q9 0 9 9v101q0 53 -36.5 89t-91.5 36t-92 -36t-37 -89v-101zM363 486q0 -9 9 -9h239q9 0 9 9v136 q0 9 -9 9h-38q-9 0 -9 -9v-87h-46v76q0 9 -10 9h-36q-9 0 -9 -9v-76h-43v85q0 9 -10 9h-38q-9 0 -9 -9v-134zM363 677q0 -9 9 -9h239q9 0 9 9v40q0 9 -9 9h-149l111 47q7 3 7 11v25q0 7 -7 10l-111 47h149q9 0 9 9v41q0 9 -9 9h-239q-9 0 -9 -9v-50q0 -7 7 -10l141 -60 l-141 -59q-7 -3 -7 -11v-49zM415 1095q0 32 21.5 53.5t55.5 21.5t55 -21.5t21 -53.5t-21 -53.5t-55 -21.5t-55.5 21.5t-21.5 53.5zM420 264v51q0 30 19.5 49t52.5 19t52.5 -19t19.5 -49v-51h-144z" />
<glyph unicode="&#xed;" d="M143 1v1433h697v-1433h-697zM184 42h615v1351h-615v-1351zM358 1095q0 -56 38.5 -95t95.5 -39t95 39t38 95t-38 95t-95 39t-95.5 -39t-38.5 -95zM363 214q0 -9 9 -9h239q9 0 9 9v101q0 53 -36.5 89t-91.5 36t-92 -36t-37 -89v-101zM363 486q0 -9 9 -9h239q9 0 9 9v136 q0 9 -9 9h-38q-9 0 -9 -9v-87h-46v76q0 9 -10 9h-36q-9 0 -9 -9v-76h-43v85q0 9 -10 9h-38q-9 0 -9 -9v-134zM363 677q0 -9 9 -9h239q9 0 9 9v40q0 9 -9 9h-149l111 47q7 3 7 11v25q0 7 -7 10l-111 47h149q9 0 9 9v41q0 9 -9 9h-239q-9 0 -9 -9v-50q0 -7 7 -10l141 -60 l-141 -59q-7 -3 -7 -11v-49zM415 1095q0 32 21.5 53.5t55.5 21.5t55 -21.5t21 -53.5t-21 -53.5t-55 -21.5t-55.5 21.5t-21.5 53.5zM420 264v51q0 30 19.5 49t52.5 19t52.5 -19t19.5 -49v-51h-144z" />
<glyph unicode="&#xee;" d="M143 1v1433h697v-1433h-697zM184 42h615v1351h-615v-1351zM358 1095q0 -56 38.5 -95t95.5 -39t95 39t38 95t-38 95t-95 39t-95.5 -39t-38.5 -95zM363 214q0 -9 9 -9h239q9 0 9 9v101q0 53 -36.5 89t-91.5 36t-92 -36t-37 -89v-101zM363 486q0 -9 9 -9h239q9 0 9 9v136 q0 9 -9 9h-38q-9 0 -9 -9v-87h-46v76q0 9 -10 9h-36q-9 0 -9 -9v-76h-43v85q0 9 -10 9h-38q-9 0 -9 -9v-134zM363 677q0 -9 9 -9h239q9 0 9 9v40q0 9 -9 9h-149l111 47q7 3 7 11v25q0 7 -7 10l-111 47h149q9 0 9 9v41q0 9 -9 9h-239q-9 0 -9 -9v-50q0 -7 7 -10l141 -60 l-141 -59q-7 -3 -7 -11v-49zM415 1095q0 32 21.5 53.5t55.5 21.5t55 -21.5t21 -53.5t-21 -53.5t-55 -21.5t-55.5 21.5t-21.5 53.5zM420 264v51q0 30 19.5 49t52.5 19t52.5 -19t19.5 -49v-51h-144z" />
<glyph unicode="&#xef;" d="M143 1v1433h697v-1433h-697zM184 42h615v1351h-615v-1351zM358 1095q0 -56 38.5 -95t95.5 -39t95 39t38 95t-38 95t-95 39t-95.5 -39t-38.5 -95zM363 214q0 -9 9 -9h239q9 0 9 9v101q0 53 -36.5 89t-91.5 36t-92 -36t-37 -89v-101zM363 486q0 -9 9 -9h239q9 0 9 9v136 q0 9 -9 9h-38q-9 0 -9 -9v-87h-46v76q0 9 -10 9h-36q-9 0 -9 -9v-76h-43v85q0 9 -10 9h-38q-9 0 -9 -9v-134zM363 677q0 -9 9 -9h239q9 0 9 9v40q0 9 -9 9h-149l111 47q7 3 7 11v25q0 7 -7 10l-111 47h149q9 0 9 9v41q0 9 -9 9h-239q-9 0 -9 -9v-50q0 -7 7 -10l141 -60 l-141 -59q-7 -3 -7 -11v-49zM415 1095q0 32 21.5 53.5t55.5 21.5t55 -21.5t21 -53.5t-21 -53.5t-55 -21.5t-55.5 21.5t-21.5 53.5zM420 264v51q0 30 19.5 49t52.5 19t52.5 -19t19.5 -49v-51h-144z" />
<glyph unicode="&#xf0;" d="M143 1v1433h697v-1433h-697zM184 42h615v1351h-615v-1351zM358 1095q0 -56 38.5 -95t95.5 -39t95 39t38 95t-38 95t-95 39t-95.5 -39t-38.5 -95zM363 214q0 -9 9 -9h239q9 0 9 9v101q0 53 -36.5 89t-91.5 36t-92 -36t-37 -89v-101zM363 486q0 -9 9 -9h239q9 0 9 9v136 q0 9 -9 9h-38q-9 0 -9 -9v-87h-46v76q0 9 -10 9h-36q-9 0 -9 -9v-76h-43v85q0 9 -10 9h-38q-9 0 -9 -9v-134zM363 677q0 -9 9 -9h239q9 0 9 9v40q0 9 -9 9h-149l111 47q7 3 7 11v25q0 7 -7 10l-111 47h149q9 0 9 9v41q0 9 -9 9h-239q-9 0 -9 -9v-50q0 -7 7 -10l141 -60 l-141 -59q-7 -3 -7 -11v-49zM415 1095q0 32 21.5 53.5t55.5 21.5t55 -21.5t21 -53.5t-21 -53.5t-55 -21.5t-55.5 21.5t-21.5 53.5zM420 264v51q0 30 19.5 49t52.5 19t52.5 -19t19.5 -49v-51h-144z" />
<glyph unicode="&#xf1;" d="M143 1v1433h697v-1433h-697zM184 42h615v1351h-615v-1351zM358 1095q0 -56 38.5 -95t95.5 -39t95 39t38 95t-38 95t-95 39t-95.5 -39t-38.5 -95zM363 214q0 -9 9 -9h239q9 0 9 9v101q0 53 -36.5 89t-91.5 36t-92 -36t-37 -89v-101zM363 486q0 -9 9 -9h239q9 0 9 9v136 q0 9 -9 9h-38q-9 0 -9 -9v-87h-46v76q0 9 -10 9h-36q-9 0 -9 -9v-76h-43v85q0 9 -10 9h-38q-9 0 -9 -9v-134zM363 677q0 -9 9 -9h239q9 0 9 9v40q0 9 -9 9h-149l111 47q7 3 7 11v25q0 7 -7 10l-111 47h149q9 0 9 9v41q0 9 -9 9h-239q-9 0 -9 -9v-50q0 -7 7 -10l141 -60 l-141 -59q-7 -3 -7 -11v-49zM415 1095q0 32 21.5 53.5t55.5 21.5t55 -21.5t21 -53.5t-21 -53.5t-55 -21.5t-55.5 21.5t-21.5 53.5zM420 264v51q0 30 19.5 49t52.5 19t52.5 -19t19.5 -49v-51h-144z" />
<glyph unicode="&#xf2;" d="M143 1v1433h697v-1433h-697zM184 42h615v1351h-615v-1351zM358 1095q0 -56 38.5 -95t95.5 -39t95 39t38 95t-38 95t-95 39t-95.5 -39t-38.5 -95zM363 214q0 -9 9 -9h239q9 0 9 9v101q0 53 -36.5 89t-91.5 36t-92 -36t-37 -89v-101zM363 486q0 -9 9 -9h239q9 0 9 9v136 q0 9 -9 9h-38q-9 0 -9 -9v-87h-46v76q0 9 -10 9h-36q-9 0 -9 -9v-76h-43v85q0 9 -10 9h-38q-9 0 -9 -9v-134zM363 677q0 -9 9 -9h239q9 0 9 9v40q0 9 -9 9h-149l111 47q7 3 7 11v25q0 7 -7 10l-111 47h149q9 0 9 9v41q0 9 -9 9h-239q-9 0 -9 -9v-50q0 -7 7 -10l141 -60 l-141 -59q-7 -3 -7 -11v-49zM415 1095q0 32 21.5 53.5t55.5 21.5t55 -21.5t21 -53.5t-21 -53.5t-55 -21.5t-55.5 21.5t-21.5 53.5zM420 264v51q0 30 19.5 49t52.5 19t52.5 -19t19.5 -49v-51h-144z" />
<glyph unicode="&#xf3;" d="M143 1v1433h697v-1433h-697zM184 42h615v1351h-615v-1351zM358 1095q0 -56 38.5 -95t95.5 -39t95 39t38 95t-38 95t-95 39t-95.5 -39t-38.5 -95zM363 214q0 -9 9 -9h239q9 0 9 9v101q0 53 -36.5 89t-91.5 36t-92 -36t-37 -89v-101zM363 486q0 -9 9 -9h239q9 0 9 9v136 q0 9 -9 9h-38q-9 0 -9 -9v-87h-46v76q0 9 -10 9h-36q-9 0 -9 -9v-76h-43v85q0 9 -10 9h-38q-9 0 -9 -9v-134zM363 677q0 -9 9 -9h239q9 0 9 9v40q0 9 -9 9h-149l111 47q7 3 7 11v25q0 7 -7 10l-111 47h149q9 0 9 9v41q0 9 -9 9h-239q-9 0 -9 -9v-50q0 -7 7 -10l141 -60 l-141 -59q-7 -3 -7 -11v-49zM415 1095q0 32 21.5 53.5t55.5 21.5t55 -21.5t21 -53.5t-21 -53.5t-55 -21.5t-55.5 21.5t-21.5 53.5zM420 264v51q0 30 19.5 49t52.5 19t52.5 -19t19.5 -49v-51h-144z" />
<glyph unicode="&#xf4;" d="M143 1v1433h697v-1433h-697zM184 42h615v1351h-615v-1351zM358 1095q0 -56 38.5 -95t95.5 -39t95 39t38 95t-38 95t-95 39t-95.5 -39t-38.5 -95zM363 214q0 -9 9 -9h239q9 0 9 9v101q0 53 -36.5 89t-91.5 36t-92 -36t-37 -89v-101zM363 486q0 -9 9 -9h239q9 0 9 9v136 q0 9 -9 9h-38q-9 0 -9 -9v-87h-46v76q0 9 -10 9h-36q-9 0 -9 -9v-76h-43v85q0 9 -10 9h-38q-9 0 -9 -9v-134zM363 677q0 -9 9 -9h239q9 0 9 9v40q0 9 -9 9h-149l111 47q7 3 7 11v25q0 7 -7 10l-111 47h149q9 0 9 9v41q0 9 -9 9h-239q-9 0 -9 -9v-50q0 -7 7 -10l141 -60 l-141 -59q-7 -3 -7 -11v-49zM415 1095q0 32 21.5 53.5t55.5 21.5t55 -21.5t21 -53.5t-21 -53.5t-55 -21.5t-55.5 21.5t-21.5 53.5zM420 264v51q0 30 19.5 49t52.5 19t52.5 -19t19.5 -49v-51h-144z" />
<glyph unicode="&#xf5;" d="M143 1v1433h697v-1433h-697zM184 42h615v1351h-615v-1351zM358 1095q0 -56 38.5 -95t95.5 -39t95 39t38 95t-38 95t-95 39t-95.5 -39t-38.5 -95zM363 214q0 -9 9 -9h239q9 0 9 9v101q0 53 -36.5 89t-91.5 36t-92 -36t-37 -89v-101zM363 486q0 -9 9 -9h239q9 0 9 9v136 q0 9 -9 9h-38q-9 0 -9 -9v-87h-46v76q0 9 -10 9h-36q-9 0 -9 -9v-76h-43v85q0 9 -10 9h-38q-9 0 -9 -9v-134zM363 677q0 -9 9 -9h239q9 0 9 9v40q0 9 -9 9h-149l111 47q7 3 7 11v25q0 7 -7 10l-111 47h149q9 0 9 9v41q0 9 -9 9h-239q-9 0 -9 -9v-50q0 -7 7 -10l141 -60 l-141 -59q-7 -3 -7 -11v-49zM415 1095q0 32 21.5 53.5t55.5 21.5t55 -21.5t21 -53.5t-21 -53.5t-55 -21.5t-55.5 21.5t-21.5 53.5zM420 264v51q0 30 19.5 49t52.5 19t52.5 -19t19.5 -49v-51h-144z" />
<glyph unicode="&#xf6;" d="M143 1v1433h697v-1433h-697zM184 42h615v1351h-615v-1351zM358 1095q0 -56 38.5 -95t95.5 -39t95 39t38 95t-38 95t-95 39t-95.5 -39t-38.5 -95zM363 214q0 -9 9 -9h239q9 0 9 9v101q0 53 -36.5 89t-91.5 36t-92 -36t-37 -89v-101zM363 486q0 -9 9 -9h239q9 0 9 9v136 q0 9 -9 9h-38q-9 0 -9 -9v-87h-46v76q0 9 -10 9h-36q-9 0 -9 -9v-76h-43v85q0 9 -10 9h-38q-9 0 -9 -9v-134zM363 677q0 -9 9 -9h239q9 0 9 9v40q0 9 -9 9h-149l111 47q7 3 7 11v25q0 7 -7 10l-111 47h149q9 0 9 9v41q0 9 -9 9h-239q-9 0 -9 -9v-50q0 -7 7 -10l141 -60 l-141 -59q-7 -3 -7 -11v-49zM415 1095q0 32 21.5 53.5t55.5 21.5t55 -21.5t21 -53.5t-21 -53.5t-55 -21.5t-55.5 21.5t-21.5 53.5zM420 264v51q0 30 19.5 49t52.5 19t52.5 -19t19.5 -49v-51h-144z" />
<glyph unicode="&#xf7;" d="M143 1v1433h697v-1433h-697zM184 42h615v1351h-615v-1351zM358 1095q0 -56 38.5 -95t95.5 -39t95 39t38 95t-38 95t-95 39t-95.5 -39t-38.5 -95zM363 214q0 -9 9 -9h239q9 0 9 9v101q0 53 -36.5 89t-91.5 36t-92 -36t-37 -89v-101zM363 486q0 -9 9 -9h239q9 0 9 9v136 q0 9 -9 9h-38q-9 0 -9 -9v-87h-46v76q0 9 -10 9h-36q-9 0 -9 -9v-76h-43v85q0 9 -10 9h-38q-9 0 -9 -9v-134zM363 677q0 -9 9 -9h239q9 0 9 9v40q0 9 -9 9h-149l111 47q7 3 7 11v25q0 7 -7 10l-111 47h149q9 0 9 9v41q0 9 -9 9h-239q-9 0 -9 -9v-50q0 -7 7 -10l141 -60 l-141 -59q-7 -3 -7 -11v-49zM415 1095q0 32 21.5 53.5t55.5 21.5t55 -21.5t21 -53.5t-21 -53.5t-55 -21.5t-55.5 21.5t-21.5 53.5zM420 264v51q0 30 19.5 49t52.5 19t52.5 -19t19.5 -49v-51h-144z" />
<glyph unicode="&#xf8;" d="M143 1v1433h697v-1433h-697zM184 42h615v1351h-615v-1351zM358 1095q0 -56 38.5 -95t95.5 -39t95 39t38 95t-38 95t-95 39t-95.5 -39t-38.5 -95zM363 214q0 -9 9 -9h239q9 0 9 9v101q0 53 -36.5 89t-91.5 36t-92 -36t-37 -89v-101zM363 486q0 -9 9 -9h239q9 0 9 9v136 q0 9 -9 9h-38q-9 0 -9 -9v-87h-46v76q0 9 -10 9h-36q-9 0 -9 -9v-76h-43v85q0 9 -10 9h-38q-9 0 -9 -9v-134zM363 677q0 -9 9 -9h239q9 0 9 9v40q0 9 -9 9h-149l111 47q7 3 7 11v25q0 7 -7 10l-111 47h149q9 0 9 9v41q0 9 -9 9h-239q-9 0 -9 -9v-50q0 -7 7 -10l141 -60 l-141 -59q-7 -3 -7 -11v-49zM415 1095q0 32 21.5 53.5t55.5 21.5t55 -21.5t21 -53.5t-21 -53.5t-55 -21.5t-55.5 21.5t-21.5 53.5zM420 264v51q0 30 19.5 49t52.5 19t52.5 -19t19.5 -49v-51h-144z" />
<glyph unicode="&#xf9;" d="M143 1v1433h697v-1433h-697zM184 42h615v1351h-615v-1351zM358 1095q0 -56 38.5 -95t95.5 -39t95 39t38 95t-38 95t-95 39t-95.5 -39t-38.5 -95zM363 214q0 -9 9 -9h239q9 0 9 9v101q0 53 -36.5 89t-91.5 36t-92 -36t-37 -89v-101zM363 486q0 -9 9 -9h239q9 0 9 9v136 q0 9 -9 9h-38q-9 0 -9 -9v-87h-46v76q0 9 -10 9h-36q-9 0 -9 -9v-76h-43v85q0 9 -10 9h-38q-9 0 -9 -9v-134zM363 677q0 -9 9 -9h239q9 0 9 9v40q0 9 -9 9h-149l111 47q7 3 7 11v25q0 7 -7 10l-111 47h149q9 0 9 9v41q0 9 -9 9h-239q-9 0 -9 -9v-50q0 -7 7 -10l141 -60 l-141 -59q-7 -3 -7 -11v-49zM415 1095q0 32 21.5 53.5t55.5 21.5t55 -21.5t21 -53.5t-21 -53.5t-55 -21.5t-55.5 21.5t-21.5 53.5zM420 264v51q0 30 19.5 49t52.5 19t52.5 -19t19.5 -49v-51h-144z" />
<glyph unicode="&#xfa;" d="M143 1v1433h697v-1433h-697zM184 42h615v1351h-615v-1351zM358 1095q0 -56 38.5 -95t95.5 -39t95 39t38 95t-38 95t-95 39t-95.5 -39t-38.5 -95zM363 214q0 -9 9 -9h239q9 0 9 9v101q0 53 -36.5 89t-91.5 36t-92 -36t-37 -89v-101zM363 486q0 -9 9 -9h239q9 0 9 9v136 q0 9 -9 9h-38q-9 0 -9 -9v-87h-46v76q0 9 -10 9h-36q-9 0 -9 -9v-76h-43v85q0 9 -10 9h-38q-9 0 -9 -9v-134zM363 677q0 -9 9 -9h239q9 0 9 9v40q0 9 -9 9h-149l111 47q7 3 7 11v25q0 7 -7 10l-111 47h149q9 0 9 9v41q0 9 -9 9h-239q-9 0 -9 -9v-50q0 -7 7 -10l141 -60 l-141 -59q-7 -3 -7 -11v-49zM415 1095q0 32 21.5 53.5t55.5 21.5t55 -21.5t21 -53.5t-21 -53.5t-55 -21.5t-55.5 21.5t-21.5 53.5zM420 264v51q0 30 19.5 49t52.5 19t52.5 -19t19.5 -49v-51h-144z" />
<glyph unicode="&#xfb;" d="M143 1v1433h697v-1433h-697zM184 42h615v1351h-615v-1351zM358 1095q0 -56 38.5 -95t95.5 -39t95 39t38 95t-38 95t-95 39t-95.5 -39t-38.5 -95zM363 214q0 -9 9 -9h239q9 0 9 9v101q0 53 -36.5 89t-91.5 36t-92 -36t-37 -89v-101zM363 486q0 -9 9 -9h239q9 0 9 9v136 q0 9 -9 9h-38q-9 0 -9 -9v-87h-46v76q0 9 -10 9h-36q-9 0 -9 -9v-76h-43v85q0 9 -10 9h-38q-9 0 -9 -9v-134zM363 677q0 -9 9 -9h239q9 0 9 9v40q0 9 -9 9h-149l111 47q7 3 7 11v25q0 7 -7 10l-111 47h149q9 0 9 9v41q0 9 -9 9h-239q-9 0 -9 -9v-50q0 -7 7 -10l141 -60 l-141 -59q-7 -3 -7 -11v-49zM415 1095q0 32 21.5 53.5t55.5 21.5t55 -21.5t21 -53.5t-21 -53.5t-55 -21.5t-55.5 21.5t-21.5 53.5zM420 264v51q0 30 19.5 49t52.5 19t52.5 -19t19.5 -49v-51h-144z" />
<glyph unicode="&#xfc;" d="M143 1v1433h697v-1433h-697zM184 42h615v1351h-615v-1351zM358 1095q0 -56 38.5 -95t95.5 -39t95 39t38 95t-38 95t-95 39t-95.5 -39t-38.5 -95zM363 214q0 -9 9 -9h239q9 0 9 9v101q0 53 -36.5 89t-91.5 36t-92 -36t-37 -89v-101zM363 486q0 -9 9 -9h239q9 0 9 9v136 q0 9 -9 9h-38q-9 0 -9 -9v-87h-46v76q0 9 -10 9h-36q-9 0 -9 -9v-76h-43v85q0 9 -10 9h-38q-9 0 -9 -9v-134zM363 677q0 -9 9 -9h239q9 0 9 9v40q0 9 -9 9h-149l111 47q7 3 7 11v25q0 7 -7 10l-111 47h149q9 0 9 9v41q0 9 -9 9h-239q-9 0 -9 -9v-50q0 -7 7 -10l141 -60 l-141 -59q-7 -3 -7 -11v-49zM415 1095q0 32 21.5 53.5t55.5 21.5t55 -21.5t21 -53.5t-21 -53.5t-55 -21.5t-55.5 21.5t-21.5 53.5zM420 264v51q0 30 19.5 49t52.5 19t52.5 -19t19.5 -49v-51h-144z" />
<glyph unicode="&#xfd;" d="M143 1v1433h697v-1433h-697zM184 42h615v1351h-615v-1351zM358 1095q0 -56 38.5 -95t95.5 -39t95 39t38 95t-38 95t-95 39t-95.5 -39t-38.5 -95zM363 214q0 -9 9 -9h239q9 0 9 9v101q0 53 -36.5 89t-91.5 36t-92 -36t-37 -89v-101zM363 486q0 -9 9 -9h239q9 0 9 9v136 q0 9 -9 9h-38q-9 0 -9 -9v-87h-46v76q0 9 -10 9h-36q-9 0 -9 -9v-76h-43v85q0 9 -10 9h-38q-9 0 -9 -9v-134zM363 677q0 -9 9 -9h239q9 0 9 9v40q0 9 -9 9h-149l111 47q7 3 7 11v25q0 7 -7 10l-111 47h149q9 0 9 9v41q0 9 -9 9h-239q-9 0 -9 -9v-50q0 -7 7 -10l141 -60 l-141 -59q-7 -3 -7 -11v-49zM415 1095q0 32 21.5 53.5t55.5 21.5t55 -21.5t21 -53.5t-21 -53.5t-55 -21.5t-55.5 21.5t-21.5 53.5zM420 264v51q0 30 19.5 49t52.5 19t52.5 -19t19.5 -49v-51h-144z" />
<glyph unicode="&#xfe;" d="M143 1v1433h697v-1433h-697zM184 42h615v1351h-615v-1351zM358 1095q0 -56 38.5 -95t95.5 -39t95 39t38 95t-38 95t-95 39t-95.5 -39t-38.5 -95zM363 214q0 -9 9 -9h239q9 0 9 9v101q0 53 -36.5 89t-91.5 36t-92 -36t-37 -89v-101zM363 486q0 -9 9 -9h239q9 0 9 9v136 q0 9 -9 9h-38q-9 0 -9 -9v-87h-46v76q0 9 -10 9h-36q-9 0 -9 -9v-76h-43v85q0 9 -10 9h-38q-9 0 -9 -9v-134zM363 677q0 -9 9 -9h239q9 0 9 9v40q0 9 -9 9h-149l111 47q7 3 7 11v25q0 7 -7 10l-111 47h149q9 0 9 9v41q0 9 -9 9h-239q-9 0 -9 -9v-50q0 -7 7 -10l141 -60 l-141 -59q-7 -3 -7 -11v-49zM415 1095q0 32 21.5 53.5t55.5 21.5t55 -21.5t21 -53.5t-21 -53.5t-55 -21.5t-55.5 21.5t-21.5 53.5zM420 264v51q0 30 19.5 49t52.5 19t52.5 -19t19.5 -49v-51h-144z" />
<glyph unicode="&#xff;" d="M143 1v1433h697v-1433h-697zM184 42h615v1351h-615v-1351zM358 1095q0 -56 38.5 -95t95.5 -39t95 39t38 95t-38 95t-95 39t-95.5 -39t-38.5 -95zM363 214q0 -9 9 -9h239q9 0 9 9v101q0 53 -36.5 89t-91.5 36t-92 -36t-37 -89v-101zM363 486q0 -9 9 -9h239q9 0 9 9v136 q0 9 -9 9h-38q-9 0 -9 -9v-87h-46v76q0 9 -10 9h-36q-9 0 -9 -9v-76h-43v85q0 9 -10 9h-38q-9 0 -9 -9v-134zM363 677q0 -9 9 -9h239q9 0 9 9v40q0 9 -9 9h-149l111 47q7 3 7 11v25q0 7 -7 10l-111 47h149q9 0 9 9v41q0 9 -9 9h-239q-9 0 -9 -9v-50q0 -7 7 -10l141 -60 l-141 -59q-7 -3 -7 -11v-49zM415 1095q0 32 21.5 53.5t55.5 21.5t55 -21.5t21 -53.5t-21 -53.5t-55 -21.5t-55.5 21.5t-21.5 53.5zM420 264v51q0 30 19.5 49t52.5 19t52.5 -19t19.5 -49v-51h-144z" />
<glyph unicode="&#x152;" d="M143 1v1433h697v-1433h-697zM184 42h615v1351h-615v-1351zM358 1095q0 -56 38.5 -95t95.5 -39t95 39t38 95t-38 95t-95 39t-95.5 -39t-38.5 -95zM363 214q0 -9 9 -9h239q9 0 9 9v101q0 53 -36.5 89t-91.5 36t-92 -36t-37 -89v-101zM363 486q0 -9 9 -9h239q9 0 9 9v136 q0 9 -9 9h-38q-9 0 -9 -9v-87h-46v76q0 9 -10 9h-36q-9 0 -9 -9v-76h-43v85q0 9 -10 9h-38q-9 0 -9 -9v-134zM363 677q0 -9 9 -9h239q9 0 9 9v40q0 9 -9 9h-149l111 47q7 3 7 11v25q0 7 -7 10l-111 47h149q9 0 9 9v41q0 9 -9 9h-239q-9 0 -9 -9v-50q0 -7 7 -10l141 -60 l-141 -59q-7 -3 -7 -11v-49zM415 1095q0 32 21.5 53.5t55.5 21.5t55 -21.5t21 -53.5t-21 -53.5t-55 -21.5t-55.5 21.5t-21.5 53.5zM420 264v51q0 30 19.5 49t52.5 19t52.5 -19t19.5 -49v-51h-144z" />
<glyph unicode="&#x153;" d="M143 1v1433h697v-1433h-697zM184 42h615v1351h-615v-1351zM358 1095q0 -56 38.5 -95t95.5 -39t95 39t38 95t-38 95t-95 39t-95.5 -39t-38.5 -95zM363 214q0 -9 9 -9h239q9 0 9 9v101q0 53 -36.5 89t-91.5 36t-92 -36t-37 -89v-101zM363 486q0 -9 9 -9h239q9 0 9 9v136 q0 9 -9 9h-38q-9 0 -9 -9v-87h-46v76q0 9 -10 9h-36q-9 0 -9 -9v-76h-43v85q0 9 -10 9h-38q-9 0 -9 -9v-134zM363 677q0 -9 9 -9h239q9 0 9 9v40q0 9 -9 9h-149l111 47q7 3 7 11v25q0 7 -7 10l-111 47h149q9 0 9 9v41q0 9 -9 9h-239q-9 0 -9 -9v-50q0 -7 7 -10l141 -60 l-141 -59q-7 -3 -7 -11v-49zM415 1095q0 32 21.5 53.5t55.5 21.5t55 -21.5t21 -53.5t-21 -53.5t-55 -21.5t-55.5 21.5t-21.5 53.5zM420 264v51q0 30 19.5 49t52.5 19t52.5 -19t19.5 -49v-51h-144z" />
<glyph unicode="&#x178;" d="M143 1v1433h697v-1433h-697zM184 42h615v1351h-615v-1351zM358 1095q0 -56 38.5 -95t95.5 -39t95 39t38 95t-38 95t-95 39t-95.5 -39t-38.5 -95zM363 214q0 -9 9 -9h239q9 0 9 9v101q0 53 -36.5 89t-91.5 36t-92 -36t-37 -89v-101zM363 486q0 -9 9 -9h239q9 0 9 9v136 q0 9 -9 9h-38q-9 0 -9 -9v-87h-46v76q0 9 -10 9h-36q-9 0 -9 -9v-76h-43v85q0 9 -10 9h-38q-9 0 -9 -9v-134zM363 677q0 -9 9 -9h239q9 0 9 9v40q0 9 -9 9h-149l111 47q7 3 7 11v25q0 7 -7 10l-111 47h149q9 0 9 9v41q0 9 -9 9h-239q-9 0 -9 -9v-50q0 -7 7 -10l141 -60 l-141 -59q-7 -3 -7 -11v-49zM415 1095q0 32 21.5 53.5t55.5 21.5t55 -21.5t21 -53.5t-21 -53.5t-55 -21.5t-55.5 21.5t-21.5 53.5zM420 264v51q0 30 19.5 49t52.5 19t52.5 -19t19.5 -49v-51h-144z" />
<glyph unicode="&#x2c6;" d="M143 1v1433h697v-1433h-697zM184 42h615v1351h-615v-1351zM358 1095q0 -56 38.5 -95t95.5 -39t95 39t38 95t-38 95t-95 39t-95.5 -39t-38.5 -95zM363 214q0 -9 9 -9h239q9 0 9 9v101q0 53 -36.5 89t-91.5 36t-92 -36t-37 -89v-101zM363 486q0 -9 9 -9h239q9 0 9 9v136 q0 9 -9 9h-38q-9 0 -9 -9v-87h-46v76q0 9 -10 9h-36q-9 0 -9 -9v-76h-43v85q0 9 -10 9h-38q-9 0 -9 -9v-134zM363 677q0 -9 9 -9h239q9 0 9 9v40q0 9 -9 9h-149l111 47q7 3 7 11v25q0 7 -7 10l-111 47h149q9 0 9 9v41q0 9 -9 9h-239q-9 0 -9 -9v-50q0 -7 7 -10l141 -60 l-141 -59q-7 -3 -7 -11v-49zM415 1095q0 32 21.5 53.5t55.5 21.5t55 -21.5t21 -53.5t-21 -53.5t-55 -21.5t-55.5 21.5t-21.5 53.5zM420 264v51q0 30 19.5 49t52.5 19t52.5 -19t19.5 -49v-51h-144z" />
<glyph unicode="&#x2dc;" d="M143 1v1433h697v-1433h-697zM184 42h615v1351h-615v-1351zM358 1095q0 -56 38.5 -95t95.5 -39t95 39t38 95t-38 95t-95 39t-95.5 -39t-38.5 -95zM363 214q0 -9 9 -9h239q9 0 9 9v101q0 53 -36.5 89t-91.5 36t-92 -36t-37 -89v-101zM363 486q0 -9 9 -9h239q9 0 9 9v136 q0 9 -9 9h-38q-9 0 -9 -9v-87h-46v76q0 9 -10 9h-36q-9 0 -9 -9v-76h-43v85q0 9 -10 9h-38q-9 0 -9 -9v-134zM363 677q0 -9 9 -9h239q9 0 9 9v40q0 9 -9 9h-149l111 47q7 3 7 11v25q0 7 -7 10l-111 47h149q9 0 9 9v41q0 9 -9 9h-239q-9 0 -9 -9v-50q0 -7 7 -10l141 -60 l-141 -59q-7 -3 -7 -11v-49zM415 1095q0 32 21.5 53.5t55.5 21.5t55 -21.5t21 -53.5t-21 -53.5t-55 -21.5t-55.5 21.5t-21.5 53.5zM420 264v51q0 30 19.5 49t52.5 19t52.5 -19t19.5 -49v-51h-144z" />
<glyph unicode="&#x2000;" horiz-adv-x="819" />
<glyph unicode="&#x2001;" horiz-adv-x="1638" />
<glyph unicode="&#x2002;" horiz-adv-x="819" />
<glyph unicode="&#x2003;" horiz-adv-x="1638" />
<glyph unicode="&#x2004;" horiz-adv-x="546" />
<glyph unicode="&#x2005;" horiz-adv-x="409" />
<glyph unicode="&#x2006;" horiz-adv-x="273" />
<glyph unicode="&#x2007;" horiz-adv-x="273" />
<glyph unicode="&#x2008;" horiz-adv-x="204" />
<glyph unicode="&#x2009;" horiz-adv-x="327" />
<glyph unicode="&#x200a;" horiz-adv-x="91" />
<glyph unicode="&#x2010;" d="M143 1v1433h697v-1433h-697zM184 42h615v1351h-615v-1351zM358 1095q0 -56 38.5 -95t95.5 -39t95 39t38 95t-38 95t-95 39t-95.5 -39t-38.5 -95zM363 214q0 -9 9 -9h239q9 0 9 9v101q0 53 -36.5 89t-91.5 36t-92 -36t-37 -89v-101zM363 486q0 -9 9 -9h239q9 0 9 9v136 q0 9 -9 9h-38q-9 0 -9 -9v-87h-46v76q0 9 -10 9h-36q-9 0 -9 -9v-76h-43v85q0 9 -10 9h-38q-9 0 -9 -9v-134zM363 677q0 -9 9 -9h239q9 0 9 9v40q0 9 -9 9h-149l111 47q7 3 7 11v25q0 7 -7 10l-111 47h149q9 0 9 9v41q0 9 -9 9h-239q-9 0 -9 -9v-50q0 -7 7 -10l141 -60 l-141 -59q-7 -3 -7 -11v-49zM415 1095q0 32 21.5 53.5t55.5 21.5t55 -21.5t21 -53.5t-21 -53.5t-55 -21.5t-55.5 21.5t-21.5 53.5zM420 264v51q0 30 19.5 49t52.5 19t52.5 -19t19.5 -49v-51h-144z" />
<glyph unicode="&#x2011;" d="M143 1v1433h697v-1433h-697zM184 42h615v1351h-615v-1351zM358 1095q0 -56 38.5 -95t95.5 -39t95 39t38 95t-38 95t-95 39t-95.5 -39t-38.5 -95zM363 214q0 -9 9 -9h239q9 0 9 9v101q0 53 -36.5 89t-91.5 36t-92 -36t-37 -89v-101zM363 486q0 -9 9 -9h239q9 0 9 9v136 q0 9 -9 9h-38q-9 0 -9 -9v-87h-46v76q0 9 -10 9h-36q-9 0 -9 -9v-76h-43v85q0 9 -10 9h-38q-9 0 -9 -9v-134zM363 677q0 -9 9 -9h239q9 0 9 9v40q0 9 -9 9h-149l111 47q7 3 7 11v25q0 7 -7 10l-111 47h149q9 0 9 9v41q0 9 -9 9h-239q-9 0 -9 -9v-50q0 -7 7 -10l141 -60 l-141 -59q-7 -3 -7 -11v-49zM415 1095q0 32 21.5 53.5t55.5 21.5t55 -21.5t21 -53.5t-21 -53.5t-55 -21.5t-55.5 21.5t-21.5 53.5zM420 264v51q0 30 19.5 49t52.5 19t52.5 -19t19.5 -49v-51h-144z" />
<glyph unicode="&#x2012;" d="M143 1v1433h697v-1433h-697zM184 42h615v1351h-615v-1351zM358 1095q0 -56 38.5 -95t95.5 -39t95 39t38 95t-38 95t-95 39t-95.5 -39t-38.5 -95zM363 214q0 -9 9 -9h239q9 0 9 9v101q0 53 -36.5 89t-91.5 36t-92 -36t-37 -89v-101zM363 486q0 -9 9 -9h239q9 0 9 9v136 q0 9 -9 9h-38q-9 0 -9 -9v-87h-46v76q0 9 -10 9h-36q-9 0 -9 -9v-76h-43v85q0 9 -10 9h-38q-9 0 -9 -9v-134zM363 677q0 -9 9 -9h239q9 0 9 9v40q0 9 -9 9h-149l111 47q7 3 7 11v25q0 7 -7 10l-111 47h149q9 0 9 9v41q0 9 -9 9h-239q-9 0 -9 -9v-50q0 -7 7 -10l141 -60 l-141 -59q-7 -3 -7 -11v-49zM415 1095q0 32 21.5 53.5t55.5 21.5t55 -21.5t21 -53.5t-21 -53.5t-55 -21.5t-55.5 21.5t-21.5 53.5zM420 264v51q0 30 19.5 49t52.5 19t52.5 -19t19.5 -49v-51h-144z" />
<glyph unicode="&#x2013;" d="M143 1v1433h697v-1433h-697zM184 42h615v1351h-615v-1351zM358 1095q0 -56 38.5 -95t95.5 -39t95 39t38 95t-38 95t-95 39t-95.5 -39t-38.5 -95zM363 214q0 -9 9 -9h239q9 0 9 9v101q0 53 -36.5 89t-91.5 36t-92 -36t-37 -89v-101zM363 486q0 -9 9 -9h239q9 0 9 9v136 q0 9 -9 9h-38q-9 0 -9 -9v-87h-46v76q0 9 -10 9h-36q-9 0 -9 -9v-76h-43v85q0 9 -10 9h-38q-9 0 -9 -9v-134zM363 677q0 -9 9 -9h239q9 0 9 9v40q0 9 -9 9h-149l111 47q7 3 7 11v25q0 7 -7 10l-111 47h149q9 0 9 9v41q0 9 -9 9h-239q-9 0 -9 -9v-50q0 -7 7 -10l141 -60 l-141 -59q-7 -3 -7 -11v-49zM415 1095q0 32 21.5 53.5t55.5 21.5t55 -21.5t21 -53.5t-21 -53.5t-55 -21.5t-55.5 21.5t-21.5 53.5zM420 264v51q0 30 19.5 49t52.5 19t52.5 -19t19.5 -49v-51h-144z" />
<glyph unicode="&#x2014;" d="M143 1v1433h697v-1433h-697zM184 42h615v1351h-615v-1351zM358 1095q0 -56 38.5 -95t95.5 -39t95 39t38 95t-38 95t-95 39t-95.5 -39t-38.5 -95zM363 214q0 -9 9 -9h239q9 0 9 9v101q0 53 -36.5 89t-91.5 36t-92 -36t-37 -89v-101zM363 486q0 -9 9 -9h239q9 0 9 9v136 q0 9 -9 9h-38q-9 0 -9 -9v-87h-46v76q0 9 -10 9h-36q-9 0 -9 -9v-76h-43v85q0 9 -10 9h-38q-9 0 -9 -9v-134zM363 677q0 -9 9 -9h239q9 0 9 9v40q0 9 -9 9h-149l111 47q7 3 7 11v25q0 7 -7 10l-111 47h149q9 0 9 9v41q0 9 -9 9h-239q-9 0 -9 -9v-50q0 -7 7 -10l141 -60 l-141 -59q-7 -3 -7 -11v-49zM415 1095q0 32 21.5 53.5t55.5 21.5t55 -21.5t21 -53.5t-21 -53.5t-55 -21.5t-55.5 21.5t-21.5 53.5zM420 264v51q0 30 19.5 49t52.5 19t52.5 -19t19.5 -49v-51h-144z" />
<glyph unicode="&#x2018;" horiz-adv-x="430" d="M157 1071v178q0 151 98 189q8 3 13 -1t5 -13v-17q0 -12 -11 -20q-46 -30 -47 -138h10q21 0 21 -21v-157q0 -20 -21 -20h-48q-20 0 -20 20z" />
<glyph unicode="&#x2019;" horiz-adv-x="430" d="M157 1060v17q0 12 11 20q46 30 47 139h-10q-21 0 -21 20v157q0 21 21 21h48q20 0 20 -21v-177q0 -152 -98 -190q-8 -3 -13 1t-5 13z" />
<glyph unicode="&#x201a;" horiz-adv-x="430" d="M157 -213q0 12 11 20q46 30 47 138h-10q-21 0 -21 21v157q0 20 21 20h48q20 0 20 -20v-178q0 -151 -98 -189q-8 -3 -13 1t-5 13v17z" />
<glyph unicode="&#x201c;" horiz-adv-x="661" d="M157 1071v178q0 151 98 189q8 3 13 -1t5 -13v-17q0 -12 -11 -20q-46 -30 -47 -138h10q21 0 21 -21v-157q0 -20 -21 -20h-48q-20 0 -20 20zM389 1071v178q0 151 98 189q8 3 13 -1t5 -13v-17q0 -12 -11 -20q-46 -30 -47 -138h10q21 0 21 -21v-157q0 -20 -21 -20h-47 q-21 0 -21 20z" />
<glyph unicode="&#x201d;" horiz-adv-x="661" d="M157 1060v17q0 12 11 20q46 30 47 139h-10q-21 0 -21 20v157q0 21 21 21h48q20 0 20 -21v-177q0 -152 -98 -190q-8 -3 -13 1t-5 13zM389 1060v17q0 12 11 20q46 30 47 139h-10q-21 0 -21 20v157q0 21 21 21h48q20 0 20 -21v-177q0 -152 -98 -190q-8 -3 -13 1t-5 13z" />
<glyph unicode="&#x201e;" horiz-adv-x="661" d="M157 -213q0 12 11 20q46 30 47 138h-10q-21 0 -21 21v157q0 20 21 20h48q20 0 20 -20v-178q0 -151 -98 -189q-8 -3 -13 1t-5 13v17zM389 -213q0 12 11 20q46 30 47 138h-10q-21 0 -21 21v157q0 20 21 20h48q20 0 20 -20v-178q0 -151 -98 -189q-8 -3 -13 1t-5 13v17z" />
<glyph unicode="&#x2022;" d="M143 1v1433h697v-1433h-697zM184 42h615v1351h-615v-1351zM358 1095q0 -56 38.5 -95t95.5 -39t95 39t38 95t-38 95t-95 39t-95.5 -39t-38.5 -95zM363 214q0 -9 9 -9h239q9 0 9 9v101q0 53 -36.5 89t-91.5 36t-92 -36t-37 -89v-101zM363 486q0 -9 9 -9h239q9 0 9 9v136 q0 9 -9 9h-38q-9 0 -9 -9v-87h-46v76q0 9 -10 9h-36q-9 0 -9 -9v-76h-43v85q0 9 -10 9h-38q-9 0 -9 -9v-134zM363 677q0 -9 9 -9h239q9 0 9 9v40q0 9 -9 9h-149l111 47q7 3 7 11v25q0 7 -7 10l-111 47h149q9 0 9 9v41q0 9 -9 9h-239q-9 0 -9 -9v-50q0 -7 7 -10l141 -60 l-141 -59q-7 -3 -7 -11v-49zM415 1095q0 32 21.5 53.5t55.5 21.5t55 -21.5t21 -53.5t-21 -53.5t-55 -21.5t-55.5 21.5t-21.5 53.5zM420 264v51q0 30 19.5 49t52.5 19t52.5 -19t19.5 -49v-51h-144z" />
<glyph unicode="&#x2026;" d="M143 1v1433h697v-1433h-697zM184 42h615v1351h-615v-1351zM358 1095q0 -56 38.5 -95t95.5 -39t95 39t38 95t-38 95t-95 39t-95.5 -39t-38.5 -95zM363 214q0 -9 9 -9h239q9 0 9 9v101q0 53 -36.5 89t-91.5 36t-92 -36t-37 -89v-101zM363 486q0 -9 9 -9h239q9 0 9 9v136 q0 9 -9 9h-38q-9 0 -9 -9v-87h-46v76q0 9 -10 9h-36q-9 0 -9 -9v-76h-43v85q0 9 -10 9h-38q-9 0 -9 -9v-134zM363 677q0 -9 9 -9h239q9 0 9 9v40q0 9 -9 9h-149l111 47q7 3 7 11v25q0 7 -7 10l-111 47h149q9 0 9 9v41q0 9 -9 9h-239q-9 0 -9 -9v-50q0 -7 7 -10l141 -60 l-141 -59q-7 -3 -7 -11v-49zM415 1095q0 32 21.5 53.5t55.5 21.5t55 -21.5t21 -53.5t-21 -53.5t-55 -21.5t-55.5 21.5t-21.5 53.5zM420 264v51q0 30 19.5 49t52.5 19t52.5 -19t19.5 -49v-51h-144z" />
<glyph unicode="&#x202f;" horiz-adv-x="327" />
<glyph unicode="&#x2039;" d="M143 1v1433h697v-1433h-697zM184 42h615v1351h-615v-1351zM358 1095q0 -56 38.5 -95t95.5 -39t95 39t38 95t-38 95t-95 39t-95.5 -39t-38.5 -95zM363 214q0 -9 9 -9h239q9 0 9 9v101q0 53 -36.5 89t-91.5 36t-92 -36t-37 -89v-101zM363 486q0 -9 9 -9h239q9 0 9 9v136 q0 9 -9 9h-38q-9 0 -9 -9v-87h-46v76q0 9 -10 9h-36q-9 0 -9 -9v-76h-43v85q0 9 -10 9h-38q-9 0 -9 -9v-134zM363 677q0 -9 9 -9h239q9 0 9 9v40q0 9 -9 9h-149l111 47q7 3 7 11v25q0 7 -7 10l-111 47h149q9 0 9 9v41q0 9 -9 9h-239q-9 0 -9 -9v-50q0 -7 7 -10l141 -60 l-141 -59q-7 -3 -7 -11v-49zM415 1095q0 32 21.5 53.5t55.5 21.5t55 -21.5t21 -53.5t-21 -53.5t-55 -21.5t-55.5 21.5t-21.5 53.5zM420 264v51q0 30 19.5 49t52.5 19t52.5 -19t19.5 -49v-51h-144z" />
<glyph unicode="&#x203a;" d="M143 1v1433h697v-1433h-697zM184 42h615v1351h-615v-1351zM358 1095q0 -56 38.5 -95t95.5 -39t95 39t38 95t-38 95t-95 39t-95.5 -39t-38.5 -95zM363 214q0 -9 9 -9h239q9 0 9 9v101q0 53 -36.5 89t-91.5 36t-92 -36t-37 -89v-101zM363 486q0 -9 9 -9h239q9 0 9 9v136 q0 9 -9 9h-38q-9 0 -9 -9v-87h-46v76q0 9 -10 9h-36q-9 0 -9 -9v-76h-43v85q0 9 -10 9h-38q-9 0 -9 -9v-134zM363 677q0 -9 9 -9h239q9 0 9 9v40q0 9 -9 9h-149l111 47q7 3 7 11v25q0 7 -7 10l-111 47h149q9 0 9 9v41q0 9 -9 9h-239q-9 0 -9 -9v-50q0 -7 7 -10l141 -60 l-141 -59q-7 -3 -7 -11v-49zM415 1095q0 32 21.5 53.5t55.5 21.5t55 -21.5t21 -53.5t-21 -53.5t-55 -21.5t-55.5 21.5t-21.5 53.5zM420 264v51q0 30 19.5 49t52.5 19t52.5 -19t19.5 -49v-51h-144z" />
<glyph unicode="&#x205f;" horiz-adv-x="409" />
<glyph unicode="&#x20ac;" horiz-adv-x="1271" d="M20 573v24q0 20 21 20h154q-4 64 -4 100q0 60 4 105h-154q-21 0 -21 20v24q0 20 21 20h160q34 265 169 417t350 152q185 0 309 -113.5t163 -312.5q2 -11 -3.5 -17t-15.5 -6h-34q-18 0 -22 19q-36 171 -140 265t-257 94q-180 0 -296 -131t-147 -367h556q20 0 20 -20v-24 q0 -20 -20 -20h-563q-4 -45 -4 -105q0 -36 4 -100h563q20 0 20 -20v-24q0 -20 -20 -20h-557q30 -239 146.5 -371.5t297.5 -132.5q154 0 259 95.5t139 268.5q4 20 23 20h33q10 0 16 -6t4 -17q-39 -202 -163.5 -317t-310.5 -115q-216 0 -351 154t-168 421h-160q-21 0 -21 20z " />
<glyph unicode="&#x2122;" d="M143 1v1433h697v-1433h-697zM184 42h615v1351h-615v-1351zM358 1095q0 -56 38.5 -95t95.5 -39t95 39t38 95t-38 95t-95 39t-95.5 -39t-38.5 -95zM363 214q0 -9 9 -9h239q9 0 9 9v101q0 53 -36.5 89t-91.5 36t-92 -36t-37 -89v-101zM363 486q0 -9 9 -9h239q9 0 9 9v136 q0 9 -9 9h-38q-9 0 -9 -9v-87h-46v76q0 9 -10 9h-36q-9 0 -9 -9v-76h-43v85q0 9 -10 9h-38q-9 0 -9 -9v-134zM363 677q0 -9 9 -9h239q9 0 9 9v40q0 9 -9 9h-149l111 47q7 3 7 11v25q0 7 -7 10l-111 47h149q9 0 9 9v41q0 9 -9 9h-239q-9 0 -9 -9v-50q0 -7 7 -10l141 -60 l-141 -59q-7 -3 -7 -11v-49zM415 1095q0 32 21.5 53.5t55.5 21.5t55 -21.5t21 -53.5t-21 -53.5t-55 -21.5t-55.5 21.5t-21.5 53.5zM420 264v51q0 30 19.5 49t52.5 19t52.5 -19t19.5 -49v-51h-144z" />
<glyph unicode="&#x25fc;" horiz-adv-x="1024" d="M0 0v1024h1024v-1024h-1024z" />
<glyph unicode="&#xfb03;" d="M143 1v1433h697v-1433h-697zM184 42h615v1351h-615v-1351zM358 1095q0 -56 38.5 -95t95.5 -39t95 39t38 95t-38 95t-95 39t-95.5 -39t-38.5 -95zM363 214q0 -9 9 -9h239q9 0 9 9v101q0 53 -36.5 89t-91.5 36t-92 -36t-37 -89v-101zM363 486q0 -9 9 -9h239q9 0 9 9v136 q0 9 -9 9h-38q-9 0 -9 -9v-87h-46v76q0 9 -10 9h-36q-9 0 -9 -9v-76h-43v85q0 9 -10 9h-38q-9 0 -9 -9v-134zM363 677q0 -9 9 -9h239q9 0 9 9v40q0 9 -9 9h-149l111 47q7 3 7 11v25q0 7 -7 10l-111 47h149q9 0 9 9v41q0 9 -9 9h-239q-9 0 -9 -9v-50q0 -7 7 -10l141 -60 l-141 -59q-7 -3 -7 -11v-49zM415 1095q0 32 21.5 53.5t55.5 21.5t55 -21.5t21 -53.5t-21 -53.5t-55 -21.5t-55.5 21.5t-21.5 53.5zM420 264v51q0 30 19.5 49t52.5 19t52.5 -19t19.5 -49v-51h-144z" />
<glyph unicode="&#xfb04;" d="M143 1v1433h697v-1433h-697zM184 42h615v1351h-615v-1351zM358 1095q0 -56 38.5 -95t95.5 -39t95 39t38 95t-38 95t-95 39t-95.5 -39t-38.5 -95zM363 214q0 -9 9 -9h239q9 0 9 9v101q0 53 -36.5 89t-91.5 36t-92 -36t-37 -89v-101zM363 486q0 -9 9 -9h239q9 0 9 9v136 q0 9 -9 9h-38q-9 0 -9 -9v-87h-46v76q0 9 -10 9h-36q-9 0 -9 -9v-76h-43v85q0 9 -10 9h-38q-9 0 -9 -9v-134zM363 677q0 -9 9 -9h239q9 0 9 9v40q0 9 -9 9h-149l111 47q7 3 7 11v25q0 7 -7 10l-111 47h149q9 0 9 9v41q0 9 -9 9h-239q-9 0 -9 -9v-50q0 -7 7 -10l141 -60 l-141 -59q-7 -3 -7 -11v-49zM415 1095q0 32 21.5 53.5t55.5 21.5t55 -21.5t21 -53.5t-21 -53.5t-55 -21.5t-55.5 21.5t-21.5 53.5zM420 264v51q0 30 19.5 49t52.5 19t52.5 -19t19.5 -49v-51h-144z" />
</font>
</defs>
</svg>
